<svg width="239" height="305" viewBox="0 0 239 305" fill="none" xmlns="http://www.w3.org/2000/svg">
<path fill-rule="evenodd" clip-rule="evenodd" d="M174.41 211.82C174.26 211.63 174.11 211.52 174.07 211.38C173.94 210.91 173.86 210.44 173.72 209.98C173.43 208.98 173.11 208.06 172.79 207.11C172.27 205.59 170.99 204.93 169.62 204.41C169.26 204.27 168.89 204.16 168.49 204.03C168.26 202.85 168.79 201.82 168.88 200.75C168.98 200.189 169.245 199.671 169.64 199.26C170.314 199.369 170.924 199.726 171.35 200.26C172.725 201.617 173.781 203.264 174.44 205.08C174.54 205.32 174.65 205.56 174.76 205.79C174.76 205.79 174.83 205.79 174.93 205.86C174.939 205.69 174.939 205.52 174.93 205.35C174.86 204.3 174.78 203.26 174.71 202.21C174.579 200.768 174.67 199.315 174.98 197.9C175.08 197.48 175.11 197.04 175.19 196.61C175.42 195.135 176.122 193.773 177.19 192.73C177.342 192.572 177.533 192.456 177.744 192.397C177.955 192.337 178.178 192.335 178.39 192.39C179.034 192.538 179.623 192.863 180.093 193.328C180.563 193.792 180.894 194.378 181.05 195.02C181.097 195.144 181.114 195.278 181.1 195.41C180.923 196.465 180.471 197.455 179.79 198.28C179.49 197.78 179.28 197.4 179.04 197.04C178.715 196.516 178.232 196.11 177.66 195.88C177.463 195.78 177.236 195.753 177.021 195.807C176.806 195.86 176.617 195.989 176.49 196.17C176.209 196.479 175.995 196.843 175.862 197.239C175.73 197.635 175.681 198.054 175.72 198.47C175.78 199.6 175.91 200.74 175.94 201.87C176.115 204.584 175.875 207.308 175.23 209.95C175.09 210.45 174.89 210.95 174.7 211.43C174.73 211.53 174.58 211.63 174.41 211.82Z" fill="#FF5856"/>
<path fill-rule="evenodd" clip-rule="evenodd" d="M58.7601 182.3C58.3996 181.556 57.8908 180.894 57.2648 180.354C56.6388 179.814 55.9089 179.407 55.1201 179.16L51.3701 177.54C50.5801 177.2 49.7901 176.87 49.0101 176.54C46.7101 175.45 46.5701 175.22 46.8901 172.76C46.993 171.907 47.167 171.064 47.4101 170.24C48.1601 167.85 48.9601 165.48 49.7401 163.1C49.8268 162.82 49.9268 162.55 50.0401 162.29C50.7201 160.73 51.2201 160.92 52.3601 161.43C54.5801 162.43 56.8301 163.37 59.0401 164.38C59.9606 164.778 60.8356 165.274 61.6501 165.86C62.2682 166.243 62.7387 166.824 62.9855 167.508C63.2324 168.193 63.241 168.94 63.0101 169.63C62.8601 170.11 62.8001 170.63 62.6801 171.09C62.0201 173.66 61.3501 176.22 60.6801 178.79C60.4601 179.62 60.2801 180.46 60.0101 181.27C59.949 181.558 59.7922 181.816 59.5651 182.003C59.3381 182.19 59.0543 182.295 58.7601 182.3Z" fill="#FF5856"/>
<path fill-rule="evenodd" clip-rule="evenodd" d="M189 120.32C188.28 118.53 186.76 117.67 185.12 116.97L181.12 115.24C180.28 114.87 179.43 114.52 178.61 114.13C176.16 112.96 176 112.72 176.34 110.13C176.451 109.219 176.638 108.32 176.9 107.44C177.7 104.89 178.55 102.35 179.39 99.81C179.477 99.5165 179.584 99.2292 179.71 98.95C180.43 97.29 180.97 97.49 182.18 98.04C184.55 99.11 186.95 100.11 189.32 101.19C190.301 101.614 191.233 102.144 192.1 102.77C192.756 103.176 193.257 103.792 193.52 104.518C193.783 105.244 193.794 106.037 193.55 106.77C193.39 107.28 193.33 107.77 193.19 108.33C192.49 111.07 191.783 113.807 191.07 116.54C190.84 117.43 190.64 118.33 190.37 119.2C190.302 119.514 190.129 119.796 189.881 120C189.632 120.203 189.321 120.316 189 120.32V120.32Z" fill="#FF5856"/>
<path fill-rule="evenodd" clip-rule="evenodd" d="M77.3496 97.2703C77.1319 96.5678 76.7731 95.9172 76.295 95.3583C75.817 94.7994 75.2299 94.3441 74.5696 94.0203C73.5696 93.3803 72.5096 92.7402 71.4896 92.0902C70.8396 91.6902 70.1896 91.2903 69.5596 90.8603C67.6796 89.5903 67.5596 89.3703 68.1996 87.2503C68.4065 86.5128 68.6741 85.7937 68.9996 85.1003C69.9996 83.1003 70.9996 81.1003 71.9996 79.1003C72.1196 78.8803 72.2396 78.6503 72.3696 78.4403C73.1796 77.1603 73.5896 77.3903 74.5296 77.9903C76.3396 79.1803 78.1996 80.3003 80.0096 81.4903C80.7632 81.964 81.4639 82.5171 82.0996 83.1403C82.5896 83.5623 82.924 84.1365 83.049 84.7711C83.1741 85.4056 83.0828 86.0638 82.7896 86.6403C82.5896 87.0403 82.4696 87.4703 82.2996 87.8803L79.5096 94.3803C79.2096 95.0803 78.9296 95.7902 78.5896 96.4802C78.5044 96.7339 78.3348 96.9506 78.1092 97.0944C77.8835 97.2381 77.6154 97.3002 77.3496 97.2703V97.2703Z" fill="#FF5856"/>
<path fill-rule="evenodd" clip-rule="evenodd" d="M72.6699 79.5798C72.4522 78.8773 72.0934 78.2267 71.6153 77.6678C71.1373 77.109 70.5502 76.6536 69.8899 76.3298L66.8099 74.3998C66.1599 73.9898 65.5099 73.5898 64.8799 73.1698C62.9999 71.8998 62.8799 71.6698 63.5199 69.5598C63.7236 68.8212 63.9912 68.1018 64.3199 67.4098C65.3199 65.4098 66.3199 63.4098 67.3199 61.4098C67.4399 61.1798 67.5599 60.9598 67.6899 60.7398C68.4999 59.4698 68.9199 59.7398 69.8499 60.2998C71.6599 61.4798 73.5199 62.6098 75.3299 63.7998C76.0856 64.2705 76.7866 64.8239 77.4199 65.4498C77.9137 65.867 78.2509 66.4397 78.3763 67.0739C78.5017 67.7081 78.4077 68.366 78.1099 68.9398C77.9099 69.3398 77.7899 69.7798 77.6199 70.1898L74.8299 76.6798C74.5299 77.3798 74.2599 78.0998 73.9199 78.7798C73.8346 79.036 73.6639 79.2553 73.4364 79.4009C73.2089 79.5465 72.9383 79.6096 72.6699 79.5798V79.5798Z" fill="#FF5856"/>
<path fill-rule="evenodd" clip-rule="evenodd" d="M97.4601 156C96.8901 157.49 96.31 158.92 95.79 160C96.4548 158.731 97.0231 157.414 97.4901 156.06L97.4601 156Z" fill="#3F51B5"/>
<path fill-rule="evenodd" clip-rule="evenodd" d="M96.6396 137.12C96.3195 137.549 96.0416 138.008 95.8096 138.49C96.1675 138.435 96.5317 138.435 96.8896 138.49C97.1596 137.71 97.4696 136.88 97.7896 136.03C97.341 136.317 96.9508 136.687 96.6396 137.12V137.12Z" fill="#3F51B5"/>
<path fill-rule="evenodd" clip-rule="evenodd" d="M210.11 128.06C210.098 127.705 210.01 127.356 209.852 127.038C209.694 126.719 209.469 126.438 209.194 126.213C208.918 125.989 208.597 125.826 208.253 125.736C207.91 125.645 207.55 125.63 207.2 125.69C206.28 125.785 205.398 126.105 204.63 126.62C202.042 128.403 199.922 130.783 198.45 133.56C197.15 136.22 195.98 138.95 194.74 141.65C193.11 145.2 191.56 148.78 189.79 152.26C188.3 155.21 185.35 158.84 182.04 162.4C171.95 173.27 155.41 155.53 151.66 150.62C151.92 148.38 152.14 146.13 152.36 143.88C153.025 136.59 153.215 129.265 152.93 121.95C152.8 118.04 152.55 114.12 152.07 110.24C151.224 104.816 149.861 99.4848 148 94.3201C145.92 87.9401 143.09 81.8601 140.63 75.6301C140.18 74.5001 139.63 73.3801 139.13 72.2901C135.535 64.9419 132.526 57.3216 130.13 49.5001C129.75 48.2501 129.45 46.9801 129.02 45.7501C127.64 41.7101 126.447 37.6167 125.44 33.4701C124.026 27.6316 123.083 21.6893 122.62 15.7001C122.3 11.6201 122.22 7.53008 121.99 3.44008C121.924 2.48971 121.763 1.54833 121.51 0.630074C121.434 0.484532 121.324 0.358947 121.19 0.26342C121.057 0.167893 120.902 0.105096 120.74 0.0800781C120.578 0.0814589 120.418 0.122232 120.276 0.198883C120.133 0.275534 120.011 0.385758 119.92 0.520073C119.479 1.48103 119.144 2.4869 118.92 3.52007C118.33 6.95007 117.85 10.3901 117.33 13.8301C117.355 14.7868 117.123 15.7328 116.66 16.5701C115.55 15.6601 114.56 14.8301 113.54 14.0301C112.112 12.8753 110.37 12.1783 108.54 12.0301C105.54 11.7801 102.94 12.4401 101.22 16.2301C99.7507 19.7704 98.8074 23.5067 98.4199 27.3201C98.1995 29.0498 98.3184 30.8059 98.7699 32.4901C100.349 38.7562 103.216 44.6243 107.19 49.7201C110.42 53.9401 113.57 58.2101 116.74 62.4801C117.51 63.4801 118.2 64.6201 118.87 65.6101C118.598 66.3967 118.384 67.2022 118.23 68.0201C117.872 70.6046 117.348 73.1633 116.66 75.6801C115.564 79.8058 114.825 84.0179 114.45 88.2701C114.181 91.3093 114.299 94.3704 114.8 97.3801C115.215 99.4451 116.306 101.313 117.9 102.69C119.99 104.54 122.32 103.92 123.25 101.34C123.37 101.02 123.49 100.69 123.58 100.34C124.285 97.0153 124.464 93.6004 124.11 90.2201C124.11 89.9801 123.73 89.7701 123.5 89.5101C123.056 90.3287 122.917 91.2788 123.11 92.1901C123.079 93.4165 122.735 94.6146 122.11 95.6701C122.005 95.9133 121.849 96.1308 121.652 96.3074C121.455 96.484 121.221 96.6154 120.968 96.6926C120.715 96.7697 120.448 96.7906 120.185 96.7539C119.923 96.7172 119.672 96.6238 119.45 96.4801C118.711 96.0347 118.069 95.4466 117.56 94.7501C116.11 92.7501 115.98 90.3701 116.04 88.0001C116.12 84.9301 117.04 82.0001 117.6 79.0001C118.27 75.5901 119.33 72.2601 119.6 68.7701C119.707 68.365 119.858 67.9727 120.05 67.6001C120.48 68.2301 120.78 68.6001 121.05 69.0501C121.62 70.0501 122.15 71.0501 122.73 72.0001C126.561 78.2336 129.927 84.7413 132.8 91.4701C137.361 102.001 139.019 113.562 137.6 124.95C137.07 130.31 136.27 135.66 135.6 141C135.52 141.57 138 136.91 138.53 134.26C139.53 129.31 140.32 124.33 140.86 119.31C141.12 116.89 141.19 114.44 141.21 112.01C141.23 109.58 141.04 107.31 140.96 105.01C140.96 104.71 140.96 104.41 141.02 104.01C141.77 104.26 141.85 104.81 142.02 105.26C145.174 112.631 147.232 120.423 148.13 128.39C148.355 130.644 148.355 132.916 148.13 135.17C147.746 138.718 147.141 142.238 146.32 145.71C145.329 150.136 143.547 154.347 141.06 158.14C130.66 174.14 117.9 160.91 110.76 152.14L109.71 150.85C109.29 150.33 108.9 149.85 108.53 149.36L118.76 125.1C119.154 124.173 119.214 123.137 118.929 122.171C118.645 121.204 118.033 120.366 117.2 119.8L100.32 108.32C100.107 108.179 99.9383 107.98 99.8355 107.745C99.7326 107.511 99.6994 107.253 99.7399 107C99.8699 106.19 100.09 105.4 100.24 104.6C100.49 103.181 100.49 101.729 100.24 100.31C100.103 100.808 99.8793 101.279 99.5799 101.7C99.1775 102.254 98.6995 102.749 98.1599 103.17C99.2413 101.834 99.9086 100.211 100.08 98.5001C100.16 97.5701 100.08 96.7101 100.08 95.8201C100.085 95.485 100.115 95.1507 100.17 94.8201C100.17 94.6201 100.25 94.4201 100.3 94.2301C100.633 92.975 101.407 91.8818 102.48 91.1501C102.316 91.2286 102.155 91.3154 102 91.4101C101.069 92.0016 100.365 92.8893 99.9999 93.9301C99.3799 95.7301 99.8799 97.7501 99.3899 99.5901C98.9193 100.917 98.2445 102.162 97.3899 103.28C96.8336 104.112 96.3803 105.009 96.0398 105.95V105.95C95.9415 106.243 95.8712 106.544 95.8299 106.85C96.4499 104.85 98.1399 103.96 99.2299 102.64C99.5528 102.266 99.8038 101.835 99.9699 101.37C100.113 102.257 100.044 103.165 99.7699 104.02C99.7699 104.19 99.6799 104.35 99.6399 104.51C99.3299 105.64 98.9099 106.75 98.6899 107.9C98.5802 108.974 98.3829 110.038 98.0999 111.08C97.5182 112.317 96.7787 113.473 95.8998 114.52C95.4398 115.167 95.101 115.892 94.8998 116.66C94.8785 116.729 94.8618 116.799 94.8499 116.87C95.2807 115.972 95.8474 115.146 96.5299 114.42L97.1798 113.72C97.5398 113.34 97.9099 112.97 98.2799 112.62L98.6599 112.26C98.1996 113.241 97.9509 114.307 97.9298 115.39C97.9298 116.5 98.1399 117.61 98.0899 118.72C97.9109 120.573 97.2182 122.339 96.0899 123.82C96.7023 123.226 97.2335 122.553 97.6699 121.82C98.0578 121.156 98.3126 120.422 98.4199 119.66C98.4199 119.78 98.4199 119.89 98.4199 120C98.4199 122.1 97.4199 123.41 96.2199 125.13C95.5201 125.906 94.9404 126.783 94.4999 127.73C94.9474 127.168 95.4573 126.658 96.0199 126.21C96.6199 125.71 97.2399 125.21 97.7999 124.71C97.9509 124.568 98.0944 124.417 98.2299 124.26C98.7262 123.73 99.0955 123.094 99.3099 122.4C99.2706 123.483 98.9046 124.529 98.2598 125.4C97.5498 126.45 96.6099 127.33 95.7999 128.31C95.1905 129.01 94.7097 129.813 94.3799 130.68C94.3506 130.751 94.3272 130.825 94.3099 130.9C94.8808 130.061 95.6935 129.416 96.6399 129.05C96.8499 128.97 97.0599 128.91 97.2799 128.85C97.6899 128.74 98.0998 128.66 98.5098 128.55C98.8812 128.455 99.2403 128.318 99.5799 128.14C99.1209 128.555 98.5974 128.893 98.0299 129.14C97.3068 129.504 96.6344 129.962 96.0299 130.5C95.6437 130.87 95.3285 131.307 95.0999 131.79L95.2299 131.69C95.4743 131.511 95.7439 131.37 96.0299 131.27C96.6069 131.085 97.205 130.974 97.8099 130.94C98.1688 130.913 98.526 130.866 98.8799 130.8V130.8C98.4505 131.121 98.0872 131.521 97.8099 131.98C97.4935 132.59 97.213 133.218 96.9699 133.86C97.4537 133.573 97.9986 133.406 98.5599 133.37H98.8199C99.6779 133.406 100.516 133.639 101.27 134.05C101.995 134.508 102.757 134.903 103.55 135.23C104.18 135.431 104.85 135.472 105.5 135.35C104.063 135.825 102.53 135.935 101.04 135.67C100.23 135.52 99.3996 135.52 98.5899 135.67C98.2937 135.748 98.0107 135.87 97.7499 136.03C97.4299 136.88 97.1199 137.71 96.8499 138.49C97.0058 138.505 97.1599 138.535 97.3099 138.58C98.089 138.807 98.8069 139.207 99.4099 139.75C99.7672 140.058 100.101 140.393 100.41 140.75C99.7336 140.469 99.0001 140.352 98.2699 140.41C97.4046 140.491 96.5862 140.841 95.9298 141.41C95.4783 141.79 95.1106 142.26 94.8499 142.79C94.5459 143.415 94.3723 144.096 94.3399 144.79C94.0499 143.97 93.7699 143.15 93.4999 142.32C91.7042 136.704 90.6191 130.886 90.2699 125C90.1799 123.51 90.1499 122 90.1599 120.54C90.1699 119.08 90.2199 117.54 90.3199 116.07C90.5282 113.093 90.9122 110.132 91.4699 107.2C92.0261 104.267 92.7642 101.371 93.6798 98.5301C94.1398 97.1101 94.6799 95.7001 95.1999 94.3101C95.4699 93.6201 95.7599 92.9301 96.0699 92.2501C96.3799 91.5701 96.6199 91.0501 96.9199 90.4701C96.9526 90.3981 96.9893 90.328 97.0299 90.2601V90.2601C97.0544 90.2249 97.0675 90.183 97.0675 90.1401C97.0675 90.0972 97.0544 90.0553 97.0299 90.0201C97.0105 89.9869 96.9827 89.9593 96.9494 89.9402C96.9161 89.9211 96.8783 89.911 96.8399 89.911C96.8014 89.911 96.7636 89.9211 96.7303 89.9402C96.697 89.9593 96.6692 89.9869 96.6498 90.0201C96.2798 90.6901 95.9498 91.3601 95.6498 92.0201C95.3498 92.6801 95.0299 93.3901 94.7399 94.0901C94.1499 95.4801 93.6199 96.8901 93.1299 98.3101C92.1414 101.154 91.3299 104.056 90.6999 107C90.0778 109.971 89.6369 112.976 89.3799 116C89.2499 117.5 89.1699 119 89.1299 120.52C89.0899 122.04 89.1299 123.52 89.1299 125.05C89.3766 131.109 90.3845 137.113 92.1299 142.92C93.0064 145.823 94.055 148.672 95.2699 151.45C95.9499 152.99 96.6699 154.45 97.4499 155.99V156.06C96.9829 157.414 96.4147 158.731 95.7499 160C89.3299 172.19 75.3299 176.73 69.5399 169.38C64.1799 200.38 77.7899 188.81 89.5399 218.07C78.4199 264.94 25.6499 227.63 33.8599 191.29C39.4399 163.11 56.9399 139.49 63.5099 112.63C65.6999 96.8101 50.5699 137.63 47.7299 141.74C29.4499 173.74 14.3899 213.86 51.5699 251.62C58.3899 257.44 64.9499 262.13 74.2799 261.12C100.28 258.12 95.5899 210.71 88.8299 190.47C97.1199 185.09 100.83 173.53 103.39 163.52C105.17 160.52 107.31 167.18 107.31 167.18C107.31 167.18 114.23 193 137.93 182.64C139.93 181.76 142.72 178.7 144.32 176.64C145.637 174.505 146.707 172.227 147.51 169.85C154.99 180.29 172.29 198.55 189.51 174.68C191.42 172.03 193.99 166.45 195.27 163.44C196.74 159.99 197.94 156.44 199.62 153.07C201.4 149.52 203.96 146.63 208.51 146.07C208.831 145.245 209.072 144.391 209.23 143.52C209.61 139.31 209.92 135.1 210.23 130.89C210.287 129.945 210.247 128.997 210.11 128.06V128.06ZM123.84 63.4601C121.707 59.7693 119.296 56.2459 116.63 52.9201C115.63 51.6801 114.77 50.4001 113.83 49.1501C112.68 47.6201 111.53 46.0901 110.34 44.6001C107.996 41.685 105.956 38.5387 104.25 35.2101C102.857 32.3034 101.848 29.2274 101.25 26.0601C100.971 24.4204 101.102 22.7372 101.63 21.1601C101.766 20.562 102.088 20.0224 102.55 19.6183C103.012 19.2142 103.589 18.9664 104.2 18.9101C106.009 18.5438 107.887 18.7428 109.58 19.4801C112.38 20.7476 114.725 22.8413 116.3 25.4801C116.639 26.0382 116.855 26.6631 116.93 27.312C117.006 27.9609 116.941 28.6186 116.74 29.2401C115.608 29.017 114.549 28.5152 113.66 27.7801C112.79 27.2401 112.32 26.1701 111.28 25.8801C111.1 26.0401 110.89 26.1301 110.85 26.2701C110.354 28.0264 110.115 29.8452 110.14 31.6701C110.149 32.0156 110.229 32.3556 110.375 32.6688C110.521 32.982 110.73 33.2616 110.99 33.4901C112.774 35.3242 115.123 36.5043 117.66 36.8401C118.66 41.4701 119.5 46.0701 120.66 50.6001C121.82 55.1301 123.16 59.4201 124.47 63.9701C124.19 63.7301 123.94 63.6301 123.84 63.4601V63.4601ZM100.07 138.22C99.2499 138.03 98.5099 137.52 97.6899 137.36L97.9199 137.22H97.9799C98.8406 136.74 99.8458 136.587 100.81 136.789C101.775 136.991 102.634 137.535 103.23 138.32H102.8C101.889 138.392 100.973 138.359 100.07 138.22V138.22Z" fill="#3F51B5"/>
<path fill-rule="evenodd" clip-rule="evenodd" d="M65.7101 35.6001C66.0233 36.5391 66.0683 37.5469 65.8401 38.5101C65.7354 39.2185 65.6853 39.934 65.6901 40.6501C65.6857 41.195 65.8404 41.7294 66.1353 42.1877C66.4301 42.646 66.8523 43.0082 67.3501 43.2301C67.8835 43.4593 68.4696 43.5376 69.0445 43.4565C69.6193 43.3754 70.1609 43.1379 70.6101 42.7701C71.2802 42.283 71.8309 41.65 72.2207 40.919C72.6104 40.188 72.8291 39.378 72.8601 38.5501C72.7371 37.7993 72.8672 37.0289 73.2301 36.3601C73.4501 36.5301 73.7501 36.6501 73.8101 36.8401C73.9299 37.3275 74.02 37.8218 74.0801 38.3201C74.1167 38.5317 74.1736 38.7394 74.2501 38.9401C74.6301 40.0401 75.3401 40.7201 75.9701 40.6201C76.4471 40.4623 76.8633 40.16 77.1607 39.755C77.4582 39.35 77.6222 38.8625 77.6301 38.3601C77.6301 37.2101 77.5 36.0701 77.43 34.9201C77.3851 34.5682 77.3851 34.212 77.43 33.8601C77.43 33.7001 77.7001 33.5801 77.9501 33.3501C78.1516 33.6648 78.3192 34 78.4501 34.3501C79.0524 36.9409 79.2781 39.6049 79.12 42.2601C79.0183 43.561 78.4952 44.7932 77.6301 45.7701C77.2977 46.1478 76.8352 46.3864 76.3348 46.4383C75.8344 46.4902 75.3328 46.3516 74.93 46.0501C74.4296 45.5756 73.9618 45.0678 73.5301 44.5301L72.9201 45.8701C72.4158 46.9036 71.6842 47.8096 70.7801 48.5201C70.2484 48.95 69.6127 49.2322 68.9372 49.3381C68.2617 49.4441 67.5703 49.3702 66.9324 49.1238C66.2946 48.8774 65.733 48.4672 65.3043 47.9346C64.8755 47.402 64.5946 46.7658 64.4901 46.0901C64.3186 44.952 64.2616 43.7996 64.3201 42.6501C64.4101 40.9401 64.6201 39.2201 64.8101 37.5101C64.7941 37.1426 64.8677 36.7768 65.0245 36.4441C65.1812 36.1114 65.4165 35.8217 65.7101 35.6001V35.6001Z" fill="#FF5856"/>
<path fill-rule="evenodd" clip-rule="evenodd" d="M126.46 230.56C126.24 229.91 125.99 229.56 126.03 229.24C126.37 225.98 126.72 222.71 127.16 219.46C127.445 217.32 128.344 215.309 129.75 213.67C131.22 211.92 132.75 210.2 134.3 208.53C137.39 205.25 140.53 202.02 143.65 198.76C145.098 197.281 146.215 195.512 146.93 193.57C147.138 193.101 147.389 192.653 147.68 192.23C148.91 192.66 149.14 192.87 148.93 193.75C148.53 195.46 148.05 197.15 147.57 198.84C147.34 199.64 146.98 200.41 146.79 201.23C145.937 204.162 144.487 206.886 142.53 209.23C140.632 211.624 138.581 213.892 136.39 216.02C134.39 218.02 132.53 220.15 130.67 222.27C128.87 224.17 127.655 226.548 127.17 229.12C127.002 229.631 126.763 230.116 126.46 230.56V230.56Z" fill="#FF5856"/>
<path fill-rule="evenodd" clip-rule="evenodd" d="M174.49 83.1199C174.22 83.3799 173.94 83.6299 173.69 83.8999C172.577 85.0599 171.47 86.2299 170.37 87.4099C169.27 88.5899 168.107 89.8332 166.88 91.1399C166.49 91.5499 166.15 92.0099 165.72 92.3899C164.774 93.1805 163.955 94.1113 163.29 95.1499C163.23 95.2399 163.09 95.2799 162.94 95.3599C163.403 93.8118 164.168 92.3707 165.19 91.1199C165.309 90.9728 165.436 90.8326 165.57 90.6999C167.745 88.4566 169.789 86.0893 171.69 83.6099C171.99 83.2399 172.32 82.8999 172.63 82.5499C175.066 79.7692 177.254 76.7811 179.17 73.6199C179.765 72.5843 180.2 71.4651 180.46 70.2999C180.08 70.1099 179.76 69.9199 179.46 69.7699C178.52 69.3399 177.56 68.9299 176.61 68.4999C176.396 68.4003 176.189 68.2867 175.99 68.1599C175.377 67.8343 174.892 67.3089 174.618 66.6706C174.343 66.0323 174.295 65.3194 174.48 64.6499C174.757 62.9065 175.552 61.2864 176.76 59.9999C177.212 59.5104 177.765 59.1248 178.38 58.8699C178.71 58.7292 179.073 58.6845 179.427 58.7411C179.781 58.7978 180.111 58.9533 180.38 59.1899C180.9 59.6087 181.283 60.1726 181.48 60.8099C182.112 62.501 182.358 64.3116 182.2 66.1099C182.2 66.3499 182.2 66.5799 182.14 66.9099C182.43 67.1599 182.75 67.4299 183.05 67.7199C183.479 68.0935 183.886 68.4908 184.27 68.9099C184.492 69.1589 184.645 69.4616 184.713 69.7879C184.782 70.1142 184.763 70.4528 184.66 70.7699C184.43 71.5699 184.26 72.3799 184.01 73.4299C183.426 72.2017 182.402 71.2379 181.14 70.7299C180.98 71.2799 180.81 71.7299 180.69 72.2699C179.952 75.0231 178.651 77.5937 176.87 79.8199C176.29 80.5599 175.73 81.3299 175.18 82.0999C175.032 82.3383 174.905 82.5892 174.8 82.8499L174.49 83.1199ZM180.65 66.3999C180.628 65.2766 180.325 64.1767 179.77 63.1999C179.638 63.0059 179.48 62.8309 179.3 62.6799C179.033 62.4204 178.673 62.2767 178.3 62.2799C177.872 62.2667 177.453 62.4087 177.12 62.6799C176.7 63.0299 176.12 63.2899 176.12 63.9899C177.519 64.9869 179.042 65.797 180.65 66.3999V66.3999Z" fill="#FF5856"/>
<path fill-rule="evenodd" clip-rule="evenodd" d="M148.71 21.79C149.01 26.21 147.17 36.72 146.15 40.87C145.48 43.55 145.2 47.53 146.93 49.7C147.3 50.1364 147.712 50.535 148.16 50.89C149.16 51.75 151.3 50.7 152.16 49.66C153.06 48.85 154.31 45.66 155.02 42.33C155.91 48.8 155.02 55.64 150.02 56.51C147.34 56.51 144.82 54.13 144.19 51.0201C143.584 47.6126 143.755 44.1123 144.69 40.78C145.61 37.16 146.12 34.6001 147.02 30.9901C147.63 28.2101 148.16 24.47 148.71 21.79Z" fill="#FF5856"/>
<path fill-rule="evenodd" clip-rule="evenodd" d="M123.52 89.5102C123.085 90.3282 122.947 91.2719 123.13 92.1802C123.105 93.4073 122.76 94.6067 122.13 95.6602C122.028 95.904 121.873 96.1224 121.678 96.3C121.482 96.4777 121.249 96.6102 120.997 96.6884C120.744 96.7665 120.477 96.7884 120.215 96.7524C119.953 96.7165 119.703 96.6236 119.48 96.4802C118.739 96.0337 118.096 95.4418 117.59 94.7402C116.13 92.7402 116 90.3702 116.06 88.0002C116.14 84.9302 117.06 82.0002 117.62 79.0002C118.29 75.5902 119.35 72.2502 119.62 68.7602C119.686 68.4488 119.797 68.1489 119.95 67.8702C119.557 67.2354 119.222 66.566 118.95 65.8702L118.77 65.7202C118.505 66.458 118.304 67.2175 118.17 67.9902C117.809 70.5782 117.282 73.1403 116.59 75.6602C115.493 79.7817 114.757 83.991 114.39 88.2402C114.112 91.2792 114.229 94.3416 114.74 97.3502C115.147 99.4189 116.235 101.292 117.83 102.67C119.92 104.51 122.25 103.9 123.19 101.32C123.3 100.99 123.43 100.66 123.51 100.32C124.224 96.9932 124.406 93.5742 124.05 90.1902C124.12 90.0002 123.76 89.7602 123.52 89.5102Z" fill="#FF5856"/>
<path d="M88.4498 142.85C87.3459 142.52 86.2148 142.289 85.0698 142.16C84.1196 142.028 83.2274 141.625 82.4998 141C82.7967 141.11 83.1154 141.148 83.4297 141.11C83.8987 141.041 84.3541 140.899 84.7798 140.69C85.1252 140.528 85.479 140.384 85.8398 140.26C85.6198 140.19 85.3998 140.1 85.1898 140.01C84.7198 139.79 84.2597 139.53 83.7897 139.3C83.2007 139.02 82.584 138.802 81.9498 138.65C82.3298 138.57 82.6998 138.46 83.0798 138.36C83.725 138.154 84.4051 138.079 85.0798 138.14C85.5662 138.21 86.0327 138.38 86.4498 138.64C85.6905 137.805 84.7497 137.155 83.6998 136.74C82.6982 136.377 81.7197 135.953 80.7698 135.47C79.9932 135.03 79.3131 134.438 78.7698 133.73C79.5374 134.437 80.4686 134.942 81.4798 135.2C82.5898 135.49 83.7697 135.52 84.8698 135.87C86.1722 136.337 87.2928 137.205 88.0698 138.35C87.7409 137.516 87.187 136.789 86.4698 136.25C85.5522 135.585 84.6009 134.967 83.6198 134.4C82.6337 133.817 81.8435 132.954 81.3498 131.92C80.8298 130.63 81.0898 129.15 80.7998 127.79C80.5759 126.779 80.0574 125.857 79.3098 125.14C79.8789 125.42 80.3936 125.8 80.8298 126.26C81.4598 126.9 81.9998 127.63 82.6598 128.26C83.1515 128.702 83.7259 129.042 84.3498 129.26C83.2229 128.228 82.3941 126.912 81.9498 125.45C81.3718 123.324 81.2155 121.106 81.4898 118.92C81.6644 117.625 81.7346 116.317 81.6998 115.01C81.6547 114.299 81.5064 113.599 81.2597 112.93C82.1584 114.365 82.8012 115.945 83.1598 117.6C83.3698 118.54 83.4798 119.5 83.7098 120.44C83.8757 121.196 84.1592 121.922 84.5498 122.59C84.2336 121.82 84.0543 121.002 84.0198 120.17C83.9498 118.85 84.0998 117.51 83.9598 116.17C83.8761 115.518 83.7458 114.873 83.5698 114.24C83.3598 113.45 83.0998 112.67 82.8898 111.88C82.5859 110.846 82.4608 109.767 82.5198 108.69C82.58 109.3 82.7213 109.898 82.9398 110.47C83.3098 111.47 83.8398 112.47 84.2798 113.47C84.6125 114.238 84.8866 115.031 85.0998 115.84C84.8198 113.31 83.7198 110.84 83.8798 108.25C84.0467 106.699 84.448 105.181 85.0698 103.75C85.6902 102.318 86.0914 100.801 86.2597 99.2502C86.3745 97.8865 85.9868 96.5279 85.1698 95.4302C85.6095 96.3653 85.7891 97.4016 85.6898 98.4302C85.5153 98.3056 85.3149 98.2222 85.1036 98.1862C84.8923 98.1501 84.6755 98.1624 84.4696 98.2221C84.2638 98.2817 84.074 98.3872 83.9147 98.5306C83.7554 98.674 83.6306 98.8517 83.5498 99.0502L72.2498 121.7C68.4198 130.16 73.0798 136.99 77.9698 140.37C84.3798 144.8 86.3798 146.07 93.1698 150.69C93.2311 150.73 93.3032 150.749 93.3761 150.746C93.4489 150.742 93.5189 150.716 93.5762 150.671C93.6335 150.626 93.6752 150.564 93.6956 150.494C93.716 150.424 93.7139 150.349 93.6898 150.28C93.3598 149.28 93.0298 148.36 92.6198 147.43C91.8829 145.416 90.3857 143.772 88.4498 142.85V142.85Z" fill="#3F51B5"/>
<path d="M103.64 85.0802C102.545 84.5263 101.303 84.3304 100.09 84.5202C98.8853 84.7068 97.7314 85.139 96.7004 85.7901C94.9732 86.8389 93.5361 88.3034 92.5204 90.0502C92.6104 89.6102 92.7304 89.1802 92.8104 88.7402C92.9766 87.742 92.9323 86.7202 92.6804 85.7402C92.5152 86.4122 92.2737 87.0631 91.9604 87.6801C91.3071 88.8738 90.5859 90.029 89.8004 91.1402C88.4174 93.006 87.5142 95.1832 87.1704 97.4801C87.1193 99.2115 87.2432 100.944 87.5404 102.65C87.7009 103.831 87.6705 105.029 87.4504 106.2C87.8483 105.182 88.0354 104.093 88.0004 103C88.0004 101.39 87.6804 99.7901 87.8104 98.1801C88.1405 95.8258 88.9911 93.5745 90.3004 91.5901C91.0504 90.3001 91.8604 89.0302 92.5504 87.7102C92.5388 88.0211 92.4918 88.3298 92.4104 88.6302C92.2404 89.3402 91.9404 90.0101 91.8404 90.7301C91.7655 91.5117 91.7655 92.2986 91.8404 93.0802C92.5718 91.0264 93.7659 89.1685 95.3304 87.6501C96.246 86.7355 97.329 86.0056 98.5204 85.5002C99.7224 85.0016 101.047 84.8796 102.32 85.1501C102.944 85.2928 103.532 85.5616 104.048 85.94C104.564 86.3183 104.997 86.7982 105.32 87.3502C105.749 88.1195 105.901 89.0125 105.75 89.8802C105.757 89.97 105.757 90.0603 105.75 90.1501C106.034 89.4273 106.087 88.6341 105.9 87.8802C105.74 87.2816 105.456 86.7232 105.067 86.241C104.677 85.7587 104.192 85.3633 103.64 85.0802V85.0802Z" fill="#3F51B5"/>
<path d="M105.3 88.2798C105.151 88.1189 104.979 87.9808 104.79 87.8698C104.484 87.6936 104.142 87.5877 103.79 87.5598C103.014 87.5504 102.257 87.7925 101.63 88.2498C100.122 89.4627 99.0314 91.1164 98.51 92.9798C98.0826 94.3472 97.5785 95.6893 97 96.9998C97.5672 96.5993 98.0163 96.0536 98.3 95.4198C98.6323 94.6329 98.8998 93.8202 99.1 92.9898C99.4278 91.7702 99.9769 90.6211 100.72 89.5998C101.27 88.8358 102.036 88.2541 102.92 87.9298C103.318 87.8098 103.738 87.7789 104.149 87.8394C104.56 87.8999 104.953 88.0502 105.3 88.2798V88.2798Z" fill="#3F51B5"/>
<path d="M112.19 100.8C111.459 100.955 110.7 100.907 109.994 100.66C109.289 100.413 108.665 99.9774 108.19 99.4001C108.177 99.3763 108.155 99.3586 108.129 99.3511C108.102 99.3436 108.074 99.3469 108.05 99.3601C108.027 99.3734 108.009 99.3956 108.001 99.4219C107.994 99.4481 107.997 99.4763 108.01 99.5001C108.288 100.19 108.371 100.942 108.251 101.675C108.131 102.408 107.813 103.095 107.33 103.66C107.318 103.676 107.31 103.696 107.309 103.717C107.308 103.737 107.313 103.758 107.324 103.776C107.335 103.793 107.351 103.807 107.37 103.815C107.389 103.823 107.41 103.825 107.43 103.82C108.162 103.665 108.923 103.714 109.629 103.963C110.334 104.212 110.958 104.65 111.43 105.23C111.448 105.246 111.47 105.256 111.494 105.258C111.518 105.26 111.541 105.255 111.562 105.242C111.582 105.23 111.597 105.211 111.606 105.189C111.615 105.167 111.617 105.143 111.61 105.12C111.333 104.431 111.25 103.679 111.37 102.945C111.49 102.212 111.808 101.525 112.29 100.96C112.303 100.944 112.311 100.924 112.312 100.903C112.313 100.883 112.308 100.862 112.297 100.845C112.286 100.827 112.27 100.813 112.251 100.805C112.232 100.797 112.211 100.796 112.19 100.8V100.8Z" fill="#3F51B5"/>
<path d="M66.6397 116.5C67.3707 116.348 68.1293 116.398 68.8341 116.645C69.5388 116.891 70.163 117.325 70.6397 117.9C70.6549 117.918 70.676 117.93 70.6993 117.934C70.7226 117.938 70.7466 117.934 70.767 117.922C70.7874 117.91 70.8029 117.891 70.8107 117.869C70.8185 117.847 70.8181 117.822 70.8097 117.8C70.5325 117.111 70.4493 116.359 70.5692 115.625C70.6891 114.892 71.0074 114.205 71.4897 113.64C71.5015 113.625 71.5085 113.606 71.5099 113.586C71.5112 113.567 71.5068 113.548 71.4973 113.531C71.4877 113.514 71.4734 113.5 71.456 113.491C71.4387 113.482 71.4191 113.478 71.3997 113.48C70.6687 113.633 69.9097 113.584 69.2048 113.337C68.4999 113.09 67.8757 112.656 67.3997 112.08C67.3845 112.062 67.3634 112.05 67.3401 112.046C67.3168 112.042 67.2928 112.046 67.2724 112.058C67.252 112.07 67.2366 112.089 67.2287 112.111C67.2209 112.134 67.2213 112.158 67.2297 112.18C67.5014 112.871 67.5817 113.621 67.462 114.354C67.3423 115.086 67.0271 115.772 66.5497 116.34C66.5379 116.356 66.5309 116.374 66.5295 116.394C66.5282 116.413 66.5326 116.433 66.5421 116.45C66.5517 116.467 66.566 116.481 66.5834 116.49C66.6007 116.498 66.6203 116.502 66.6397 116.5V116.5Z" fill="#3F51B5"/>
<path d="M108 152.46L125.56 129.81C126.04 129.192 126.334 128.449 126.407 127.67C126.479 126.89 126.328 126.106 125.97 125.41L125.49 124.48L109 150.5L107.84 152.33C107.74 152.45 107.91 152.57 108 152.46Z" fill="#3F51B5"/>
<path d="M121.7 122.05C118.7 128.26 110.35 145.89 108.26 150.56C108.069 150.929 107.908 151.314 107.78 151.71L122.07 127.91C122.612 127.011 122.866 125.969 122.8 124.922C122.734 123.875 122.35 122.873 121.7 122.05V122.05Z" fill="#3F51B5"/>
<path d="M128.39 128.06L109.7 150.86L110.75 152.15L128.06 134.15C128.84 133.345 129.302 132.286 129.363 131.167C129.424 130.048 129.078 128.945 128.39 128.06Z" fill="#3F51B5"/>
<path d="M9.27971 284.55V283.13C9.27294 283.085 9.27682 283.039 9.29101 282.996C9.30519 282.953 9.32931 282.914 9.36141 282.882C9.39351 282.85 9.43271 282.826 9.47583 282.812C9.51896 282.797 9.56482 282.793 9.60972 282.8H10.7697C10.8146 282.793 10.8605 282.797 10.9036 282.812C10.9467 282.826 10.9859 282.85 11.018 282.882C11.0501 282.914 11.0742 282.953 11.0884 282.996C11.1026 283.039 11.1065 283.085 11.0997 283.13V294.87C11.0474 295.359 11.1833 295.849 11.4797 296.24C11.8184 296.519 12.2523 296.655 12.6897 296.62H14.3797C14.7247 296.599 15.0693 296.668 15.3797 296.82C15.4973 296.906 15.5898 297.022 15.6478 297.155C15.7058 297.289 15.7272 297.436 15.7097 297.58C15.7097 298.02 15.5997 298.28 15.3997 298.36C15.0735 298.445 14.7366 298.482 14.3997 298.47H12.6097C12.2106 298.468 11.8124 298.432 11.4197 298.36C11.0428 298.289 10.683 298.147 10.3597 297.94C10.0328 297.728 9.77002 297.431 9.59972 297.08C9.38252 296.629 9.27951 296.131 9.29972 295.63C8.87935 296.046 8.37465 296.366 7.81972 296.57C7.06375 296.827 6.26771 296.946 5.46972 296.92C4.74854 296.956 4.0275 296.847 3.34911 296.6C2.67072 296.352 2.0487 295.972 1.51972 295.48C0.990299 294.882 0.587182 294.183 0.334577 293.425C0.0819714 292.667 -0.014916 291.866 0.049718 291.07C0.0300067 290.053 0.178674 289.039 0.489713 288.07C0.750608 287.316 1.18175 286.631 1.74971 286.07C2.29482 285.554 2.95193 285.171 3.66971 284.95C4.45722 284.711 5.27664 284.593 6.09972 284.6L9.27971 284.55ZM5.57972 295.07C6.1084 295.127 6.64306 295.067 7.14591 294.894C7.64876 294.721 8.10751 294.44 8.48972 294.07C9.05063 293.32 9.33022 292.396 9.27971 291.46V286.36H5.74971C5.23518 286.33 4.71979 286.403 4.23382 286.575C3.74784 286.746 3.30107 287.013 2.91971 287.36C2.12933 288.399 1.77104 289.703 1.91971 291C1.81681 292.104 2.15472 293.204 2.85972 294.06C3.22423 294.399 3.65217 294.663 4.11895 294.837C4.58573 295.01 5.08216 295.089 5.57972 295.07ZM2.79972 280.58C2.75482 280.587 2.70896 280.583 2.66584 280.569C2.62271 280.555 2.58352 280.531 2.55141 280.499C2.51931 280.466 2.4952 280.427 2.48101 280.384C2.46682 280.341 2.46295 280.295 2.46972 280.25V278.25C2.46295 278.205 2.46682 278.159 2.48101 278.116C2.4952 278.073 2.51931 278.034 2.55141 278.002C2.58352 277.97 2.62271 277.946 2.66584 277.932C2.70896 277.917 2.75482 277.913 2.79972 277.92H4.51972C4.56461 277.913 4.61047 277.917 4.6536 277.932C4.69673 277.946 4.73592 277.97 4.76803 278.002C4.80013 278.034 4.82424 278.073 4.83843 278.116C4.85262 278.159 4.85649 278.205 4.84972 278.25V280.25C4.85649 280.295 4.85262 280.341 4.83843 280.384C4.82424 280.427 4.80013 280.466 4.76803 280.499C4.73592 280.531 4.69673 280.555 4.6536 280.569C4.61047 280.583 4.56461 280.587 4.51972 280.58H2.79972ZM7.03971 280.58C6.99481 280.587 6.94897 280.583 6.90584 280.569C6.86272 280.555 6.82352 280.531 6.79142 280.499C6.75931 280.466 6.73519 280.427 6.721 280.384C6.70681 280.341 6.70295 280.295 6.70972 280.25V278.25C6.70295 278.205 6.70681 278.159 6.721 278.116C6.73519 278.073 6.75931 278.034 6.79142 278.002C6.82352 277.97 6.86272 277.946 6.90584 277.932C6.94897 277.917 6.99481 277.913 7.03971 277.92H8.75971C8.8046 277.913 8.85046 277.917 8.89359 277.932C8.93672 277.946 8.97591 277.97 9.00802 278.002C9.04012 278.034 9.06425 278.073 9.07843 278.116C9.09262 278.159 9.09648 278.205 9.08971 278.25V280.25C9.09648 280.295 9.09262 280.341 9.07843 280.384C9.06425 280.427 9.04012 280.466 9.00802 280.499C8.97591 280.531 8.93672 280.555 8.89359 280.569C8.85046 280.583 8.8046 280.587 8.75971 280.58H7.03971Z" fill="#828282"/>
<path d="M20.4604 294.14C20.4354 294.501 20.5031 294.862 20.6571 295.189C20.8112 295.517 21.0464 295.799 21.3404 296.01C22.036 296.448 22.8495 296.661 23.6704 296.62H23.8704C24.2134 296.598 24.5565 296.66 24.8704 296.8C24.9863 296.876 25.0787 296.982 25.137 297.108C25.1954 297.233 25.2173 297.373 25.2004 297.51C25.2148 297.65 25.195 297.791 25.1428 297.922C25.0905 298.053 25.0074 298.169 24.9004 298.26C24.5934 298.422 24.2469 298.495 23.9004 298.47C23.0927 298.488 22.2869 298.383 21.5104 298.16C21.1749 298.047 20.8697 297.858 20.6183 297.608C20.367 297.359 20.1762 297.055 20.0604 296.72C19.8188 297.228 19.4545 297.668 19.0004 298C18.4262 298.356 17.7548 298.524 17.0804 298.48H14.4104C14.0964 298.504 13.7817 298.442 13.5004 298.3C13.3969 298.216 13.3167 298.106 13.2677 297.982C13.2186 297.857 13.2024 297.722 13.2204 297.59C13.2012 297.452 13.2147 297.311 13.2598 297.179C13.305 297.047 13.3806 296.927 13.4804 296.83C13.7639 296.673 14.0875 296.603 14.4104 296.63H16.8904C17.2313 296.647 17.572 296.593 17.8904 296.47C18.1235 296.365 18.3115 296.181 18.4204 295.95C18.5418 295.675 18.6129 295.38 18.6304 295.08C18.6527 294.67 18.6527 294.26 18.6304 293.85V285.49C18.6237 285.445 18.6275 285.399 18.6417 285.356C18.6559 285.313 18.68 285.274 18.7121 285.242C18.7442 285.21 18.7834 285.185 18.8266 285.171C18.8697 285.157 18.9156 285.153 18.9604 285.16H20.1204C20.1653 285.153 20.2112 285.157 20.2543 285.171C20.2974 285.185 20.3366 285.21 20.3687 285.242C20.4008 285.274 20.425 285.313 20.4392 285.356C20.4534 285.399 20.4572 285.445 20.4504 285.49L20.4604 294.14ZM16.0604 303.9C15.8404 303.9 15.7304 303.79 15.7304 303.56V301.56C15.7237 301.515 15.7275 301.469 15.7417 301.426C15.7559 301.383 15.78 301.344 15.8121 301.312C15.8442 301.28 15.8834 301.255 15.9266 301.241C15.9697 301.227 16.0155 301.223 16.0604 301.23H17.7804C17.8253 301.223 17.8712 301.227 17.9143 301.241C17.9574 301.255 17.9966 301.28 18.0287 301.312C18.0609 301.344 18.085 301.383 18.0992 301.426C18.1133 301.469 18.1172 301.515 18.1104 301.56V303.56C18.1104 303.79 18.0004 303.9 17.7804 303.9H16.0604ZM20.3004 303.9C20.2542 303.907 20.2071 303.903 20.1628 303.888C20.1185 303.873 20.0782 303.848 20.0452 303.815C20.0122 303.782 19.9873 303.742 19.9726 303.698C19.9579 303.653 19.9537 303.606 19.9604 303.56V301.56C19.9604 301.34 20.0704 301.23 20.3004 301.23H22.0004C22.0457 301.224 22.0918 301.228 22.1353 301.242C22.1787 301.256 22.2184 301.28 22.2512 301.312C22.284 301.344 22.3091 301.383 22.3246 301.426C22.34 301.469 22.3455 301.515 22.3404 301.56V303.56C22.3471 303.606 22.343 303.653 22.3283 303.698C22.3136 303.742 22.2887 303.782 22.2557 303.815C22.2227 303.848 22.1824 303.873 22.1381 303.888C22.0938 303.903 22.0466 303.907 22.0004 303.9H20.3004Z" fill="#828282"/>
<path d="M39.2699 293.74C39.2597 294.222 39.3169 294.703 39.4398 295.17C39.525 295.497 39.6821 295.801 39.8998 296.06C40.0924 296.278 40.3472 296.431 40.6299 296.5C40.9559 296.587 41.2925 296.627 41.6299 296.62H42.3199C42.6647 296.601 43.0087 296.67 43.3199 296.82C43.4359 296.907 43.5272 297.023 43.5851 297.156C43.6429 297.29 43.6652 297.435 43.6498 297.58C43.6498 297.96 43.5398 298.2 43.3298 298.31C43.0126 298.437 42.6709 298.492 42.3298 298.47H41.7699C41.0456 298.479 40.3252 298.364 39.6398 298.13C38.9873 297.89 38.4415 297.425 38.0999 296.82C37.6175 297.483 36.9493 297.987 36.1798 298.27C35.3429 298.569 34.4587 298.715 33.5699 298.7C32.6649 298.713 31.7647 298.567 30.9099 298.27C30.1329 298.007 29.4556 297.511 28.9698 296.85C28.7005 297.463 28.2067 297.949 27.5898 298.21C27.0334 298.385 26.4532 298.473 25.8698 298.47H23.9198C23.5788 298.49 23.2374 298.436 22.9198 298.31C22.6998 298.2 22.5898 297.96 22.5898 297.58C22.5898 297.2 22.6999 296.87 22.9099 296.77C23.2293 296.652 23.5698 296.601 23.9099 296.62H25.7198C25.9692 296.622 26.2167 296.578 26.4498 296.49C26.7066 296.388 26.9335 296.223 27.1098 296.01C27.3318 295.74 27.5014 295.432 27.6098 295.1C27.7543 294.641 27.8218 294.161 27.8098 293.68C27.8098 293.41 27.8098 293.13 27.7598 292.83C27.7098 292.53 27.7598 292.23 27.7598 291.93C27.7598 287.01 29.6998 284.55 33.5798 284.55C34.3927 284.496 35.2073 284.626 35.9635 284.929C36.7198 285.232 37.3985 285.7 37.9498 286.3C39.0521 287.833 39.5763 289.707 39.4298 291.59C39.4298 291.88 39.4298 292.25 39.4298 292.7C39.4071 293.051 39.3535 293.399 39.2699 293.74ZM33.5199 286.4C32.9403 286.353 32.3587 286.459 31.8326 286.706C31.3064 286.954 30.8539 287.334 30.5199 287.81C29.8435 288.987 29.5239 290.335 29.5999 291.69C29.497 293.05 29.8185 294.409 30.5199 295.58C30.8778 296.021 31.3385 296.367 31.8615 296.589C32.3846 296.81 32.954 296.9 33.5199 296.85C34.0852 296.896 34.6533 296.804 35.1756 296.583C35.698 296.362 36.1591 296.018 36.5199 295.58C37.2288 294.412 37.5573 293.053 37.4599 291.69C37.5259 290.339 37.1994 288.999 36.5199 287.83C36.186 287.353 35.7342 286.97 35.2084 286.719C34.6826 286.469 34.1008 286.359 33.5199 286.4V286.4Z" fill="#828282"/>
<path d="M48.3302 294.14C48.307 294.501 48.3756 294.861 48.5295 295.188C48.6833 295.515 48.9175 295.798 49.2102 296.01C49.9057 296.448 50.7193 296.661 51.5402 296.62H51.7402C52.0831 296.599 52.4262 296.66 52.7402 296.8C52.8561 296.876 52.9484 296.983 53.0068 297.108C53.0651 297.234 53.0871 297.373 53.0702 297.51C53.0845 297.65 53.0647 297.792 53.0125 297.922C52.9602 298.053 52.8771 298.169 52.7702 298.26C52.4637 298.424 52.1167 298.497 51.7702 298.47C50.9657 298.489 50.1631 298.384 49.3902 298.16C49.0535 298.047 48.747 297.858 48.494 297.609C48.2411 297.359 48.0482 297.055 47.9302 296.72C47.6907 297.224 47.3299 297.66 46.8802 297.99C46.3054 298.345 45.6345 298.513 44.9602 298.47H42.2802C41.9662 298.493 41.6518 298.431 41.3702 298.29C41.2666 298.206 41.1864 298.096 41.1374 297.972C41.0884 297.847 41.0721 297.713 41.0902 297.58C41.074 297.442 41.0889 297.302 41.1339 297.171C41.1789 297.039 41.2528 296.919 41.3502 296.82C41.6336 296.663 41.9572 296.594 42.2802 296.62H44.7602C45.101 296.638 45.4418 296.583 45.7602 296.46C45.9932 296.356 46.1812 296.171 46.2902 295.94C46.4105 295.664 46.4848 295.37 46.5102 295.07C46.5102 294.71 46.5602 294.31 46.5602 293.84V285.48C46.5534 285.435 46.5573 285.389 46.5715 285.346C46.5856 285.303 46.6098 285.264 46.6419 285.232C46.674 285.2 46.7132 285.176 46.7563 285.162C46.7994 285.147 46.8453 285.143 46.8902 285.15H48.0002C48.0451 285.143 48.0909 285.147 48.1341 285.162C48.1772 285.176 48.2164 285.2 48.2485 285.232C48.2806 285.264 48.3047 285.303 48.3189 285.346C48.3331 285.389 48.3369 285.435 48.3302 285.48V294.14ZM43.9402 303.9C43.7202 303.9 43.6102 303.79 43.6102 303.56V301.56C43.6034 301.515 43.6073 301.469 43.6215 301.426C43.6357 301.383 43.6598 301.344 43.6919 301.312C43.724 301.28 43.7632 301.256 43.8063 301.241C43.8494 301.227 43.8953 301.223 43.9402 301.23H45.6602C45.7051 301.223 45.7509 301.227 45.7941 301.241C45.8372 301.256 45.8764 301.28 45.9085 301.312C45.9406 301.344 45.9647 301.383 45.9789 301.426C45.9931 301.469 45.9969 301.515 45.9902 301.56V303.56C45.9902 303.79 45.8802 303.9 45.6602 303.9H43.9402ZM48.1702 303.9C47.9502 303.9 47.8402 303.79 47.8402 303.56V301.56C47.8334 301.515 47.8373 301.469 47.8515 301.426C47.8656 301.383 47.8898 301.344 47.9219 301.312C47.954 301.28 47.9932 301.256 48.0363 301.241C48.0794 301.227 48.1253 301.223 48.1702 301.23H49.8902C49.9351 301.223 49.9809 301.227 50.024 301.241C50.0672 301.256 50.1064 301.28 50.1385 301.312C50.1706 301.344 50.1947 301.383 50.2089 301.426C50.2231 301.469 50.2269 301.515 50.2202 301.56V303.56C50.2202 303.79 50.1102 303.9 49.8902 303.9H48.1702Z" fill="#828282"/>
<path d="M57.6898 294.14C57.6648 294.501 57.7325 294.862 57.8865 295.19C58.0405 295.517 58.2758 295.799 58.5698 296.01C59.2654 296.448 60.0789 296.661 60.8998 296.62H61.0998C61.4428 296.599 61.7859 296.66 62.0998 296.8C62.2157 296.876 62.3081 296.982 62.3664 297.108C62.4247 297.233 62.4467 297.373 62.4298 297.51C62.4442 297.65 62.4244 297.791 62.3721 297.922C62.3199 298.053 62.2367 298.169 62.1298 298.26C61.8228 298.423 61.4762 298.495 61.1298 298.47C60.3253 298.489 59.5227 298.384 58.7498 298.16C58.4131 298.047 58.1066 297.858 57.8537 297.609C57.6007 297.359 57.4079 297.055 57.2898 296.72C57.0397 297.231 56.6648 297.672 56.1998 298C55.6286 298.355 54.9609 298.523 54.2898 298.48H51.7398C51.397 298.499 51.0545 298.437 50.7398 298.3C50.6203 298.227 50.5246 298.122 50.4642 297.996C50.4038 297.87 50.3814 297.729 50.3998 297.59C50.3824 297.445 50.4038 297.299 50.4617 297.165C50.5197 297.032 50.6123 296.916 50.7298 296.83C51.0403 296.678 51.3848 296.609 51.7298 296.63H54.0798C54.4207 296.648 54.7614 296.593 55.0798 296.47C55.3129 296.366 55.5009 296.181 55.6098 295.95C55.7312 295.675 55.8023 295.38 55.8198 295.08C55.8588 294.671 55.8754 294.261 55.8698 293.85V276.32C55.863 276.275 55.8669 276.229 55.8811 276.186C55.8953 276.143 55.9194 276.104 55.9515 276.072C55.9836 276.04 56.0228 276.016 56.0659 276.001C56.109 275.987 56.1549 275.983 56.1998 275.99H57.3598C57.4047 275.983 57.4506 275.987 57.4937 276.001C57.5368 276.016 57.576 276.04 57.6081 276.072C57.6402 276.104 57.6643 276.143 57.6785 276.186C57.6927 276.229 57.6966 276.275 57.6898 276.32V294.14Z" fill="#828282"/>
<path d="M69.7898 284.55C72.0432 284.55 73.6865 284.997 74.7198 285.89C75.248 286.37 75.6615 286.962 75.9298 287.624C76.1981 288.285 76.3143 288.998 76.2698 289.71C76.2733 290.437 76.1445 291.159 75.8898 291.84C75.6383 292.526 75.3024 293.177 74.8898 293.78C74.5042 294.356 74.062 294.892 73.5698 295.38C73.1398 295.815 72.6598 296.198 72.1398 296.52C72.2907 296.574 72.4497 296.601 72.6098 296.6C72.7731 296.609 72.9366 296.609 73.0998 296.6H78.4298C78.8235 296.552 79.2214 296.648 79.5498 296.87C79.6389 296.955 79.709 297.057 79.7556 297.171C79.8021 297.285 79.824 297.407 79.8198 297.53C79.8379 297.671 79.8176 297.814 79.7613 297.944C79.705 298.074 79.6147 298.187 79.4998 298.27C79.1625 298.414 78.7957 298.476 78.4298 298.45H74.0598C73.3061 298.453 72.5535 298.393 71.8098 298.27C71.0986 298.143 70.4191 297.878 69.8098 297.49C69.1081 297.933 68.3147 298.21 67.4898 298.3C66.7567 298.393 66.0188 298.443 65.2798 298.45H61.0398C60.6989 298.468 60.3581 298.413 60.0398 298.29C59.8298 298.18 59.7298 297.92 59.7298 297.53C59.7138 297.397 59.729 297.261 59.7741 297.134C59.8192 297.008 59.893 296.893 59.9898 296.8C60.3271 296.632 60.7049 296.563 61.0798 296.6H65.7498C66.3022 296.606 66.8542 296.566 67.3998 296.48C67.888 296.401 68.3648 296.264 68.8198 296.07C68.668 295.193 68.3954 294.342 68.0098 293.54C67.6744 292.844 67.2582 292.189 66.7698 291.59C66.3362 291.053 65.8431 290.566 65.2998 290.14C64.7798 289.727 64.2898 289.367 63.8298 289.06C63.5398 288.89 63.3998 288.74 63.3998 288.63V286.85C63.3998 286.65 63.5598 286.42 63.8798 286.15C64.2832 285.838 64.7273 285.582 65.1998 285.39C65.846 285.125 66.5156 284.921 67.1998 284.78C68.0527 284.613 68.9208 284.536 69.7898 284.55V284.55ZM70.5198 295.5C70.9951 295.207 71.4435 294.872 71.8598 294.5C72.3196 294.101 72.7293 293.648 73.0798 293.15C73.4467 292.646 73.7428 292.094 73.9598 291.51C74.1806 290.925 74.2924 290.305 74.2898 289.68C74.3073 289.154 74.1829 288.632 73.9298 288.17C73.6766 287.765 73.3346 287.423 72.9298 287.17C72.4934 286.899 72.0128 286.706 71.5098 286.6C70.9394 286.468 70.3553 286.404 69.7698 286.41C69.2401 286.41 68.7113 286.457 68.1898 286.55C67.7212 286.62 67.2595 286.73 66.8098 286.88C66.4534 286.992 66.1029 287.122 65.7598 287.27C65.4598 287.41 65.2398 287.52 65.1098 287.6C66.44 288.494 67.6126 289.602 68.5798 290.88C69.5844 292.244 70.2494 293.828 70.5198 295.5V295.5Z" fill="#828282"/>
<path d="M84.5395 294.14C84.5145 294.501 84.5822 294.862 84.7362 295.189C84.8903 295.517 85.1255 295.799 85.4195 296.01C86.1151 296.448 86.9287 296.661 87.7495 296.62H87.9495C88.2925 296.598 88.6356 296.66 88.9495 296.8C89.0654 296.875 89.1578 296.982 89.2161 297.108C89.2745 297.233 89.2964 297.372 89.2795 297.51C89.2939 297.65 89.2741 297.791 89.2219 297.922C89.1696 298.052 89.0865 298.168 88.9795 298.26C88.6725 298.422 88.326 298.495 87.9795 298.47C87.175 298.488 86.3725 298.384 85.5995 298.16C85.2621 298.048 84.9549 297.86 84.7018 297.61C84.4486 297.36 84.2563 297.056 84.1395 296.72C83.8965 297.224 83.5323 297.661 83.0795 297.99C82.5053 298.346 81.8339 298.514 81.1595 298.47H78.4895C78.1755 298.494 77.8608 298.432 77.5795 298.29C77.476 298.205 77.3958 298.096 77.3468 297.971C77.2977 297.847 77.2815 297.712 77.2995 297.58C77.2803 297.442 77.2938 297.301 77.3389 297.169C77.3841 297.037 77.4597 296.917 77.5595 296.82C77.843 296.663 78.1666 296.593 78.4895 296.62H80.9695C81.3103 296.636 81.6508 296.582 81.9695 296.46C82.2026 296.355 82.3906 296.171 82.4995 295.94C82.6209 295.665 82.692 295.37 82.7095 295.07C82.7095 294.71 82.7595 294.31 82.7595 293.84V285.48C82.7528 285.435 82.7566 285.389 82.7708 285.346C82.785 285.303 82.8091 285.264 82.8412 285.232C82.8733 285.199 82.9125 285.175 82.9557 285.161C82.9988 285.147 83.0446 285.143 83.0895 285.15H84.2495C84.2944 285.143 84.3403 285.147 84.3834 285.161C84.4266 285.175 84.4657 285.199 84.4978 285.232C84.53 285.264 84.5541 285.303 84.5683 285.346C84.5824 285.389 84.5863 285.435 84.5795 285.48L84.5395 294.14ZM80.5395 281.91C80.4946 281.917 80.4488 281.913 80.4057 281.899C80.3625 281.884 80.3233 281.86 80.2912 281.828C80.2591 281.796 80.235 281.757 80.2208 281.714C80.2066 281.671 80.2028 281.625 80.2095 281.58V279.58C80.2028 279.535 80.2066 279.489 80.2208 279.446C80.235 279.403 80.2591 279.364 80.2912 279.332C80.3233 279.299 80.3625 279.275 80.4057 279.261C80.4488 279.247 80.4946 279.243 80.5395 279.25H82.2595C82.3044 279.243 82.3503 279.247 82.3934 279.261C82.4365 279.275 82.4757 279.299 82.5078 279.332C82.5399 279.364 82.5641 279.403 82.5783 279.446C82.5925 279.489 82.5963 279.535 82.5895 279.58V281.58C82.5963 281.625 82.5925 281.671 82.5783 281.714C82.5641 281.757 82.5399 281.796 82.5078 281.828C82.4757 281.86 82.4365 281.884 82.3934 281.899C82.3503 281.913 82.3044 281.917 82.2595 281.91H80.5395ZM84.7695 281.91C84.7247 281.917 84.6788 281.913 84.6357 281.899C84.5925 281.884 84.5533 281.86 84.5212 281.828C84.4891 281.796 84.465 281.757 84.4508 281.714C84.4366 281.671 84.4328 281.625 84.4395 281.58V279.58C84.4328 279.535 84.4366 279.489 84.4508 279.446C84.465 279.403 84.4891 279.364 84.5212 279.332C84.5533 279.299 84.5925 279.275 84.6357 279.261C84.6788 279.247 84.7247 279.243 84.7695 279.25H86.4895C86.5344 279.243 86.5803 279.247 86.6234 279.261C86.6665 279.275 86.7057 279.299 86.7378 279.332C86.7699 279.364 86.7941 279.403 86.8083 279.446C86.8224 279.489 86.8263 279.535 86.8195 279.58V281.58C86.8263 281.625 86.8224 281.671 86.8083 281.714C86.7941 281.757 86.7699 281.796 86.7378 281.828C86.7057 281.86 86.6665 281.884 86.6234 281.899C86.5803 281.913 86.5344 281.917 86.4895 281.91H84.7695Z" fill="#828282"/>
<path d="M87.9404 298.47C87.5993 298.491 87.2577 298.437 86.9404 298.31C86.7204 298.2 86.6104 297.96 86.6104 297.58C86.6104 297.2 86.7203 296.9 86.9303 296.79C87.2464 296.658 87.5884 296.6 87.9303 296.62H90.3504C90.8089 296.651 91.2623 296.508 91.6203 296.22C91.7879 296.041 91.9148 295.827 91.9924 295.594C92.0701 295.361 92.0967 295.114 92.0704 294.87V276.32C92.0636 276.275 92.0674 276.229 92.0816 276.186C92.0958 276.143 92.1199 276.104 92.1521 276.072C92.1842 276.04 92.2234 276.016 92.2665 276.001C92.3096 275.987 92.3555 275.983 92.4003 275.99H93.5603C93.6052 275.983 93.6511 275.987 93.6942 276.001C93.7374 276.016 93.7766 276.04 93.8087 276.072C93.8408 276.104 93.8649 276.143 93.8791 276.186C93.8932 276.229 93.8971 276.275 93.8904 276.32V294.32C93.8964 294.941 93.8394 295.561 93.7204 296.17C93.6312 296.645 93.4288 297.091 93.1304 297.47C92.8196 297.833 92.4094 298.097 91.9503 298.23C91.3246 298.417 90.6729 298.501 90.0204 298.48L87.9404 298.47Z" fill="#828282"/>
<path d="M100.67 298.14C100.676 298.185 100.673 298.231 100.658 298.274C100.644 298.317 100.62 298.356 100.588 298.388C100.556 298.42 100.517 298.445 100.474 298.459C100.43 298.473 100.385 298.477 100.34 298.47H99.1897C99.1448 298.477 99.0989 298.473 99.0558 298.459C99.0127 298.445 98.9735 298.42 98.9414 298.388C98.9093 298.356 98.8852 298.317 98.871 298.274C98.8568 298.231 98.8529 298.185 98.8597 298.14V276.32C98.8529 276.275 98.8568 276.229 98.871 276.186C98.8852 276.143 98.9093 276.104 98.9414 276.072C98.9735 276.04 99.0127 276.016 99.0558 276.001C99.0989 275.987 99.1448 275.983 99.1897 275.99H100.34C100.385 275.983 100.43 275.987 100.474 276.001C100.517 276.016 100.556 276.04 100.588 276.072C100.62 276.104 100.644 276.143 100.658 276.186C100.673 276.229 100.676 276.275 100.67 276.32V298.14Z" fill="#828282"/>
<path d="M125.94 288.39C125.933 288.345 125.937 288.299 125.951 288.256C125.965 288.213 125.989 288.174 126.021 288.142C126.053 288.11 126.093 288.086 126.136 288.072C126.179 288.057 126.225 288.053 126.27 288.06H127.42C127.65 288.06 127.76 288.17 127.76 288.39V294.14C127.731 294.491 127.787 294.843 127.92 295.168C128.054 295.492 128.263 295.781 128.53 296.01C129.163 296.453 129.928 296.668 130.7 296.62H130.86C131.223 296.587 131.588 296.649 131.92 296.8C132.022 296.894 132.101 297.011 132.148 297.142C132.195 297.272 132.209 297.413 132.19 297.55C132.208 297.691 132.187 297.834 132.131 297.964C132.075 298.094 131.984 298.207 131.87 298.29C131.556 298.431 131.213 298.493 130.87 298.47C130.271 298.482 129.675 298.405 129.1 298.24C128.592 298.089 128.133 297.806 127.77 297.42V297.84C127.78 298.792 127.628 299.739 127.32 300.64C127.035 301.466 126.571 302.217 125.96 302.84C125.3 303.49 124.504 303.985 123.63 304.29C121.506 304.97 119.223 304.97 117.1 304.29C116.225 303.993 115.423 303.513 114.75 302.88C114.119 302.259 113.632 301.508 113.32 300.68C112.98 299.772 112.81 298.81 112.82 297.84C112.799 296.542 113.03 295.251 113.5 294.04C113.874 293.035 114.368 292.078 114.97 291.19C115.06 291.06 115.21 291.06 115.43 291.19L116.43 291.85C116.468 291.868 116.502 291.895 116.529 291.928C116.556 291.961 116.575 291.999 116.585 292.041C116.594 292.082 116.594 292.125 116.585 292.167C116.575 292.208 116.556 292.247 116.53 292.28C116.045 293.055 115.624 293.868 115.27 294.71C114.873 295.636 114.669 296.633 114.67 297.64C114.636 298.528 114.832 299.41 115.24 300.2C115.581 300.835 116.068 301.38 116.66 301.79C117.229 302.171 117.863 302.445 118.53 302.6C119.162 302.748 119.81 302.825 120.46 302.83C121.178 302.832 121.893 302.745 122.59 302.57C123.224 302.409 123.816 302.116 124.33 301.71C124.827 301.291 125.224 300.764 125.49 300.17C125.792 299.442 125.938 298.658 125.92 297.87L125.94 288.39ZM120.94 288.06C120.895 288.067 120.849 288.063 120.806 288.049C120.763 288.035 120.723 288.011 120.691 287.979C120.659 287.946 120.635 287.907 120.621 287.864C120.607 287.821 120.603 287.775 120.61 287.73V285.73C120.603 285.685 120.607 285.639 120.621 285.596C120.635 285.553 120.659 285.514 120.691 285.482C120.723 285.45 120.763 285.426 120.806 285.412C120.849 285.397 120.895 285.393 120.94 285.4H122.26C122.304 285.393 122.35 285.397 122.393 285.412C122.437 285.426 122.476 285.45 122.508 285.482C122.54 285.514 122.564 285.553 122.578 285.596C122.592 285.639 122.596 285.685 122.59 285.73V287.73C122.596 287.775 122.592 287.821 122.578 287.864C122.564 287.907 122.54 287.946 122.508 287.979C122.476 288.011 122.437 288.035 122.393 288.049C122.35 288.063 122.304 288.067 122.26 288.06H120.94Z" fill="#828282"/>
<path d="M134.4 273.57C134.355 273.577 134.309 273.573 134.266 273.559C134.223 273.545 134.183 273.521 134.151 273.488C134.119 273.456 134.095 273.417 134.081 273.374C134.067 273.331 134.063 273.285 134.07 273.24V272.88C134.063 272.835 134.067 272.789 134.081 272.746C134.095 272.703 134.119 272.664 134.151 272.632C134.183 272.6 134.223 272.576 134.266 272.561C134.309 272.547 134.355 272.543 134.4 272.55H142.8C142.845 272.543 142.89 272.547 142.934 272.561C142.977 272.576 143.016 272.6 143.048 272.632C143.08 272.664 143.104 272.703 143.118 272.746C143.133 272.789 143.136 272.835 143.13 272.88V273.24C143.136 273.285 143.133 273.331 143.118 273.374C143.104 273.417 143.08 273.456 143.048 273.488C143.016 273.521 142.977 273.545 142.934 273.559C142.89 273.573 142.845 273.577 142.8 273.57H134.4ZM134.4 266.13C134.393 266.085 134.397 266.039 134.411 265.996C134.425 265.953 134.449 265.914 134.481 265.882C134.513 265.85 134.553 265.826 134.596 265.811C134.639 265.797 134.685 265.793 134.73 265.8H135.26C135.305 265.793 135.35 265.797 135.394 265.811C135.437 265.826 135.476 265.85 135.508 265.882C135.54 265.914 135.564 265.953 135.578 265.996C135.593 266.039 135.596 266.085 135.59 266.13V268.58C135.576 268.76 135.598 268.941 135.655 269.113C135.711 269.285 135.801 269.443 135.92 269.58C136.031 269.694 136.165 269.783 136.314 269.841C136.462 269.9 136.62 269.927 136.78 269.92C136.936 269.928 137.093 269.905 137.241 269.852C137.389 269.799 137.524 269.716 137.64 269.61C137.754 269.495 137.842 269.357 137.899 269.205C137.955 269.054 137.98 268.892 137.97 268.73V266.15C137.963 266.105 137.967 266.059 137.981 266.016C137.995 265.973 138.019 265.934 138.051 265.902C138.083 265.87 138.123 265.846 138.166 265.831C138.209 265.817 138.255 265.813 138.3 265.82H138.83C138.875 265.813 138.92 265.817 138.964 265.831C139.007 265.846 139.046 265.87 139.078 265.902C139.11 265.934 139.134 265.973 139.148 266.016C139.163 266.059 139.166 266.105 139.16 266.15V268.73C139.149 268.893 139.174 269.056 139.232 269.208C139.291 269.36 139.382 269.497 139.5 269.61C139.615 269.716 139.751 269.799 139.898 269.852C140.046 269.905 140.203 269.928 140.36 269.92C140.515 269.924 140.67 269.896 140.815 269.837C140.959 269.779 141.09 269.691 141.2 269.58C141.322 269.445 141.415 269.287 141.473 269.115C141.532 268.943 141.554 268.761 141.54 268.58V266.13C141.535 266.085 141.54 266.039 141.556 265.996C141.571 265.953 141.596 265.914 141.629 265.882C141.662 265.85 141.701 265.826 141.745 265.812C141.788 265.798 141.834 265.794 141.88 265.8H142.41C142.454 265.795 142.499 265.801 142.541 265.816C142.583 265.831 142.622 265.855 142.653 265.886C142.685 265.918 142.709 265.956 142.724 265.998C142.739 266.041 142.744 266.086 142.74 266.13V268.48C142.755 268.818 142.703 269.156 142.586 269.474C142.47 269.791 142.291 270.083 142.06 270.33C141.841 270.559 141.577 270.74 141.284 270.861C140.991 270.981 140.676 271.039 140.36 271.03C140.03 271.049 139.701 270.993 139.396 270.867C139.091 270.74 138.819 270.547 138.6 270.3C138.129 270.759 137.497 271.017 136.84 271.017C136.182 271.017 135.55 270.759 135.08 270.3C134.849 270.053 134.67 269.761 134.553 269.444C134.436 269.126 134.384 268.788 134.4 268.45V266.13Z" fill="#828282"/>
<path d="M139 284.55C139.921 284.536 140.836 284.692 141.7 285.01C142.452 285.29 143.135 285.73 143.7 286.3C144.227 286.859 144.635 287.519 144.9 288.24C145.185 289.008 145.327 289.821 145.32 290.64C145.321 291.266 145.23 291.89 145.05 292.49C144.879 293.079 144.634 293.643 144.32 294.17C144.023 294.693 143.656 295.174 143.23 295.6C142.834 295.988 142.391 296.324 141.91 296.6H147.6C147.94 296.581 148.28 296.632 148.6 296.75C148.82 296.85 148.93 297.12 148.93 297.56C148.945 297.692 148.924 297.826 148.87 297.947C148.815 298.069 148.729 298.173 148.62 298.25C148.311 298.407 147.965 298.476 147.62 298.45H143.35C142.56 298.45 141.81 298.45 141.1 298.35C140.388 298.283 139.702 298.046 139.1 297.66C138.382 298.056 137.587 298.291 136.77 298.35C135.94 298.42 135.21 298.45 134.57 298.45H130.96C130.08 298.45 129.64 298.117 129.64 297.45C129.624 297.315 129.645 297.178 129.699 297.053C129.754 296.928 129.84 296.82 129.95 296.74C130.264 296.6 130.607 296.539 130.95 296.56H136.14C135.191 295.882 134.38 295.03 133.75 294.05C133.091 293.05 132.744 291.877 132.75 290.68C132.75 289.877 132.896 289.081 133.18 288.33C133.46 287.592 133.878 286.913 134.41 286.33C134.958 285.748 135.622 285.288 136.36 284.98C137.202 284.659 138.1 284.513 139 284.55ZM139 286.47C138.42 286.464 137.843 286.566 137.3 286.77C136.794 286.957 136.334 287.251 135.95 287.63C135.538 288.012 135.214 288.48 135 289C134.773 289.569 134.661 290.177 134.67 290.79C134.666 291.413 134.781 292.031 135.01 292.61C135.238 293.173 135.556 293.697 135.95 294.16C136.352 294.625 136.816 295.032 137.33 295.37C137.842 295.707 138.388 295.988 138.96 296.21C139.535 295.99 140.085 295.709 140.6 295.37C141.109 295.034 141.567 294.627 141.96 294.16C142.344 293.694 142.655 293.171 142.88 292.61C143.112 292.031 143.231 291.413 143.23 290.79C143.266 290.204 143.177 289.618 142.968 289.069C142.76 288.521 142.436 288.023 142.02 287.61C141.2 286.851 140.117 286.442 139 286.47ZM136 281.91C135.955 281.917 135.909 281.913 135.866 281.899C135.823 281.884 135.784 281.86 135.752 281.828C135.719 281.796 135.695 281.757 135.681 281.714C135.667 281.671 135.663 281.625 135.67 281.58V279.58C135.663 279.535 135.667 279.489 135.681 279.446C135.695 279.403 135.719 279.364 135.752 279.332C135.784 279.299 135.823 279.275 135.866 279.261C135.909 279.247 135.955 279.243 136 279.25H137.72C137.765 279.243 137.811 279.248 137.855 279.262C137.898 279.276 137.938 279.3 137.971 279.332C138.003 279.363 138.029 279.402 138.044 279.445C138.059 279.488 138.065 279.534 138.06 279.58V281.58C138.065 281.625 138.059 281.671 138.044 281.714C138.029 281.757 138.003 281.796 137.971 281.828C137.938 281.86 137.898 281.884 137.855 281.898C137.811 281.912 137.765 281.916 137.72 281.91H136ZM140.24 281.91C140.195 281.917 140.149 281.913 140.106 281.899C140.063 281.884 140.024 281.86 139.992 281.828C139.959 281.796 139.935 281.757 139.921 281.714C139.907 281.671 139.903 281.625 139.91 281.58V279.58C139.903 279.535 139.907 279.489 139.921 279.446C139.935 279.403 139.959 279.364 139.992 279.332C140.024 279.299 140.063 279.275 140.106 279.261C140.149 279.247 140.195 279.243 140.24 279.25H141.96C142.005 279.243 142.051 279.247 142.094 279.261C142.137 279.275 142.176 279.299 142.208 279.332C142.24 279.364 142.264 279.403 142.279 279.446C142.293 279.489 142.297 279.535 142.29 279.58V281.58C142.297 281.625 142.293 281.671 142.279 281.714C142.264 281.757 142.24 281.796 142.208 281.828C142.176 281.86 142.137 281.884 142.094 281.899C142.051 281.913 142.005 281.917 141.96 281.91H140.24Z" fill="#828282"/>
<path d="M153.48 294.14C153.455 294.501 153.522 294.862 153.676 295.189C153.83 295.517 154.066 295.799 154.36 296.01C155.055 296.448 155.869 296.661 156.69 296.62H156.89C157.233 296.598 157.576 296.66 157.89 296.8C158.006 296.875 158.098 296.982 158.156 297.108C158.215 297.233 158.236 297.372 158.22 297.51C158.234 297.65 158.214 297.791 158.162 297.922C158.11 298.052 158.027 298.168 157.92 298.26C157.613 298.422 157.266 298.495 156.92 298.47C156.112 298.488 155.306 298.383 154.53 298.16C154.194 298.046 153.889 297.858 153.638 297.608C153.386 297.358 153.195 297.055 153.08 296.72C152.832 297.23 152.461 297.67 152 298C151.425 298.356 150.754 298.524 150.08 298.48H147.54C147.197 298.5 146.854 298.438 146.54 298.3C146.42 298.227 146.324 298.121 146.264 297.995C146.204 297.869 146.181 297.728 146.2 297.59C146.182 297.445 146.204 297.299 146.262 297.165C146.32 297.032 146.412 296.916 146.53 296.83C146.84 296.678 147.185 296.609 147.53 296.63H149.88C150.22 296.645 150.561 296.591 150.88 296.47C151.113 296.365 151.301 296.181 151.41 295.95C151.531 295.675 151.602 295.38 151.62 295.08C151.62 294.72 151.67 294.32 151.67 293.85V276.32C151.665 276.276 151.67 276.231 151.685 276.189C151.7 276.147 151.724 276.11 151.756 276.079C151.788 276.048 151.826 276.024 151.869 276.011C151.911 275.997 151.956 275.993 152 276H153.16C153.204 275.993 153.25 275.997 153.293 276.011C153.337 276.025 153.376 276.049 153.408 276.082C153.44 276.114 153.464 276.153 153.478 276.196C153.493 276.239 153.496 276.285 153.49 276.33L153.48 294.14Z" fill="#828282"/>
<path d="M160 272.85C160.421 272.86 160.842 272.81 161.25 272.7C161.538 272.618 161.812 272.49 162.06 272.32C162.249 272.185 162.412 272.015 162.54 271.82C162.636 271.677 162.713 271.523 162.77 271.36H161.62C160.98 271.4 160.35 271.193 159.86 270.78C159.649 270.572 159.486 270.322 159.379 270.046C159.272 269.771 159.225 269.475 159.24 269.18C159.233 268.859 159.29 268.539 159.409 268.24C159.527 267.942 159.704 267.669 159.93 267.44C160.152 267.209 160.419 267.027 160.715 266.905C161.011 266.783 161.329 266.723 161.65 266.73C161.97 266.723 162.288 266.78 162.585 266.899C162.882 267.017 163.152 267.195 163.38 267.42C163.646 267.735 163.847 268.099 163.97 268.493C164.094 268.886 164.138 269.3 164.1 269.71C164.117 270.391 164.008 271.069 163.78 271.71C163.623 272.195 163.356 272.636 163 273C162.632 273.333 162.189 273.573 161.71 273.7C161.177 273.837 160.629 273.904 160.08 273.9H159.15C159.104 273.905 159.058 273.9 159.015 273.884C158.972 273.869 158.933 273.844 158.901 273.811C158.87 273.778 158.846 273.738 158.831 273.695C158.817 273.651 158.813 273.605 158.82 273.56V273.17C158.813 273.125 158.817 273.079 158.831 273.036C158.845 272.993 158.869 272.954 158.901 272.922C158.933 272.89 158.973 272.866 159.016 272.851C159.059 272.837 159.105 272.833 159.15 272.84L160 272.85ZM163 270.37C163.01 270.26 163.01 270.15 163 270.04V269.71C163.04 269.201 162.906 268.693 162.62 268.27C162.5 268.12 162.348 267.999 162.174 267.916C162.001 267.832 161.812 267.789 161.62 267.789C161.428 267.789 161.238 267.832 161.065 267.916C160.892 267.999 160.74 268.12 160.62 268.27C160.405 268.534 160.282 268.86 160.27 269.2C160.261 269.393 160.308 269.585 160.405 269.752C160.503 269.918 160.647 270.053 160.82 270.14C161.113 270.286 161.433 270.371 161.76 270.39L163 270.37Z" fill="#828282"/>
<path d="M156.85 298.47C156.508 298.491 156.167 298.436 155.85 298.31C155.63 298.2 155.52 297.96 155.52 297.58C155.52 297.2 155.62 296.9 155.83 296.79C156.146 296.659 156.488 296.601 156.83 296.62H159.25C159.708 296.651 160.161 296.508 160.52 296.22C160.685 296.039 160.81 295.826 160.886 295.593C160.962 295.36 160.987 295.113 160.96 294.87V285.48C160.955 285.434 160.96 285.388 160.975 285.345C160.991 285.302 161.016 285.263 161.049 285.232C161.082 285.2 161.121 285.176 161.165 285.162C161.208 285.148 161.254 285.143 161.3 285.15H162.45C162.494 285.143 162.54 285.147 162.583 285.161C162.627 285.175 162.666 285.199 162.698 285.232C162.73 285.264 162.754 285.303 162.768 285.346C162.782 285.389 162.786 285.435 162.78 285.48V294.31C162.788 294.93 162.735 295.55 162.62 296.16C162.533 296.637 162.327 297.085 162.02 297.46C161.715 297.825 161.307 298.09 160.85 298.22C160.224 298.406 159.572 298.49 158.92 298.47H156.85ZM161.22 281.91C161.175 281.917 161.129 281.913 161.086 281.899C161.043 281.884 161.003 281.86 160.971 281.828C160.939 281.796 160.915 281.757 160.901 281.714C160.887 281.671 160.883 281.625 160.89 281.58V279.58C160.883 279.535 160.887 279.489 160.901 279.446C160.915 279.403 160.939 279.364 160.971 279.332C161.003 279.299 161.043 279.275 161.086 279.261C161.129 279.247 161.175 279.243 161.22 279.25H162.54C162.584 279.243 162.63 279.247 162.673 279.261C162.717 279.275 162.756 279.299 162.788 279.332C162.82 279.364 162.844 279.403 162.858 279.446C162.872 279.489 162.876 279.535 162.87 279.58V281.58C162.876 281.625 162.872 281.671 162.858 281.714C162.844 281.757 162.82 281.796 162.788 281.828C162.756 281.86 162.717 281.884 162.673 281.899C162.63 281.913 162.584 281.917 162.54 281.91H161.22Z" fill="#828282"/>
<path d="M184 284.55V283.13C183.993 283.085 183.997 283.039 184.011 282.996C184.025 282.953 184.049 282.914 184.081 282.882C184.113 282.85 184.153 282.826 184.196 282.812C184.239 282.797 184.285 282.793 184.33 282.8H185.48C185.525 282.793 185.57 282.797 185.614 282.812C185.657 282.826 185.696 282.85 185.728 282.882C185.76 282.914 185.784 282.953 185.798 282.996C185.813 283.039 185.816 283.085 185.81 283.13V294.87C185.757 295.359 185.893 295.849 186.19 296.24C186.528 296.519 186.962 296.655 187.4 296.62H189.09C189.435 296.599 189.779 296.668 190.09 296.82C190.207 296.906 190.3 297.022 190.358 297.155C190.416 297.289 190.437 297.436 190.42 297.58C190.42 298.02 190.32 298.28 190.11 298.36C189.783 298.445 189.447 298.482 189.11 298.47H187.32C186.921 298.468 186.522 298.431 186.13 298.36C185.753 298.287 185.394 298.145 185.07 297.94C184.743 297.728 184.48 297.431 184.31 297.08C184.101 296.626 184.001 296.13 184.02 295.63C183.594 296.044 183.086 296.364 182.53 296.57C181.774 296.827 180.978 296.946 180.18 296.92C179.458 296.956 178.737 296.847 178.059 296.6C177.381 296.352 176.759 295.972 176.23 295.48C175.7 294.882 175.297 294.183 175.045 293.425C174.792 292.667 174.695 291.866 174.76 291.07C174.74 290.053 174.889 289.039 175.2 288.07C175.461 287.316 175.892 286.631 176.46 286.07C177.005 285.554 177.662 285.171 178.38 284.95C179.167 284.712 179.987 284.594 180.81 284.6L184 284.55ZM180.29 295.07C180.818 295.127 181.353 295.067 181.856 294.894C182.359 294.721 182.817 294.44 183.2 294.07C183.764 293.321 184.047 292.397 184 291.46V286.36H180.46C179.945 286.33 179.43 286.403 178.944 286.575C178.458 286.746 178.011 287.013 177.63 287.36C176.839 288.399 176.481 289.703 176.63 291C176.527 292.104 176.865 293.204 177.57 294.06C178.298 294.738 179.265 295.101 180.26 295.07H180.29ZM177.51 280.58C177.465 280.587 177.419 280.583 177.376 280.569C177.333 280.555 177.293 280.531 177.261 280.499C177.229 280.466 177.205 280.427 177.191 280.384C177.177 280.341 177.173 280.295 177.18 280.25V278.25C177.173 278.205 177.177 278.159 177.191 278.116C177.205 278.073 177.229 278.034 177.261 278.002C177.293 277.97 177.333 277.946 177.376 277.932C177.419 277.917 177.465 277.913 177.51 277.92H179.23C179.275 277.913 179.32 277.917 179.364 277.932C179.407 277.946 179.446 277.97 179.478 278.002C179.51 278.034 179.534 278.073 179.548 278.116C179.563 278.159 179.566 278.205 179.56 278.25V280.25C179.566 280.295 179.563 280.341 179.548 280.384C179.534 280.427 179.51 280.466 179.478 280.499C179.446 280.531 179.407 280.555 179.364 280.569C179.32 280.583 179.275 280.587 179.23 280.58H177.51ZM181.75 280.58C181.705 280.587 181.659 280.583 181.616 280.569C181.573 280.555 181.533 280.531 181.501 280.499C181.469 280.466 181.445 280.427 181.431 280.384C181.417 280.341 181.413 280.295 181.42 280.25V278.25C181.413 278.205 181.417 278.159 181.431 278.116C181.445 278.073 181.469 278.034 181.501 278.002C181.533 277.97 181.573 277.946 181.616 277.932C181.659 277.917 181.705 277.913 181.75 277.92H183.47C183.515 277.913 183.56 277.917 183.604 277.932C183.647 277.946 183.686 277.97 183.718 278.002C183.75 278.034 183.774 278.073 183.788 278.116C183.803 278.159 183.806 278.205 183.8 278.25V280.25C183.806 280.295 183.803 280.341 183.788 280.384C183.774 280.427 183.75 280.466 183.718 280.499C183.686 280.531 183.647 280.555 183.604 280.569C183.56 280.583 183.515 280.587 183.47 280.58H181.75Z" fill="#828282"/>
<path d="M210.78 292.32C210.78 292.68 210.78 293.01 210.78 293.32C210.78 293.63 210.78 293.91 210.78 294.15C210.755 294.51 210.821 294.87 210.973 295.197C211.126 295.524 211.358 295.808 211.65 296.02C212.348 296.46 213.166 296.673 213.99 296.63H214.15C214.49 296.611 214.83 296.662 215.15 296.78C215.37 296.88 215.48 297.13 215.48 297.52C215.48 297.91 215.38 298.21 215.17 298.32C214.852 298.446 214.511 298.501 214.17 298.48C213.31 298.494 212.455 298.362 211.64 298.09C211.28 297.963 210.957 297.748 210.701 297.465C210.444 297.182 210.262 296.841 210.17 296.47C209.974 296.899 209.679 297.276 209.31 297.57C208.934 297.86 208.501 298.067 208.04 298.18C207.478 298.328 206.901 298.412 206.32 298.43C205.67 298.43 204.95 298.48 204.15 298.48H195.49C195.134 298.479 194.779 298.446 194.43 298.38C194.127 298.342 193.834 298.244 193.57 298.09C193.225 298.271 192.848 298.383 192.46 298.42C192.03 298.42 191.6 298.48 191.16 298.48H189.11C188.764 298.507 188.418 298.438 188.11 298.28C187.995 298.207 187.903 298.104 187.843 297.983C187.783 297.861 187.758 297.725 187.77 297.59C187.752 297.446 187.773 297.301 187.829 297.168C187.885 297.034 187.975 296.918 188.09 296.83C188.4 296.678 188.745 296.609 189.09 296.63H191.53C192.33 296.63 192.81 296.41 192.99 295.97C193.201 295.274 193.289 294.546 193.25 293.82V285.62C193.243 285.575 193.247 285.529 193.261 285.486C193.275 285.443 193.299 285.404 193.331 285.372C193.364 285.34 193.403 285.316 193.446 285.301C193.489 285.287 193.535 285.283 193.58 285.29H194.74C194.785 285.283 194.831 285.287 194.874 285.301C194.917 285.316 194.956 285.34 194.988 285.372C195.02 285.404 195.044 285.443 195.058 285.486C195.073 285.529 195.077 285.575 195.07 285.62V286.81C196.269 286.16 197.528 285.628 198.83 285.22C200.2 284.781 201.631 284.558 203.07 284.56C205.68 284.56 207.61 285.22 208.89 286.56C210.251 288.158 210.93 290.226 210.78 292.32V292.32ZM204.96 296.62C205.559 296.628 206.157 296.588 206.75 296.5C207.196 296.445 207.613 296.249 207.94 295.94C208.284 295.582 208.514 295.129 208.6 294.64C208.749 293.866 208.816 293.078 208.8 292.29C208.808 291.466 208.718 290.643 208.53 289.84C208.377 289.16 208.065 288.526 207.62 287.99C207.154 287.457 206.558 287.054 205.89 286.82C205.019 286.517 204.101 286.375 203.18 286.4C202.441 286.404 201.705 286.478 200.98 286.62C200.247 286.759 199.522 286.939 198.81 287.16C198.13 287.378 197.462 287.631 196.81 287.92C196.17 288.21 195.59 288.49 195.06 288.75V294.87C195.074 295.46 195.007 296.049 194.86 296.62H204.96Z" fill="#828282"/>
<path d="M220.07 294.14C220.052 294.504 220.128 294.866 220.291 295.192C220.454 295.517 220.698 295.796 221 296C221.696 296.438 222.509 296.651 223.33 296.61H223.53C223.873 296.588 224.216 296.65 224.53 296.79C224.646 296.865 224.738 296.972 224.797 297.098C224.855 297.223 224.877 297.362 224.86 297.5C224.874 297.64 224.855 297.781 224.802 297.912C224.75 298.042 224.667 298.158 224.56 298.25C224.254 298.414 223.907 298.487 223.56 298.46C222.756 298.478 221.953 298.374 221.18 298.15C220.843 298.036 220.537 297.848 220.284 297.598C220.031 297.349 219.838 297.045 219.72 296.71C219.48 297.216 219.115 297.653 218.66 297.98C218.089 298.335 217.421 298.503 216.75 298.46H214.2C213.857 298.482 213.514 298.42 213.2 298.28C213.078 298.21 212.979 298.105 212.917 297.978C212.855 297.852 212.831 297.71 212.85 297.57C212.833 297.425 212.854 297.279 212.912 297.145C212.97 297.012 213.063 296.896 213.18 296.81C213.49 296.658 213.835 296.589 214.18 296.61H216.53C216.871 296.627 217.212 296.573 217.53 296.45C217.763 296.345 217.951 296.161 218.06 295.93C218.181 295.655 218.253 295.36 218.27 295.06C218.309 294.651 218.326 294.24 218.32 293.83V285.47C218.313 285.425 218.317 285.379 218.331 285.336C218.346 285.293 218.37 285.254 218.402 285.222C218.434 285.189 218.473 285.165 218.516 285.151C218.559 285.137 218.605 285.133 218.65 285.14H219.81C219.855 285.133 219.901 285.137 219.944 285.151C219.987 285.165 220.026 285.189 220.058 285.222C220.09 285.254 220.115 285.293 220.129 285.336C220.143 285.379 220.147 285.425 220.14 285.47L220.07 294.14ZM218.48 281.91C218.435 281.917 218.389 281.913 218.346 281.899C218.303 281.884 218.264 281.86 218.232 281.828C218.2 281.796 218.176 281.757 218.161 281.714C218.147 281.671 218.143 281.625 218.15 281.58V279.58C218.143 279.535 218.147 279.489 218.161 279.446C218.176 279.403 218.2 279.364 218.232 279.332C218.264 279.299 218.303 279.275 218.346 279.261C218.389 279.247 218.435 279.243 218.48 279.25H219.81C219.855 279.243 219.901 279.247 219.944 279.261C219.987 279.275 220.026 279.299 220.058 279.332C220.09 279.364 220.115 279.403 220.129 279.446C220.143 279.489 220.147 279.535 220.14 279.58V281.58C220.147 281.625 220.143 281.671 220.129 281.714C220.115 281.757 220.09 281.796 220.058 281.828C220.026 281.86 219.987 281.884 219.944 281.899C219.901 281.913 219.855 281.917 219.81 281.91H218.48Z" fill="#828282"/>
<path d="M233.13 298.7C232.226 298.712 231.325 298.567 230.47 298.27C229.697 298.005 229.024 297.51 228.54 296.85C228.265 297.463 227.769 297.949 227.15 298.21C226.594 298.386 226.014 298.474 225.43 298.47H223.48C223.139 298.491 222.798 298.437 222.48 298.31C222.26 298.2 222.15 297.96 222.15 297.58C222.15 297.2 222.25 296.87 222.46 296.77C222.78 296.653 223.12 296.602 223.46 296.62H225.28C225.526 296.621 225.77 296.577 226 296.49C226.262 296.391 226.493 296.226 226.67 296.01C226.885 295.737 227.051 295.43 227.16 295.1C227.305 294.641 227.372 294.161 227.36 293.68C227.36 293.41 227.36 293.13 227.31 292.83C227.26 292.53 227.31 292.23 227.31 291.93C227.31 287.01 229.25 284.55 233.13 284.55C233.941 284.495 234.753 284.623 235.506 284.926C236.259 285.229 236.934 285.699 237.48 286.3C238.571 287.839 239.091 289.709 238.95 291.59C238.95 294.044 238.46 295.84 237.48 296.98C236.931 297.575 236.254 298.038 235.501 298.336C234.748 298.633 233.938 298.758 233.13 298.7ZM233.13 286.4C232.551 286.354 231.969 286.459 231.443 286.707C230.917 286.954 230.464 287.334 230.13 287.81C229.458 288.988 229.138 290.335 229.21 291.69C229.113 293.05 229.434 294.408 230.13 295.58C230.488 296.021 230.949 296.368 231.472 296.589C231.995 296.811 232.565 296.9 233.13 296.85C233.696 296.896 234.264 296.804 234.786 296.583C235.309 296.362 235.77 296.018 236.13 295.58C236.844 294.414 237.173 293.053 237.07 291.69C237.144 290.339 236.817 288.996 236.13 287.83C235.797 287.353 235.345 286.97 234.819 286.72C234.293 286.469 233.711 286.359 233.13 286.4V286.4Z" fill="#828282"/>
</svg>
