<svg width="323" height="384" viewBox="0 0 323 384" fill="none" xmlns="http://www.w3.org/2000/svg">
<circle cx="43" cy="38" r="38" fill="#443C3C" fill-opacity="0.32"/>
<circle cx="193" cy="208" r="170" fill="#443C3C" fill-opacity="0.32"/>
<path d="M0 286.025C0 331.488 28.529 368.282 63.7829 368.282L0 286.025Z" fill="#46455B"/>
<path d="M63.7832 368.291C63.7832 322.312 95.6248 285.111 134.97 285.111L63.7832 368.291Z" fill="#FF5856"/>
<path d="M23.1172 290.152C23.1172 333.343 41.3099 368.291 63.7837 368.291L23.1172 290.152Z" fill="#FF5856"/>
<path d="M63.7832 368.291C63.7832 309.544 100.585 262 146.057 262L63.7832 368.291Z" fill="#46455B"/>
<path opacity="0.1" d="M61.0215 384C69.7794 384 76.879 382.801 76.879 381.321C76.879 379.842 69.7794 378.643 61.0215 378.643C52.2637 378.643 45.1641 379.842 45.1641 381.321C45.1641 382.801 52.2637 384 61.0215 384Z" fill="#FF5856"/>
<path d="M50.3691 368.87C50.3691 368.87 59.4202 368.589 62.1355 366.653C64.8509 364.716 76.047 362.391 76.7259 365.504C77.4047 368.617 90.3025 380.987 80.1019 381.068C69.9013 381.15 56.37 379.475 53.6547 377.819C50.9394 376.164 50.3691 368.87 50.3691 368.87Z" fill="#A8A8A8"/>
<path opacity="0.2" d="M80.2919 379.982C70.0824 380.064 56.5691 378.39 53.8447 376.734C51.772 375.476 50.9484 370.942 50.6678 368.861H50.3691C50.3691 368.861 50.9393 376.154 53.6637 377.81C56.3881 379.466 69.9013 381.14 80.1109 381.059C83.0616 381.059 84.0753 379.982 84.021 378.435C83.6137 379.376 82.5366 379.964 80.2919 379.982Z" fill="black"/>
</svg>
