<svg width="337" height="924" viewBox="0 0 337 924" fill="none" xmlns="http://www.w3.org/2000/svg">
<circle cx="-274" cy="311" r="311" fill="#FF5856" fill-opacity="0.12"/>
<circle cx="57" cy="505" r="38" fill="#443C3C" fill-opacity="0.32"/>
<circle cx="207" cy="675" r="170" fill="#443C3C" fill-opacity="0.32"/>
<path d="M14 753.025C14 798.488 42.529 835.282 77.7829 835.282L14 753.025Z" fill="#46455B"/>
<path d="M77.7832 835.291C77.7832 789.312 109.625 752.111 148.97 752.111L77.7832 835.291Z" fill="#FF5856"/>
<path d="M37.1162 757.152C37.1162 800.343 55.3089 835.291 77.7827 835.291L37.1162 757.152Z" fill="#FF5856"/>
<path d="M77.7832 835.291C77.7832 776.544 114.585 729 160.057 729L77.7832 835.291Z" fill="#46455B"/>
<path opacity="0.1" d="M75.0225 851C83.7803 851 90.88 849.801 90.88 848.321C90.88 846.842 83.7803 845.643 75.0225 845.643C66.2646 845.643 59.165 846.842 59.165 848.321C59.165 849.801 66.2646 851 75.0225 851Z" fill="#FF5856"/>
<path d="M64.3691 835.87C64.3691 835.87 73.4202 835.589 76.1355 833.653C78.8509 831.716 90.047 829.391 90.7259 832.504C91.4047 835.617 104.302 847.987 94.1019 848.068C83.9013 848.15 70.37 846.475 67.6547 844.819C64.9394 843.164 64.3691 835.87 64.3691 835.87Z" fill="#A8A8A8"/>
<path opacity="0.2" d="M94.2919 846.982C84.0824 847.064 70.5691 845.39 67.8447 843.734C65.772 842.476 64.9484 837.942 64.6678 835.861H64.3691C64.3691 835.861 64.9393 843.154 67.6637 844.81C70.3881 846.466 83.9013 848.14 94.1109 848.059C97.0616 848.059 98.0753 846.982 98.021 845.435C97.6137 846.376 96.5366 846.964 94.2919 846.982Z" fill="black"/>
</svg>
