<svg id="Layer_1" data-name="Layer 1" xmlns="http://www.w3.org/2000/svg" viewBox="0 0 398.3 555.19"><defs><style>.cls-1{fill:#eaeaea;}.cls-2,.cls-3{fill:#fff;}.cls-2{fill-rule:evenodd;}</style></defs><title>نُلَقِّن</title><path class="cls-1" d="M109.38,412.87v-1.42a.29.29,0,0,1,.33-.33h1.16a.29.29,0,0,1,.33.33v11.74a1.93,1.93,0,0,0,.38,1.37,1.69,1.69,0,0,0,1.21.38h1.69a2,2,0,0,1,1,.2.81.81,0,0,1,.33.76c0,.44-.11.7-.32.77a3,3,0,0,1-1,.12h-1.79a6,6,0,0,1-1.19-.12,2.83,2.83,0,0,1-1.06-.41,2.21,2.21,0,0,1-.76-.86,3.06,3.06,0,0,1-.3-1.45,4.22,4.22,0,0,1-1.49.94,6.56,6.56,0,0,1-2.34.35,5.39,5.39,0,0,1-4-1.44,5.9,5.9,0,0,1-1.48-4.42,8.9,8.9,0,0,1,.45-3,5.2,5.2,0,0,1,1.26-2,4.75,4.75,0,0,1,1.92-1.12,8.06,8.06,0,0,1,2.43-.35Zm-3.7,10.52a3.63,3.63,0,0,0,2.91-1,4,4,0,0,0,.79-2.62v-5.09h-3.53a3.82,3.82,0,0,0-2.83,1c-.7.68-1,1.89-1,3.63a4.2,4.2,0,0,0,.94,3.06A3.74,3.74,0,0,0,105.68,423.39ZM102.9,408.9a.29.29,0,0,1-.33-.33v-2a.29.29,0,0,1,.33-.33h1.72a.29.29,0,0,1,.33.33v2a.29.29,0,0,1-.33.33Zm4.23,0a.29.29,0,0,1-.33-.33v-2a.29.29,0,0,1,.33-.33h1.72a.29.29,0,0,1,.33.33v2a.29.29,0,0,1-.33.33Z"/><path class="cls-1" d="M120.56,422.46a2.13,2.13,0,0,0,.87,1.87,4,4,0,0,0,2.34.61H124a2.15,2.15,0,0,1,1,.18.74.74,0,0,1,.33.71.88.88,0,0,1-.3.75,1.86,1.86,0,0,1-1,.21,8,8,0,0,1-2.38-.31,2.32,2.32,0,0,1-1.45-1.44,3.49,3.49,0,0,1-1.06,1.27,3.24,3.24,0,0,1-1.92.48h-2.68a1.71,1.71,0,0,1-.9-.18.78.78,0,0,1-.29-.71.88.88,0,0,1,.27-.76,1.6,1.6,0,0,1,.92-.2H117a2.5,2.5,0,0,0,1-.17,1.09,1.09,0,0,0,.53-.51,2.52,2.52,0,0,0,.21-.87c0-.36,0-.77,0-1.23V413.8a.29.29,0,0,1,.33-.33h1.16a.29.29,0,0,1,.33.33Zm-4.4,9.75a.29.29,0,0,1-.33-.33v-2a.29.29,0,0,1,.33-.33h1.72a.29.29,0,0,1,.33.33v2a.29.29,0,0,1-.33.33Zm4.23,0a.29.29,0,0,1-.33-.33v-2a.29.29,0,0,1,.33-.33h1.72a.29.29,0,0,1,.33.33v2a.29.29,0,0,1-.33.33Z"/><path class="cls-1" d="M139.37,422.06a5.05,5.05,0,0,0,.17,1.42,2.24,2.24,0,0,0,.46.9,1.42,1.42,0,0,0,.73.44,3.5,3.5,0,0,0,1,.12h.69a2,2,0,0,1,1,.2.81.81,0,0,1,.33.76c0,.37-.1.62-.31.73a2.32,2.32,0,0,1-1,.16h-.56a6.34,6.34,0,0,1-2.13-.35,2.83,2.83,0,0,1-1.54-1.3,4.14,4.14,0,0,1-1.92,1.45,7.37,7.37,0,0,1-2.61.43,7.77,7.77,0,0,1-2.66-.43,4,4,0,0,1-1.94-1.42,2.63,2.63,0,0,1-1.39,1.36,5.59,5.59,0,0,1-1.72.26h-2a2.31,2.31,0,0,1-1-.16.74.74,0,0,1-.33-.73c0-.44.11-.71.32-.81a2.46,2.46,0,0,1,1-.15h1.82a2.08,2.08,0,0,0,.73-.13,1.65,1.65,0,0,0,.66-.48,3,3,0,0,0,.5-.91,4.41,4.41,0,0,0,.2-1.42c0-.27,0-.55-.05-.85s0-.6,0-.91q0-7.37,5.82-7.37a5.38,5.38,0,0,1,4.36,1.75,8,8,0,0,1,1.49,5.29c0,.29,0,.66,0,1.11A6.35,6.35,0,0,1,139.37,422.06Zm-5.75-7.34a3.34,3.34,0,0,0-3,1.41,7,7,0,0,0-.93,3.88,6.62,6.62,0,0,0,.93,3.89,4.21,4.21,0,0,0,6,0,6.54,6.54,0,0,0,1-3.89,6.92,6.92,0,0,0-1-3.87A3.36,3.36,0,0,0,133.62,414.72Z"/><path class="cls-1" d="M148.43,422.46a2.12,2.12,0,0,0,.88,1.87,4,4,0,0,0,2.33.61h.2a2.13,2.13,0,0,1,1,.18.74.74,0,0,1,.33.71.88.88,0,0,1-.3.75,1.85,1.85,0,0,1-1,.21,7.9,7.9,0,0,1-2.38-.31A2.34,2.34,0,0,1,148,425a3.39,3.39,0,0,1-1.06,1.27,3.23,3.23,0,0,1-1.91.48h-2.68a1.75,1.75,0,0,1-.91-.18.78.78,0,0,1-.28-.71.91.91,0,0,1,.26-.76,1.64,1.64,0,0,1,.93-.2h2.48a2.41,2.41,0,0,0,1-.17,1.05,1.05,0,0,0,.53-.51,2.52,2.52,0,0,0,.21-.87,11.44,11.44,0,0,0,.05-1.23V413.8a.29.29,0,0,1,.33-.33h1.16a.29.29,0,0,1,.33.33Zm-4.4,9.75a.29.29,0,0,1-.33-.33v-2a.29.29,0,0,1,.33-.33h1.72a.29.29,0,0,1,.33.33v2a.29.29,0,0,1-.33.33Zm4.24,0a.29.29,0,0,1-.33-.33v-2a.29.29,0,0,1,.33-.33H150a.29.29,0,0,1,.33.33v2a.29.29,0,0,1-.33.33Z"/><path class="cls-1" d="M157.79,422.46a2.12,2.12,0,0,0,.88,1.87,4,4,0,0,0,2.33.61h.19a2.15,2.15,0,0,1,1,.18.74.74,0,0,1,.33.71.88.88,0,0,1-.3.75,1.86,1.86,0,0,1-1,.21,8,8,0,0,1-2.38-.31,2.32,2.32,0,0,1-1.45-1.44,3.39,3.39,0,0,1-1.06,1.27,3.24,3.24,0,0,1-1.92.48h-2.54a2.17,2.17,0,0,1-1-.18.72.72,0,0,1-.34-.71.81.81,0,0,1,.33-.76,2,2,0,0,1,1-.2h2.34a2.5,2.5,0,0,0,1-.17,1.05,1.05,0,0,0,.53-.51,2.52,2.52,0,0,0,.21-.87c0-.36.05-.77.05-1.23V404.64a.29.29,0,0,1,.33-.33h1.16a.29.29,0,0,1,.33.33Z"/><path class="cls-1" d="M169.89,412.87q3.38,0,4.93,1.34a4.77,4.77,0,0,1,1.55,3.82,6,6,0,0,1-.38,2.13,9.26,9.26,0,0,1-1,1.94,9.91,9.91,0,0,1-1.33,1.6,8.65,8.65,0,0,1-1.42,1.14,1.66,1.66,0,0,0,.46.08l.5,0h5.32a1.72,1.72,0,0,1,1.13.26.94.94,0,0,1,.26.67.78.78,0,0,1-.31.74,2.33,2.33,0,0,1-1.08.18h-4.36a13.5,13.5,0,0,1-2.25-.18,5.58,5.58,0,0,1-2-.78,5.51,5.51,0,0,1-2.31.81,19,19,0,0,1-2.22.15h-4.23a2.42,2.42,0,0,1-1-.16c-.21-.11-.31-.37-.31-.76a.84.84,0,0,1,.26-.73,2,2,0,0,1,1.09-.2h4.66a9.91,9.91,0,0,0,1.66-.12,6.26,6.26,0,0,0,1.42-.41,10,10,0,0,0-.81-2.53,9.86,9.86,0,0,0-1.24-1.95,9.64,9.64,0,0,0-1.47-1.46c-.52-.4-1-.76-1.47-1.07-.29-.18-.43-.32-.43-.43v-1.79c0-.19.16-.43.48-.69a5.41,5.41,0,0,1,1.32-.76,10.46,10.46,0,0,1,2-.61A12.41,12.41,0,0,1,169.89,412.87Zm.73,10.95a9.49,9.49,0,0,0,1.34-1,7.88,7.88,0,0,0,1.22-1.35,7.41,7.41,0,0,0,.88-1.64,5.17,5.17,0,0,0,.33-1.84,2.83,2.83,0,0,0-.37-1.5,3,3,0,0,0-1-1,4.65,4.65,0,0,0-1.42-.58,8,8,0,0,0-1.74-.18,10.23,10.23,0,0,0-1.59.13,11,11,0,0,0-1.37.33c-.41.14-.76.27-1.06.4a4.46,4.46,0,0,0-.64.33,14.48,14.48,0,0,1,3.47,3.28A10.66,10.66,0,0,1,170.62,423.82Z"/><path class="cls-1" d="M184.64,422.46a2.12,2.12,0,0,0,.88,1.87,4,4,0,0,0,2.33.61H188a2.18,2.18,0,0,1,1,.18.74.74,0,0,1,.33.71.88.88,0,0,1-.3.75,1.86,1.86,0,0,1-1,.21,7.94,7.94,0,0,1-2.38-.31,2.32,2.32,0,0,1-1.45-1.44,3.49,3.49,0,0,1-1.06,1.27,3.24,3.24,0,0,1-1.92.48h-2.68a1.78,1.78,0,0,1-.91-.18.8.8,0,0,1-.28-.71.88.88,0,0,1,.27-.76,1.6,1.6,0,0,1,.92-.2H181a2.5,2.5,0,0,0,1-.17,1.09,1.09,0,0,0,.53-.51,2.52,2.52,0,0,0,.21-.87c0-.36,0-.77,0-1.23V413.8a.29.29,0,0,1,.33-.33h1.16a.29.29,0,0,1,.33.33Zm-4-12.23c-.22,0-.33-.11-.33-.34v-2a.29.29,0,0,1,.33-.33h1.72a.29.29,0,0,1,.33.33v2c0,.23-.11.34-.33.34Zm4.23,0c-.22,0-.33-.11-.33-.34v-2a.29.29,0,0,1,.33-.33h1.72a.29.29,0,0,1,.33.33v2c0,.23-.11.34-.33.34Z"/><path class="cls-1" d="M188,426.79a2.31,2.31,0,0,1-1-.16.74.74,0,0,1-.33-.73c0-.42.11-.69.31-.8a2.32,2.32,0,0,1,1-.16h2.42a1.83,1.83,0,0,0,1.27-.4,1.71,1.71,0,0,0,.45-1.35V404.64a.29.29,0,0,1,.33-.33h1.15a.3.3,0,0,1,.34.33v18a9.22,9.22,0,0,1-.17,1.86,2.85,2.85,0,0,1-.6,1.3,2.44,2.44,0,0,1-1.17.76,6.11,6.11,0,0,1-1.93.25Z"/><path class="cls-1" d="M200.77,426.46a.29.29,0,0,1-.33.33h-1.16a.29.29,0,0,1-.33-.33V404.64a.29.29,0,0,1,.33-.33h1.16a.29.29,0,0,1,.33.33Z"/><path class="cls-1" d="M226,416.71a.3.3,0,0,1,.33-.34h1.16a.3.3,0,0,1,.33.34v5.75a2.23,2.23,0,0,0,.78,1.87,3.42,3.42,0,0,0,2.17.61H231a2.1,2.1,0,0,1,1.06.18.88.88,0,0,1,.26.75.78.78,0,0,1-.31.74,2.11,2.11,0,0,1-1,.18,6.38,6.38,0,0,1-1.77-.23,3,3,0,0,1-1.34-.83v.43a8.61,8.61,0,0,1-.44,2.8,6,6,0,0,1-1.36,2.2,6.33,6.33,0,0,1-2.33,1.45,10.61,10.61,0,0,1-6.53,0,6.45,6.45,0,0,1-2.35-1.4,6,6,0,0,1-1.44-2.2,7.88,7.88,0,0,1-.49-2.84,10.17,10.17,0,0,1,.68-3.81,13.59,13.59,0,0,1,1.47-2.84c.08-.13.24-.13.46,0l1,.66a.27.27,0,0,1,.1.43,15.21,15.21,0,0,0-1.25,2.43,7.39,7.39,0,0,0-.6,2.93,5.27,5.27,0,0,0,.56,2.56,4.6,4.6,0,0,0,1.43,1.59,5.72,5.72,0,0,0,1.86.81,9,9,0,0,0,1.94.23,8.18,8.18,0,0,0,2.13-.27,4.44,4.44,0,0,0,1.74-.86,4.07,4.07,0,0,0,1.15-1.53,5.49,5.49,0,0,0,.43-2.3Zm-4.95-.34c-.23,0-.34-.1-.34-.33v-2c0-.22.11-.33.34-.33h1.32a.29.29,0,0,1,.33.33v2a.29.29,0,0,1-.33.33Z"/><path class="cls-1" d="M234.5,401.89a.29.29,0,0,1-.33-.33v-.36a.29.29,0,0,1,.33-.33h8.4a.29.29,0,0,1,.33.33v.36a.29.29,0,0,1-.33.33Zm0-7.44a.29.29,0,0,1,.33-.33h.53a.29.29,0,0,1,.33.33v2.45a1.34,1.34,0,0,0,.33,1,1.11,1.11,0,0,0,.86.35,1.18,1.18,0,0,0,.86-.31,1.15,1.15,0,0,0,.33-.88v-2.58a.29.29,0,0,1,.33-.33H239a.29.29,0,0,1,.33.33V397a1.15,1.15,0,0,0,.33.88,1.2,1.2,0,0,0,.86.31,1.13,1.13,0,0,0,.85-.35,1.3,1.3,0,0,0,.34-1v-2.45a.29.29,0,0,1,.33-.33h.53a.29.29,0,0,1,.33.33v2.35a2.5,2.5,0,0,1-.68,1.85,2.24,2.24,0,0,1-1.7.7,2.21,2.21,0,0,1-1.75-.73,2.3,2.3,0,0,1-1.82.73,2.26,2.26,0,0,1-1.7-.7,2.54,2.54,0,0,1-.68-1.85Z"/><path class="cls-1" d="M239.06,412.87a7.52,7.52,0,0,1,2.7.46,5.42,5.42,0,0,1,3.17,3.23,6.67,6.67,0,0,1,.42,2.39,6.44,6.44,0,0,1-.27,1.86,7.84,7.84,0,0,1-.73,1.68,6.69,6.69,0,0,1-1.09,1.42,6.56,6.56,0,0,1-1.32,1h5.69a2.5,2.5,0,0,1,1,.15q.33.15.33.81a.75.75,0,0,1-.32.69,1.92,1.92,0,0,1-1,.2h-4.27c-.79,0-1.54,0-2.25-.1a4.56,4.56,0,0,1-2-.69,5.82,5.82,0,0,1-2.34.69c-.82.07-1.56.1-2.19.1H231q-1.32,0-1.32-1a.75.75,0,0,1,.31-.71,2.14,2.14,0,0,1,1-.18h5.19a9.33,9.33,0,0,1-2.39-2.51,6.08,6.08,0,0,1-.95-3.38,6.65,6.65,0,0,1,.43-2.34,6.27,6.27,0,0,1,1.23-2,5.58,5.58,0,0,1,1.95-1.35A6.65,6.65,0,0,1,239.06,412.87Zm0,1.92a4.67,4.67,0,0,0-1.7.3A3.79,3.79,0,0,0,236,416a4,4,0,0,0-.91,1.35,4.64,4.64,0,0,0-.33,1.79,4.87,4.87,0,0,0,.35,1.82,5.69,5.69,0,0,0,.94,1.55,6.66,6.66,0,0,0,1.38,1.21,8.38,8.38,0,0,0,1.63.84,8.76,8.76,0,0,0,1.64-.84,6,6,0,0,0,1.35-1.21,5.66,5.66,0,0,0,.93-1.55,4.87,4.87,0,0,0,.35-1.82,4.12,4.12,0,0,0-1.21-3.18A4.29,4.29,0,0,0,239.06,414.79Zm-3-4.56c-.22,0-.33-.11-.33-.34v-2a.29.29,0,0,1,.33-.33h1.72a.29.29,0,0,1,.33.33v2c0,.23-.11.34-.33.34Zm4.23,0c-.22,0-.33-.11-.33-.34v-2a.29.29,0,0,1,.33-.33H242a.3.3,0,0,1,.33.33v2a.3.3,0,0,1-.33.34Z"/><path class="cls-1" d="M253.58,422.46a2.13,2.13,0,0,0,.87,1.87,4,4,0,0,0,2.33.61h.2a2.18,2.18,0,0,1,1,.18.76.76,0,0,1,.33.71.88.88,0,0,1-.3.75,1.86,1.86,0,0,1-1,.21,7.94,7.94,0,0,1-2.38-.31,2.32,2.32,0,0,1-1.45-1.44,3.49,3.49,0,0,1-1.06,1.27,3.24,3.24,0,0,1-1.92.48h-2.54a2.17,2.17,0,0,1-1-.18.73.73,0,0,1-.35-.71.81.81,0,0,1,.33-.76,2,2,0,0,1,1-.2H250a2.5,2.5,0,0,0,1-.17,1.09,1.09,0,0,0,.53-.51,2.77,2.77,0,0,0,.21-.87c0-.36,0-.77,0-1.23V404.64a.29.29,0,0,1,.33-.33h1.16a.29.29,0,0,1,.33.33Z"/><path class="cls-1" d="M260.12,401.16a4.47,4.47,0,0,0,1.26-.14,2.78,2.78,0,0,0,.81-.38,1.87,1.87,0,0,0,.48-.5,2.17,2.17,0,0,0,.23-.46h-1.16a2.53,2.53,0,0,1-1.75-.58,2.08,2.08,0,0,1-.63-1.61,2.39,2.39,0,0,1,.7-1.73,2.27,2.27,0,0,1,1.72-.71,2.38,2.38,0,0,1,1.73.69,3.07,3.07,0,0,1,.71,2.28,5.53,5.53,0,0,1-.31,2,3.44,3.44,0,0,1-.86,1.31,3.11,3.11,0,0,1-1.29.7,6.42,6.42,0,0,1-1.64.19h-.92a.29.29,0,0,1-.33-.33v-.39a.3.3,0,0,1,.33-.34Zm3-2.47a2,2,0,0,0,0-.34V398a2.22,2.22,0,0,0-.38-1.43,1.28,1.28,0,0,0-2,0,1.56,1.56,0,0,0-.35.92.94.94,0,0,0,.55.95,2.4,2.4,0,0,0,.94.25Z"/><path class="cls-1" d="M257,426.79a2.31,2.31,0,0,1-1-.16.74.74,0,0,1-.33-.73c0-.42.1-.69.31-.8a2.32,2.32,0,0,1,1-.16h2.41a1.84,1.84,0,0,0,1.28-.4,1.75,1.75,0,0,0,.44-1.35V413.8a.29.29,0,0,1,.33-.33h1.16a.29.29,0,0,1,.33.33v8.82a9.27,9.27,0,0,1-.16,1.86,2.85,2.85,0,0,1-.6,1.3,2.54,2.54,0,0,1-1.17.76,6.13,6.13,0,0,1-1.94.25Zm4.36-16.56c-.22,0-.33-.11-.33-.34v-2a.29.29,0,0,1,.33-.33h1.33a.29.29,0,0,1,.33.33v2c0,.23-.11.34-.33.34Z"/><path class="cls-1" d="M284.06,412.87v-1.42a.29.29,0,0,1,.33-.33h1.16a.29.29,0,0,1,.33.33v11.74a1.93,1.93,0,0,0,.38,1.37,1.69,1.69,0,0,0,1.21.38h1.69a2,2,0,0,1,1,.2.81.81,0,0,1,.33.76c0,.44-.11.7-.32.77a3,3,0,0,1-1,.12h-1.79a6,6,0,0,1-1.19-.12,2.83,2.83,0,0,1-1.06-.41,2.21,2.21,0,0,1-.76-.86,3.06,3.06,0,0,1-.3-1.45,4.27,4.27,0,0,1-1.48.94,6.65,6.65,0,0,1-2.35.35,5.39,5.39,0,0,1-4-1.44,5.94,5.94,0,0,1-1.47-4.42,8.92,8.92,0,0,1,.44-3,5.2,5.2,0,0,1,1.26-2,4.75,4.75,0,0,1,1.92-1.12,8.06,8.06,0,0,1,2.43-.35Zm-3.7,10.52a3.63,3.63,0,0,0,2.91-1,4,4,0,0,0,.79-2.62v-5.09h-3.54a3.82,3.82,0,0,0-2.82,1c-.7.68-1,1.89-1,3.63a4.2,4.2,0,0,0,.94,3.06A3.74,3.74,0,0,0,280.36,423.39Zm-2.78-14.49a.29.29,0,0,1-.33-.33v-2a.29.29,0,0,1,.33-.33h1.72a.29.29,0,0,1,.33.33v2a.29.29,0,0,1-.33.33Zm4.24,0a.3.3,0,0,1-.34-.33v-2a.3.3,0,0,1,.34-.33h1.71a.29.29,0,0,1,.33.33v2a.29.29,0,0,1-.33.33Z"/><path class="cls-1" d="M310.88,420.64c0,.35,0,.68,0,1s0,.59,0,.83a2.13,2.13,0,0,0,.87,1.87,4,4,0,0,0,2.33.61h.17a2.5,2.5,0,0,1,1,.15c.22.1.33.35.33.74s-.1.69-.31.8a2.32,2.32,0,0,1-1,.16,7.34,7.34,0,0,1-2.53-.4,2.28,2.28,0,0,1-1.47-1.62,3,3,0,0,1-.86,1.11,3.41,3.41,0,0,1-1.27.61,7.72,7.72,0,0,1-1.72.25c-.65,0-1.38.05-2.17.05h-8.66a5.74,5.74,0,0,1-1.06-.1,2,2,0,0,1-.86-.3,2.68,2.68,0,0,1-1.11.33,11.26,11.26,0,0,1-1.31.07h-2a2,2,0,0,1-1-.2.73.73,0,0,1-.33-.69.82.82,0,0,1,.32-.76,2,2,0,0,1,1-.2h2.44c.8,0,1.28-.22,1.46-.66a6.48,6.48,0,0,0,.26-2.15v-8.2a.29.29,0,0,1,.33-.33h1.16a.29.29,0,0,1,.33.33v1.19a21.35,21.35,0,0,1,3.75-1.59,13.92,13.92,0,0,1,4.25-.66q3.9,0,5.82,2A8,8,0,0,1,310.88,420.64Zm-5.82,4.3a11.28,11.28,0,0,0,1.79-.12,2.11,2.11,0,0,0,1.19-.56,2.7,2.7,0,0,0,.66-1.31,11,11,0,0,0,.2-2.34,10.21,10.21,0,0,0-.27-2.45,4.46,4.46,0,0,0-.91-1.85,4.09,4.09,0,0,0-1.73-1.17,7.66,7.66,0,0,0-2.72-.42,10.92,10.92,0,0,0-2.19.22,19,19,0,0,0-4.19,1.3c-.64.29-1.22.57-1.75.83v6.12a6.85,6.85,0,0,1-.2,1.75Z"/><path class="cls-1" d="M320.17,422.46a2.12,2.12,0,0,0,.88,1.87,4,4,0,0,0,2.33.61h.2a2.13,2.13,0,0,1,1,.18.74.74,0,0,1,.33.71.88.88,0,0,1-.3.75,1.85,1.85,0,0,1-1,.21,8,8,0,0,1-2.39-.31,2.32,2.32,0,0,1-1.45-1.44,3.39,3.39,0,0,1-1.06,1.27,3.23,3.23,0,0,1-1.91.48h-2.55a2.17,2.17,0,0,1-1-.18.72.72,0,0,1-.34-.71.81.81,0,0,1,.33-.76,2,2,0,0,1,1-.2h2.35a2.41,2.41,0,0,0,1-.17,1.05,1.05,0,0,0,.53-.51,2.52,2.52,0,0,0,.21-.87,11.44,11.44,0,0,0,.05-1.23V413.8a.29.29,0,0,1,.33-.33h1.16a.29.29,0,0,1,.33.33Zm-1.59-12.23c-.22,0-.33-.11-.33-.34v-2a.29.29,0,0,1,.33-.33h1.33a.29.29,0,0,1,.33.33v2c0,.23-.11.34-.33.34Z"/><path class="cls-1" d="M333.23,427a7.77,7.77,0,0,1-2.66-.43,4,4,0,0,1-1.94-1.42,2.65,2.65,0,0,1-1.38,1.36,5.63,5.63,0,0,1-1.72.26h-1.95a2.36,2.36,0,0,1-1-.16.74.74,0,0,1-.33-.73c0-.44.11-.71.32-.81a2.48,2.48,0,0,1,1-.15h1.81a2,2,0,0,0,.73-.13,1.58,1.58,0,0,0,.66-.48,2.8,2.8,0,0,0,.5-.91,4.41,4.41,0,0,0,.2-1.42c0-.27,0-.55-.05-.85s0-.6,0-.91q0-7.37,5.82-7.37a5.35,5.35,0,0,1,4.35,1.75,8.08,8.08,0,0,1,1.47,5.29q0,3.68-1.47,5.39A5.4,5.4,0,0,1,333.23,427Zm0-12.3a3.34,3.34,0,0,0-3,1.41,7,7,0,0,0-.92,3.88,6.63,6.63,0,0,0,.92,3.89,3.47,3.47,0,0,0,3,1.27,3.52,3.52,0,0,0,3-1.27,6.62,6.62,0,0,0,.94-3.89,7,7,0,0,0-.94-3.87A3.39,3.39,0,0,0,333.23,414.72Z"/><path class="cls-2" d="M196.85,292l.18-.27c.13-.51.26-1,.38-1.52C197.23,290.85,197,291.45,196.85,292Z"/><path class="cls-2" d="M268,340.14a2.11,2.11,0,0,1-.34-.45c-.13-.46-.21-.94-.35-1.4-.29-1-.61-1.91-.93-2.86-.52-1.53-1.8-2.18-3.17-2.71-.36-.13-.73-.24-1.13-.37-.23-1.18.31-2.21.39-3.28a2.88,2.88,0,0,1,.76-1.49,2.72,2.72,0,0,1,1.71.95,12.91,12.91,0,0,1,3.09,4.83c.1.24.21.48.32.71a.84.84,0,0,0,.17.07,4.75,4.75,0,0,0,0-.51c-.07-1.05-.15-2.1-.22-3.14a14.18,14.18,0,0,1,.27-4.31c.1-.43.13-.87.21-1.3a6.92,6.92,0,0,1,2.05-3.87,1.23,1.23,0,0,1,1.2-.34,3.55,3.55,0,0,1,2.66,2.63.86.86,0,0,1,.05.39,6.09,6.09,0,0,1-1.31,2.87c-.3-.5-.51-.88-.75-1.24a2.85,2.85,0,0,0-1.38-1.16.92.92,0,0,0-1.17.29,2.94,2.94,0,0,0-.77,2.29c.06,1.14.19,2.27.22,3.41a26.8,26.8,0,0,1-.71,8.08,15.13,15.13,0,0,1-.53,1.47A2.19,2.19,0,0,1,268,340.14Z"/><path class="cls-2" d="M152.33,310.62a6.06,6.06,0,0,0-3.64-3.14l-3.75-1.62c-.79-.34-1.58-.67-2.36-1-2.3-1.09-2.44-1.32-2.12-3.78a15.23,15.23,0,0,1,.52-2.52c.75-2.39,1.55-4.77,2.33-7.15.09-.27.19-.54.3-.8.68-1.56,1.18-1.37,2.32-.86,2.22,1,4.47,1.94,6.68,3a14,14,0,0,1,2.61,1.48,3.23,3.23,0,0,1,1.36,3.77c-.15.47-.21,1-.33,1.46-.66,2.57-1.33,5.13-2,7.69-.22.84-.4,1.68-.66,2.49A1.32,1.32,0,0,1,152.33,310.62Z"/><path class="cls-2" d="M282.58,248.64c-.72-1.79-2.24-2.65-3.88-3.36l-4-1.72c-.85-.37-1.69-.72-2.52-1.11-2.45-1.17-2.61-1.42-2.27-4a16.26,16.26,0,0,1,.56-2.69c.8-2.55,1.65-5.09,2.49-7.63a6.86,6.86,0,0,1,.32-.86c.72-1.66,1.26-1.46,2.47-.91,2.37,1.07,4.77,2.07,7.14,3.15a14.14,14.14,0,0,1,2.78,1.58,3.43,3.43,0,0,1,1.45,4c-.16.5-.22,1-.36,1.56q-1,4.11-2.12,8.21c-.23.89-.43,1.79-.7,2.66A1.42,1.42,0,0,1,282.58,248.64Z"/><path class="cls-2" d="M170.92,225.59a5.4,5.4,0,0,0-2.78-3.25c-1-.64-2.06-1.28-3.08-1.93-.65-.41-1.3-.8-1.93-1.23-1.88-1.27-2-1.49-1.36-3.61a13.53,13.53,0,0,1,.8-2.15c1-2,2-4,3-6,.12-.22.24-.45.37-.67.81-1.27,1.22-1,2.16-.44,1.81,1.18,3.67,2.31,5.48,3.5a12,12,0,0,1,2.09,1.65,2.88,2.88,0,0,1,.69,3.5c-.2.39-.32.83-.49,1.24l-2.79,6.5c-.3.7-.58,1.41-.92,2.09A1.17,1.17,0,0,1,170.92,225.59Z"/><path class="cls-2" d="M166.24,207.9a5.36,5.36,0,0,0-2.78-3.26l-3.08-1.92c-.65-.41-1.3-.81-1.93-1.24-1.87-1.27-2-1.49-1.36-3.61a13.42,13.42,0,0,1,.8-2.14c1-2,2-4,3-6,.12-.23.24-.46.37-.67.81-1.28,1.23-1.05,2.16-.44,1.82,1.18,3.67,2.3,5.48,3.5A11.5,11.5,0,0,1,171,193.8a2.85,2.85,0,0,1,.69,3.49c-.2.4-.32.84-.49,1.25L168.41,205c-.3.7-.57,1.42-.91,2.1A1.18,1.18,0,0,1,166.24,207.9Z"/><path class="cls-2" d="M191.39,283.34a28.13,28.13,0,0,1-2,4.93C190,287,190.72,285.15,191.39,283.34Z"/><path class="cls-3" d="M303.69,256.38a2.49,2.49,0,0,0-2.91-2.37,5.66,5.66,0,0,0-2.57.93,19.54,19.54,0,0,0-6.18,6.94c-1.3,2.66-2.47,5.39-3.71,8.09-1.63,3.55-3.19,7.13-4.95,10.61-1.49,2.95-4.44,6.58-7.75,10.14-10.09,10.87-26.63-6.87-30.38-11.78.26-2.24.48-4.49.69-6.74a168.91,168.91,0,0,0,.58-21.93c-.13-3.91-.38-7.83-.86-11.71a86.08,86.08,0,0,0-4.06-15.92c-2.07-6.38-4.9-12.46-7.36-18.69-.45-1.13-1-2.25-1.5-3.34a155.53,155.53,0,0,1-9-22.79c-.38-1.25-.68-2.52-1.11-3.75Q220.53,168,219,161.79A112.38,112.38,0,0,1,216.22,144c-.32-4.08-.4-8.17-.63-12.26a15,15,0,0,0-.48-2.81,1.05,1.05,0,0,0-.77-.55,1,1,0,0,0-.82.44,15.33,15.33,0,0,0-1,3c-.58,3.43-1.06,6.87-1.58,10.31a5.28,5.28,0,0,1-.68,2.74c-1.1-.91-2.1-1.74-3.11-2.54a9.12,9.12,0,0,0-5-2c-3-.25-5.61.41-7.32,4.2a39.3,39.3,0,0,0-2.8,11.09,13.42,13.42,0,0,0,.35,5.17A46.62,46.62,0,0,0,200.78,178c3.24,4.22,6.39,8.49,9.56,12.76.77,1,1.46,2.14,2.13,3.13a15.81,15.81,0,0,0-.64,2.41,60.48,60.48,0,0,1-1.57,7.66,74.58,74.58,0,0,0-2.21,12.59,36.12,36.12,0,0,0,.35,9.11,9.49,9.49,0,0,0,3.1,5.31c2.09,1.85,4.42,1.23,5.35-1.35.12-.32.24-.65.33-1a32.46,32.46,0,0,0,.53-10.12c0-.24-.38-.45-.61-.71a3.92,3.92,0,0,0-.39,2.68,7.18,7.18,0,0,1-1,3.48,1.82,1.82,0,0,1-2.66.81,6.49,6.49,0,0,1-1.89-1.73c-1.45-2-1.58-4.38-1.52-6.75.08-3.07,1-6,1.56-9,.67-3.41,1.73-6.74,2-10.23a5.8,5.8,0,0,1,.45-1.17c.43.63.73,1,1,1.45.57,1,1.1,2,1.68,2.95a148.76,148.76,0,0,1,10.07,19.47,64.25,64.25,0,0,1,4.8,33.48c-.53,5.36-1.33,10.71-2.05,16-.07.57,2.41-4.09,2.94-6.74,1-4.95,1.79-9.93,2.33-14.95.25-2.42.33-4.87.35-7.3s-.17-4.7-.25-7.05a8.51,8.51,0,0,1,.06-1c.75.25.82.8,1,1.25a82.2,82.2,0,0,1,6.11,23.13,34.91,34.91,0,0,1,0,6.78A86,86,0,0,1,239.89,274a37.66,37.66,0,0,1-5.26,12.43C222,306,205.79,282,200.52,275.74c.08-.75.14-1.5.18-2.26.32-6.06.61-12.14-.94-18.13-2.65-10.16-9.15-16.56-19.1-19.56a8.09,8.09,0,0,0-9.35,2.94,16.42,16.42,0,0,0-2.42,4.35c-1.25,3.41-2.44,6.88-3.35,10.39a37.93,37.93,0,0,0-1.17,11.3,11.29,11.29,0,0,0,6.19,9.93,22.25,22.25,0,0,0,6.93,2.15c5.22,1,9.21-.76,12.14-5.18.6-.92.84-2.21,2.07-2.72,1.73,3.45,2.52,5.72,1.92,7.85-.35,1.22-1.2,3.78-2.15,6.34l-.08.2a28.13,28.13,0,0,1-2,4.93C183,300.47,169,305,163.16,297.66c-5.36,31,8.24,19.43,20,48.69-11.12,46.87-63.89,9.56-55.68-26.78,5.58-28.18,23.08-51.8,29.65-78.66,2.19-15.82-12.94,25-15.78,29.11-18.28,32-33.34,72.12,3.84,109.88,6.82,5.82,13.38,10.51,22.71,9.5,26-3,21.3-50.41,14.55-70.65,8.3-5.38,12-17,14.57-27l-.18.27c.19-.59.38-1.19.56-1.79-.12.5-.25,1-.38,1.52,1.79-3,3.93,3.66,3.93,3.66s6.92,25.82,30.62,15.46c2-.88,4.79-3.94,6.39-6a33.14,33.14,0,0,0,3.19-6.79c7.48,10.44,24.78,28.7,42,4.83,1.91-2.65,4.48-8.23,5.76-11.24,1.47-3.45,2.67-7,4.35-10.37,1.78-3.55,4.34-6.44,8.89-7a13.89,13.89,0,0,0,.72-2.55c.38-4.21.69-8.42,1-12.63A14.57,14.57,0,0,0,303.69,256.38Zm-86.27-64.6a84.22,84.22,0,0,0-7.21-10.54c-1-1.24-1.86-2.52-2.8-3.77-1.15-1.53-2.3-3.06-3.49-4.55a55.08,55.08,0,0,1-6.09-9.39,36.68,36.68,0,0,1-3-9.15,10.1,10.1,0,0,1,.38-4.9,2.91,2.91,0,0,1,2.57-2.25,9,9,0,0,1,5.37.57,15,15,0,0,1,6.73,6,4.54,4.54,0,0,1,.44,3.76,7,7,0,0,1-3.09-1.46c-.86-.54-1.33-1.61-2.37-1.9-.18.16-.39.25-.43.39a18.55,18.55,0,0,0-.71,5.4,2.47,2.47,0,0,0,.85,1.82,11.39,11.39,0,0,0,6.67,3.35c1,4.63,1.84,9.23,3,13.76s2.5,8.82,3.81,13.37C217.77,192.05,217.52,192,217.42,191.78Z"/><path class="cls-3" d="M191.47,283.14l-.08.2a1.87,1.87,0,0,0,.07-.22Z"/><path class="cls-3" d="M197.41,290.25c-.12.5-.25,1-.38,1.52l-.18.27C197,291.45,197.23,290.85,197.41,290.25Z"/><path class="cls-2" d="M159.28,163.92a5.22,5.22,0,0,1,.13,2.91,14,14,0,0,0-.15,2.13,2.8,2.8,0,0,0,1.66,2.59,3.17,3.17,0,0,0,3.26-.46,5.47,5.47,0,0,0,2.25-4.22,3.43,3.43,0,0,1,.37-2.19c.22.17.52.29.58.48a11.72,11.72,0,0,1,.27,1.48,4.37,4.37,0,0,0,.17.62c.38,1.09,1.09,1.78,1.72,1.68a2.43,2.43,0,0,0,1.66-2.26c0-1.15-.13-2.29-.2-3.44a4.7,4.7,0,0,1,0-1.06c0-.16.27-.28.52-.51a5.29,5.29,0,0,1,.5,1,27.67,27.67,0,0,1,.67,7.91,5.92,5.92,0,0,1-1.49,3.5,1.93,1.93,0,0,1-2.7.28,16.35,16.35,0,0,1-1.4-1.51l-.61,1.34a7.72,7.72,0,0,1-2.14,2.65,3.89,3.89,0,0,1-6.29-2.44,17.08,17.08,0,0,1-.17-3.43c.09-1.72.3-3.43.49-5.14A2.26,2.26,0,0,1,159.28,163.92Z"/><path class="cls-2" d="M220,358.88c-.22-.65-.47-1-.43-1.32.34-3.27.69-6.53,1.13-9.78a11.16,11.16,0,0,1,2.59-5.79c1.47-1.75,3-3.47,4.55-5.14,3.09-3.28,6.23-6.51,9.35-9.77a14.64,14.64,0,0,0,3.28-5.19,8.36,8.36,0,0,1,.75-1.34c1.23.43,1.46.64,1.25,1.52-.4,1.71-.88,3.4-1.36,5.09-.23.8-.59,1.57-.78,2.38a22,22,0,0,1-4.26,8,70.58,70.58,0,0,1-6.14,6.79c-2,2-3.86,4.13-5.72,6.26a13.6,13.6,0,0,0-3.5,6.85A5.9,5.9,0,0,1,220,358.88Z"/><path class="cls-2" d="M268.06,211.44c-.27.26-.55.51-.8.78q-1.67,1.74-3.32,3.5c-1.17,1.24-2.33,2.49-3.49,3.73-.39.42-.73.88-1.16,1.26a12.24,12.24,0,0,0-2.43,2.75c-.06.1-.2.13-.35.22a12.23,12.23,0,0,1,2.25-4.24,5,5,0,0,1,.38-.42,81,81,0,0,0,6.12-7.09c.3-.37.63-.71.94-1.06a63.53,63.53,0,0,0,6.54-8.93,12,12,0,0,0,1.29-3.32c-.38-.2-.7-.38-1-.53l-2.86-1.27a5.36,5.36,0,0,1-.62-.34A3.05,3.05,0,0,1,268,193a8.81,8.81,0,0,1,2.28-4.65,4.6,4.6,0,0,1,1.62-1.13,1.9,1.9,0,0,1,2,.32,3.45,3.45,0,0,1,1.11,1.62,12.27,12.27,0,0,1,.71,5.3c0,.24,0,.47-.06.8.29.25.61.52.91.81a13.71,13.71,0,0,1,1.22,1.19,1.9,1.9,0,0,1,.39,1.85c-.23.8-.4,1.62-.65,2.67a5.42,5.42,0,0,0-2.87-2.7c-.16.55-.33,1-.45,1.54a20.54,20.54,0,0,1-3.82,7.54c-.58.75-1.14,1.52-1.69,2.29a4.79,4.79,0,0,0-.38.75Zm6.16-16.72a6.71,6.71,0,0,0-.88-3.2,2.93,2.93,0,0,0-.47-.53,1.46,1.46,0,0,0-1-.39,1.78,1.78,0,0,0-1.18.4c-.42.35-1,.6-1,1.31A19.74,19.74,0,0,0,274.22,194.72Z"/><path class="cls-2" d="M242.28,150.11c.3,4.42-1.54,14.93-2.56,19.08-.67,2.68-.95,6.66.78,8.83a8.65,8.65,0,0,0,1.23,1.19c1.05.86,3.14-.2,4-1.23.9-.81,2.15-4,2.86-7.33.89,6.47,0,13.3-5,14.18-2.68,0-5.2-2.38-5.83-5.49a23,23,0,0,1,.5-10.24c.92-3.62,1.43-6.18,2.33-9.79C241.2,156.53,241.73,152.79,242.28,150.11Z"/><path class="cls-2" d="M217.09,217.83a4,4,0,0,0-.39,2.67,7.07,7.07,0,0,1-1,3.48,1.82,1.82,0,0,1-2.65.82,6.41,6.41,0,0,1-1.89-1.74c-1.46-2-1.59-4.37-1.53-6.75.09-3.07,1-6,1.56-9,.67-3.41,1.73-6.74,2-10.23a3.21,3.21,0,0,1,.33-.89,12,12,0,0,1-.95-2l-.18-.15a13.58,13.58,0,0,0-.6,2.28,60.51,60.51,0,0,1-1.58,7.66,73.57,73.57,0,0,0-2.2,12.59,35.19,35.19,0,0,0,.35,9.11,9.39,9.39,0,0,0,3.09,5.31c2.09,1.85,4.42,1.23,5.36-1.34.11-.33.24-.66.32-1a32.15,32.15,0,0,0,.54-10.12C217.69,218.29,217.33,218.08,217.09,217.83Z"/></svg>