<svg id="Layer_1" data-name="Layer 1" xmlns="http://www.w3.org/2000/svg" viewBox="0 0 506.55 555.19"><defs><style>.cls-1,.cls-2{fill:#fff;}.cls-1{fill-rule:evenodd;}.cls-3{fill:#eaeaea;}</style></defs><title>نُلَقِّن</title><path class="cls-1" d="M301.41,356.67c-.15-.2-.3-.31-.34-.45-.13-.46-.21-.94-.35-1.4-.29-1-.61-1.91-.93-2.86-.52-1.53-1.8-2.18-3.17-2.71-.36-.14-.73-.25-1.13-.38-.23-1.18.3-2.2.39-3.28a2.85,2.85,0,0,1,.76-1.48,2.74,2.74,0,0,1,1.71.95,12.91,12.91,0,0,1,3.09,4.83c.1.24.21.47.32.71a.84.84,0,0,0,.17.07,4.92,4.92,0,0,0,0-.52c-.07-1-.15-2.09-.22-3.14a14.11,14.11,0,0,1,.27-4.3c.1-.43.13-.87.21-1.3a7,7,0,0,1,2-3.88,1.2,1.2,0,0,1,1.2-.33,3.55,3.55,0,0,1,2.66,2.63.83.83,0,0,1,.05.38,6.09,6.09,0,0,1-1.31,2.87c-.3-.5-.51-.88-.75-1.24a3,3,0,0,0-1.38-1.16.94.94,0,0,0-1.17.29,3,3,0,0,0-.77,2.3c.06,1.14.19,2.27.22,3.41a26.74,26.74,0,0,1-.71,8.07c-.14.5-.34,1-.53,1.48A2.19,2.19,0,0,1,301.41,356.67Z"/><path class="cls-1" d="M185.76,327.14a6,6,0,0,0-3.64-3.13l-3.75-1.62c-.79-.34-1.58-.68-2.36-1-2.3-1.1-2.44-1.33-2.12-3.78a15.56,15.56,0,0,1,.52-2.53c.75-2.39,1.55-4.76,2.33-7.14q.13-.4.3-.81c.68-1.55,1.18-1.37,2.32-.85,2.22,1,4.47,1.93,6.68,2.95a12.91,12.91,0,0,1,2.61,1.48,3.22,3.22,0,0,1,1.36,3.76c-.15.48-.21,1-.33,1.47l-2,7.69c-.22.83-.4,1.67-.67,2.49A1.3,1.3,0,0,1,185.76,327.14Z"/><path class="cls-1" d="M316,265.16c-.72-1.78-2.24-2.64-3.88-3.35l-4-1.73c-.84-.36-1.69-.71-2.51-1.11-2.45-1.16-2.61-1.41-2.27-4a16.26,16.26,0,0,1,.56-2.69c.8-2.56,1.65-5.09,2.49-7.63a6.86,6.86,0,0,1,.32-.86c.72-1.66,1.26-1.47,2.47-.92,2.37,1.07,4.77,2.07,7.14,3.15a15.22,15.22,0,0,1,2.78,1.58,3.44,3.44,0,0,1,1.45,4c-.16.51-.22,1-.36,1.57-.7,2.74-1.41,5.47-2.12,8.21-.23.88-.43,1.78-.7,2.65A1.41,1.41,0,0,1,316,265.16Z"/><path class="cls-1" d="M204.35,242.12a5.39,5.39,0,0,0-2.78-3.26l-3.08-1.92c-.65-.41-1.3-.81-1.93-1.24-1.88-1.27-2-1.49-1.36-3.61A13.42,13.42,0,0,1,196,230c1-2,2-4,3-6,.12-.23.24-.46.37-.67.81-1.28,1.22-1.05,2.16-.44,1.81,1.18,3.67,2.3,5.48,3.5a11.5,11.5,0,0,1,2.09,1.65,2.88,2.88,0,0,1,.69,3.49c-.2.4-.32.84-.49,1.25l-2.79,6.49c-.3.7-.58,1.42-.92,2.1A1.17,1.17,0,0,1,204.35,242.12Z"/><path class="cls-1" d="M199.67,224.42a5.4,5.4,0,0,0-2.78-3.25l-3.08-1.93c-.65-.4-1.3-.8-1.93-1.23-1.88-1.27-2-1.49-1.36-3.61a13.9,13.9,0,0,1,.8-2.15c1-2,2-4,3-6,.12-.22.24-.45.37-.66.81-1.28,1.23-1.05,2.16-.45,1.81,1.18,3.67,2.31,5.48,3.5a12.45,12.45,0,0,1,2.09,1.65,2.87,2.87,0,0,1,.69,3.5c-.2.4-.32.83-.49,1.24l-2.79,6.5c-.3.7-.57,1.41-.91,2.09A1.17,1.17,0,0,1,199.67,224.42Z"/><path class="cls-1" d="M224.46,300.79c-.57,1.49-1.15,2.92-1.67,4a28.52,28.52,0,0,0,1.7-3.94Z"/><path class="cls-1" d="M223.64,282a8.33,8.33,0,0,0-.83,1.37,3.56,3.56,0,0,1,1.08,0c.27-.78.58-1.61.9-2.46A4.23,4.23,0,0,0,223.64,282Z"/><path class="cls-1" d="M337.11,272.9a2.49,2.49,0,0,0-2.91-2.37,5.66,5.66,0,0,0-2.57.93,19.54,19.54,0,0,0-6.18,6.94c-1.3,2.66-2.47,5.39-3.71,8.09-1.63,3.55-3.18,7.13-4.95,10.61-1.49,2.95-4.44,6.58-7.75,10.14-10.09,10.87-26.63-6.87-30.38-11.78.26-2.24.48-4.49.7-6.74a168.91,168.91,0,0,0,.57-21.93c-.13-3.91-.38-7.83-.86-11.71A86.05,86.05,0,0,0,275,239.16c-2.08-6.38-4.91-12.46-7.37-18.69-.45-1.13-1-2.25-1.5-3.34a155.53,155.53,0,0,1-9-22.79c-.38-1.25-.68-2.52-1.11-3.75q-2.07-6.06-3.58-12.28a112.38,112.38,0,0,1-2.82-17.77c-.32-4.08-.4-8.17-.63-12.26a14.24,14.24,0,0,0-.48-2.81,1.05,1.05,0,0,0-.77-.55,1,1,0,0,0-.82.44,14.64,14.64,0,0,0-1,3c-.59,3.43-1.07,6.87-1.59,10.31a5.37,5.37,0,0,1-.67,2.74c-1.11-.91-2.1-1.74-3.12-2.54a9.12,9.12,0,0,0-5-2c-3-.25-5.6.41-7.32,4.2a39.3,39.3,0,0,0-2.8,11.09,13.42,13.42,0,0,0,.35,5.17,46.49,46.49,0,0,0,8.42,17.23c3.23,4.22,6.38,8.49,9.55,12.76.77,1,1.46,2.14,2.13,3.13a17.07,17.07,0,0,0-.64,2.41,60.48,60.48,0,0,1-1.57,7.66,74.58,74.58,0,0,0-2.21,12.59,36.12,36.12,0,0,0,.35,9.11,9.49,9.49,0,0,0,3.1,5.31c2.09,1.85,4.42,1.23,5.35-1.35.12-.32.24-.65.33-1a32.46,32.46,0,0,0,.53-10.12c0-.24-.38-.45-.61-.71a3.92,3.92,0,0,0-.39,2.68,7.18,7.18,0,0,1-1,3.48,1.82,1.82,0,0,1-2.66.81,6.49,6.49,0,0,1-1.89-1.73c-1.45-2-1.58-4.38-1.52-6.75.08-3.07,1-6,1.56-9,.67-3.41,1.73-6.74,2-10.23a5.8,5.8,0,0,1,.45-1.17c.43.63.73,1,1,1.45.57,1,1.1,2,1.68,3a148.76,148.76,0,0,1,10.07,19.47,64.25,64.25,0,0,1,4.8,33.48c-.53,5.36-1.33,10.71-2,16-.08.57,2.4-4.09,2.93-6.74,1-5,1.79-9.93,2.33-15,.26-2.42.33-4.87.35-7.3s-.17-4.7-.25-7.05c0-.3,0-.6.06-1,.75.25.83.8,1,1.25a82.2,82.2,0,0,1,6.11,23.13,34.14,34.14,0,0,1,0,6.78,86,86,0,0,1-1.81,10.54A37.66,37.66,0,0,1,268.05,303c-10.4,16-23.16,2.77-30.3-6l-1.05-1.29c-.42-.52-.81-1-1.18-1.49L245.75,270a4.35,4.35,0,0,0-1.56-5.3l-16.88-11.48a1.33,1.33,0,0,1-.58-1.32c.13-.81.35-1.6.5-2.4a12.36,12.36,0,0,0,0-4.29,4.43,4.43,0,0,1-.66,1.39,7.33,7.33,0,0,1-1.42,1.47,8.82,8.82,0,0,0,1.92-4.67c.08-.93,0-1.79,0-2.68h0a6.74,6.74,0,0,1,.09-1c0-.2.08-.4.13-.59v0a5.41,5.41,0,0,1,2.18-3.08,5.42,5.42,0,0,0-.48.26,4.91,4.91,0,0,0-2,2.52c-.62,1.8-.12,3.82-.61,5.66a13.52,13.52,0,0,1-2,3.69,12.38,12.38,0,0,0-1.35,2.67h0a4.88,4.88,0,0,0-.21.9c.62-2,2.31-2.89,3.4-4.21a4,4,0,0,0,.74-1.27,5.7,5.7,0,0,1-.2,2.65c0,.17-.09.33-.13.49-.31,1.13-.73,2.24-.95,3.39a19.81,19.81,0,0,1-.59,3.18,15.82,15.82,0,0,1-2.2,3.44,6.56,6.56,0,0,0-1,2.14,1.6,1.6,0,0,0-.05.21,9.7,9.7,0,0,1,1.68-2.45l.65-.7c.36-.38.73-.75,1.1-1.1l.38-.36a7.72,7.72,0,0,0-.73,3.13c0,1.11.21,2.22.16,3.33a10,10,0,0,1-2,5.1,9.69,9.69,0,0,0,1.58-2,5.92,5.92,0,0,0,.75-2.16c0,.12,0,.23,0,.34,0,2.1-1,3.41-2.2,5.13a10.48,10.48,0,0,0-1.72,2.6,9.5,9.5,0,0,1,1.52-1.52c.6-.5,1.22-1,1.78-1.5a6,6,0,0,0,.43-.45,4.79,4.79,0,0,0,1.08-1.86,5.37,5.37,0,0,1-1.05,3c-.71,1-1.65,1.93-2.46,2.91a7.87,7.87,0,0,0-1.42,2.37,1.42,1.42,0,0,0-.07.22,5,5,0,0,1,2.33-1.85c.21-.08.42-.14.64-.2l1.23-.3a4.93,4.93,0,0,0,1.07-.41,5.7,5.7,0,0,1-1.55,1,9.29,9.29,0,0,0-2,1.36,4.38,4.38,0,0,0-.93,1.29l.13-.1h0a3.06,3.06,0,0,1,.8-.42,7.17,7.17,0,0,1,1.78-.33,9.79,9.79,0,0,0,1.07-.14l0,0a4.16,4.16,0,0,0-1.07,1.18,17.63,17.63,0,0,0-.84,1.88,3.56,3.56,0,0,1,1.59-.49h.26a5.6,5.6,0,0,1,2.45.68,14.94,14.94,0,0,0,2.28,1.18,4,4,0,0,0,1.95.12,9.12,9.12,0,0,1-4.46.32,6.73,6.73,0,0,0-2.45,0,3.13,3.13,0,0,0-.84.36c-.32.85-.63,1.68-.9,2.46a2.34,2.34,0,0,1,.46.09,5.39,5.39,0,0,1,2.1,1.17,9.64,9.64,0,0,1,1,1,4.62,4.62,0,0,0-2.14-.34,4.16,4.16,0,0,0-2.34,1,4.27,4.27,0,0,0-1.08,1.38,5.12,5.12,0,0,0-.51,2c-.29-.82-.57-1.64-.84-2.47a70.6,70.6,0,0,1-3.25-17.49c-.09-1.49-.12-3-.11-4.46s.06-3,.16-4.47a75.77,75.77,0,0,1,1.15-8.87,72,72,0,0,1,2.21-8.67c.46-1.42,1-2.83,1.52-4.22.27-.69.56-1.38.87-2.06s.55-1.2.85-1.78h0A2.12,2.12,0,0,1,224,235h0a.21.21,0,0,0,0-.24.22.22,0,0,0-.38,0c-.37.67-.7,1.34-1,2s-.62,1.37-.91,2.07c-.59,1.39-1.12,2.8-1.61,4.22a73,73,0,0,0-2.39,8.72,74.83,74.83,0,0,0-1.32,9c-.13,1.5-.21,3-.25,4.52s0,3,0,4.53a72.31,72.31,0,0,0,3,17.87,76.46,76.46,0,0,0,3.14,8.53c.68,1.54,1.4,3.05,2.18,4.54l0,.07a28.52,28.52,0,0,1-1.7,3.94c-6.42,12.19-20.42,16.73-26.21,9.38-5.36,31,8.25,19.43,20,48.69-11.12,46.87-63.89,9.56-55.68-26.78,5.58-28.18,23.08-51.8,29.65-78.66,2.19-15.82-12.94,25-15.78,29.11-18.28,32-33.34,72.12,3.84,109.88,6.82,5.82,13.38,10.51,22.71,9.5,26-3,21.31-50.41,14.55-70.65,8.29-5.38,12-16.94,14.56-26.95l0,0c1.78-3,3.92,3.66,3.92,3.66s6.92,25.82,30.62,15.46c2-.88,4.79-3.94,6.39-6a33.14,33.14,0,0,0,3.19-6.79c7.48,10.44,24.78,28.7,42,4.83,1.91-2.65,4.48-8.23,5.76-11.24,1.47-3.45,2.67-7,4.35-10.37,1.78-3.55,4.34-6.44,8.89-7a13.89,13.89,0,0,0,.72-2.55c.38-4.21.69-8.42,1-12.63A13.81,13.81,0,0,0,337.11,272.9Zm-86.27-64.6a84.22,84.22,0,0,0-7.21-10.54c-1-1.24-1.86-2.52-2.8-3.77-1.15-1.53-2.3-3.06-3.49-4.55a55.08,55.08,0,0,1-6.09-9.39,37.1,37.1,0,0,1-3-9.15,10.1,10.1,0,0,1,.38-4.9,2.91,2.91,0,0,1,2.57-2.25,9,9,0,0,1,5.38.57,15.06,15.06,0,0,1,6.72,6,4.54,4.54,0,0,1,.44,3.76,6.94,6.94,0,0,1-3.08-1.46c-.87-.54-1.34-1.61-2.38-1.9-.18.16-.39.25-.43.39a18.9,18.9,0,0,0-.71,5.4,2.51,2.51,0,0,0,.85,1.82,11.39,11.39,0,0,0,6.67,3.35c1,4.63,1.84,9.23,3,13.76s2.5,8.82,3.81,13.37C251.19,208.57,250.94,208.47,250.84,208.3Zm-23.77,74.76c-.82-.19-1.56-.7-2.38-.86l.23-.14.06,0a4.09,4.09,0,0,1,5.25,1.1h-.43A11.84,11.84,0,0,1,227.07,283.06Z"/><path class="cls-1" d="M192.71,180.45a5.28,5.28,0,0,1,.13,2.9,14,14,0,0,0-.15,2.14,2.8,2.8,0,0,0,1.66,2.58,3.13,3.13,0,0,0,3.26-.46,5.44,5.44,0,0,0,2.25-4.21,3.47,3.47,0,0,1,.37-2.2c.22.17.52.29.58.49a11.9,11.9,0,0,1,.27,1.47,3.68,3.68,0,0,0,.17.63c.38,1.09,1.09,1.78,1.72,1.68a2.44,2.44,0,0,0,1.66-2.27c0-1.14-.13-2.29-.2-3.43a4.19,4.19,0,0,1,0-1.06c0-.16.27-.28.52-.51a4.94,4.94,0,0,1,.5,1,27.74,27.74,0,0,1,.67,7.92,5.92,5.92,0,0,1-1.49,3.5,1.94,1.94,0,0,1-2.7.28,15.26,15.26,0,0,1-1.4-1.52c-.22.49-.41.92-.61,1.34a7.62,7.62,0,0,1-2.14,2.65,3.88,3.88,0,0,1-6.29-2.43,17.12,17.12,0,0,1-.17-3.43c.09-1.72.3-3.43.49-5.15A2.26,2.26,0,0,1,192.71,180.45Z"/><path class="cls-1" d="M253.46,375.41c-.22-.65-.47-1-.43-1.33.34-3.26.69-6.52,1.13-9.78a11.17,11.17,0,0,1,2.59-5.78c1.47-1.75,3-3.48,4.55-5.14,3.09-3.29,6.23-6.52,9.35-9.78a14.51,14.51,0,0,0,3.28-5.18,8.46,8.46,0,0,1,.75-1.35c1.23.44,1.46.65,1.25,1.53-.4,1.7-.88,3.39-1.36,5.08-.23.81-.59,1.58-.78,2.39a22,22,0,0,1-4.26,8,70.58,70.58,0,0,1-6.14,6.79c-2,2-3.86,4.13-5.72,6.25a13.63,13.63,0,0,0-3.5,6.86A6.09,6.09,0,0,1,253.46,375.41Z"/><path class="cls-1" d="M301.49,228c-.27.26-.55.51-.8.78l-3.32,3.51q-1.75,1.86-3.49,3.73c-.39.41-.73.88-1.16,1.25a12.29,12.29,0,0,0-2.43,2.76c-.06.09-.2.13-.35.22a12.14,12.14,0,0,1,2.25-4.24,3.89,3.89,0,0,1,.38-.43,81,81,0,0,0,6.12-7.09c.3-.36.63-.7.94-1.06a64,64,0,0,0,6.54-8.92,12,12,0,0,0,1.29-3.33c-.38-.19-.7-.37-1-.53-.94-.43-1.9-.84-2.85-1.27A5.28,5.28,0,0,1,303,213a3.06,3.06,0,0,1-1.51-3.52,8.85,8.85,0,0,1,2.28-4.65,4.58,4.58,0,0,1,1.62-1.12,1.9,1.9,0,0,1,2,.31,3.39,3.39,0,0,1,1.1,1.63,12.11,12.11,0,0,1,.72,5.3c0,.23,0,.47-.06.79.29.26.61.53.91.81a15.25,15.25,0,0,1,1.22,1.19,1.91,1.91,0,0,1,.39,1.86c-.23.8-.4,1.62-.65,2.66a5.49,5.49,0,0,0-2.87-2.7c-.16.56-.33,1.05-.45,1.55a20.62,20.62,0,0,1-3.82,7.54c-.58.75-1.14,1.51-1.69,2.28a5.28,5.28,0,0,0-.38.75Zm6.16-16.72a6.78,6.78,0,0,0-.88-3.2,2.57,2.57,0,0,0-.47-.52,1.47,1.47,0,0,0-1-.4,1.74,1.74,0,0,0-1.18.41c-.42.34-1,.6-1,1.3A19.37,19.37,0,0,0,307.65,211.24Z"/><path class="cls-1" d="M275.71,166.63c.3,4.43-1.54,14.94-2.56,19.08-.67,2.68-.95,6.66.78,8.84a8.65,8.65,0,0,0,1.23,1.19c1,.86,3.14-.2,4-1.24.9-.8,2.15-4,2.86-7.32.89,6.46,0,13.3-5,14.17-2.68,0-5.2-2.37-5.83-5.49a23,23,0,0,1,.5-10.24c.92-3.62,1.43-6.18,2.33-9.78C274.63,173.05,275.16,169.31,275.71,166.63Z"/><path class="cls-1" d="M250.52,234.35a4,4,0,0,0-.39,2.68,7.07,7.07,0,0,1-1,3.48,1.82,1.82,0,0,1-2.65.81,6.16,6.16,0,0,1-1.89-1.74c-1.46-2-1.59-4.37-1.53-6.74.08-3.07,1-6,1.56-9,.67-3.41,1.73-6.75,2-10.23a3.15,3.15,0,0,1,.33-.9,11.51,11.51,0,0,1-1-2l-.18-.15a13.73,13.73,0,0,0-.6,2.27,60.3,60.3,0,0,1-1.58,7.67,73.57,73.57,0,0,0-2.2,12.59,35.13,35.13,0,0,0,.35,9.1,9.44,9.44,0,0,0,3.09,5.32c2.09,1.85,4.42,1.23,5.36-1.35.11-.33.24-.65.32-1a32.21,32.21,0,0,0,.54-10.13C251.12,234.82,250.76,234.61,250.52,234.35Z"/><path class="cls-2" d="M215.45,287.69a21.32,21.32,0,0,0-3.38-.69,5,5,0,0,1-2.57-1.18,2,2,0,0,0,.93.12,4.6,4.6,0,0,0,1.35-.42,10.77,10.77,0,0,1,1.06-.44,5.12,5.12,0,0,1-.65-.25c-.47-.22-.93-.48-1.4-.7a9.4,9.4,0,0,0-1.84-.66c.38-.08.75-.19,1.13-.29a5.27,5.27,0,0,1,2-.22,3.56,3.56,0,0,1,1.37.51,7.41,7.41,0,0,0-2.75-1.91,28.09,28.09,0,0,1-2.93-1.26,6.81,6.81,0,0,1-2-1.74,6.28,6.28,0,0,0,2.71,1.46c1.11.3,2.29.32,3.39.67a6.65,6.65,0,0,1,3.2,2.48,4.91,4.91,0,0,0-1.6-2.1c-.88-.71-1.91-1.22-2.85-1.85a5.75,5.75,0,0,1-2.27-2.47c-.52-1.3-.26-2.77-.55-4.14a5.24,5.24,0,0,0-1.49-2.65,5.38,5.38,0,0,1,1.52,1.13c.63.64,1.17,1.36,1.83,2a4.67,4.67,0,0,0,1.69,1,8.47,8.47,0,0,1-2.4-3.81,16.83,16.83,0,0,1-.46-6.52,24.54,24.54,0,0,0,.21-3.92,7.43,7.43,0,0,0-.44-2.08,14.73,14.73,0,0,1,1.9,4.67c.21.95.32,1.91.55,2.85a7.35,7.35,0,0,0,.84,2.14A7.09,7.09,0,0,1,211,265c-.07-1.32.08-2.65-.06-4a14.34,14.34,0,0,0-.39-1.93c-.21-.79-.47-1.57-.68-2.36a9.45,9.45,0,0,1-.37-3.19,7,7,0,0,0,.42,1.79c.37,1,.9,2,1.34,3a16.18,16.18,0,0,1,.82,2.37c-.28-2.54-1.38-5-1.22-7.6a15.53,15.53,0,0,1,1.19-4.5,15.44,15.44,0,0,0,1.19-4.5,5.56,5.56,0,0,0-1.09-3.81,5.69,5.69,0,0,1,.52,3h0a1.43,1.43,0,0,0-2.14.62l-11.3,22.65c-3.83,8.47.83,15.29,5.72,18.67,6.41,4.44,8.41,5.7,15.2,10.32a.35.35,0,0,0,.52-.41c-.33-1-.66-1.92-1.07-2.84A8.18,8.18,0,0,0,215.45,287.69Z"/><path class="cls-2" d="M230.64,229.93a5.94,5.94,0,0,0-3.55-.57,9.06,9.06,0,0,0-3.39,1.27,12.18,12.18,0,0,0-4.18,4.26c.09-.43.21-.86.29-1.3a7.25,7.25,0,0,0-.13-3,9,9,0,0,1-.72,1.93,34.45,34.45,0,0,1-2.16,3.46,14.22,14.22,0,0,0-2.63,6.34,25.72,25.72,0,0,0,.37,5.17,11.11,11.11,0,0,1-.09,3.55,8.06,8.06,0,0,0,.51-3.2c0-1.61-.32-3.22-.19-4.82a16,16,0,0,1,2.49-6.6c.75-1.28,1.56-2.55,2.25-3.88a4.18,4.18,0,0,1-.14.93c-.17.7-.47,1.38-.57,2.09a12.32,12.32,0,0,0,0,2.35,14.29,14.29,0,0,1,3.49-5.43,10.23,10.23,0,0,1,3.19-2.14,6.43,6.43,0,0,1,3.8-.36,4.73,4.73,0,0,1,3,2.2,3.88,3.88,0,0,1,.43,2.54,2.56,2.56,0,0,1,0,.27,3.78,3.78,0,0,0,.15-2.28A4.42,4.42,0,0,0,230.64,229.93Z"/><path class="cls-2" d="M232.3,233.12a2.22,2.22,0,0,0-1.51-.71,3.46,3.46,0,0,0-2.16.69,9.25,9.25,0,0,0-3.12,4.72,38.1,38.1,0,0,1-1.54,4.06,3.84,3.84,0,0,0,1.3-1.57,15.83,15.83,0,0,0,.8-2.44,10.26,10.26,0,0,1,1.62-3.38,4.58,4.58,0,0,1,2.2-1.67A2.83,2.83,0,0,1,232.3,233.12Z"/><path class="cls-2" d="M239.19,245.65a4.09,4.09,0,0,1-4-1.41.11.11,0,0,0-.18.1,4.09,4.09,0,0,1-.68,4.17.09.09,0,0,0,.1.15,4.09,4.09,0,0,1,4,1.41.11.11,0,0,0,.18-.1,4.09,4.09,0,0,1,.68-4.17A.09.09,0,0,0,239.19,245.65Z"/><path class="cls-2" d="M193.64,261.34a4.09,4.09,0,0,1,4,1.41c.07.08.2,0,.17-.11a4.07,4.07,0,0,1,.68-4.16.09.09,0,0,0-.09-.15,4.13,4.13,0,0,1-4-1.41.1.1,0,0,0-.17.1,4.12,4.12,0,0,1-.68,4.16A.1.1,0,0,0,193.64,261.34Z"/><path class="cls-2" d="M198.87,254.65a2.06,2.06,0,0,1,2,.71s.11,0,.09-.05a2.07,2.07,0,0,1,.34-2.09s0-.08,0-.07a2.08,2.08,0,0,1-2-.71s-.1,0-.08.05a2.07,2.07,0,0,1-.34,2.09A0,0,0,0,0,198.87,254.65Z"/><path class="cls-2" d="M235,297.3l17.56-22.64a4.11,4.11,0,0,0,.41-4.4l-.48-.94-16.51,26-1.16,1.82C234.74,297.29,234.91,297.41,235,297.3Z"/><path class="cls-2" d="M248.7,266.89v0c-3,6.22-11.35,23.84-13.44,28.52a6.71,6.71,0,0,0-.48,1.15l14.29-23.81A5.16,5.16,0,0,0,248.7,266.89Z"/><path class="cls-2" d="M255.39,272.9,236.7,295.7l1.05,1.29,17.31-18A4.65,4.65,0,0,0,255.39,272.9Z"/><path class="cls-3" d="M136.28,429.4V428a.29.29,0,0,1,.33-.33h1.16a.29.29,0,0,1,.33.33v11.74a2,2,0,0,0,.38,1.38,1.69,1.69,0,0,0,1.21.37h1.69a2,2,0,0,1,1,.2.83.83,0,0,1,.33.76c0,.45-.11.7-.31.78a3.09,3.09,0,0,1-1,.12h-1.79a6,6,0,0,1-1.19-.12,3,3,0,0,1-1.06-.41,2.29,2.29,0,0,1-.76-.86,3.1,3.1,0,0,1-.3-1.46,4.29,4.29,0,0,1-1.48.95,6.68,6.68,0,0,1-2.35.34,5.41,5.41,0,0,1-3.95-1.44,5.91,5.91,0,0,1-1.47-4.41,9.23,9.23,0,0,1,.44-3,5.23,5.23,0,0,1,1.26-2,4.77,4.77,0,0,1,1.92-1.13,8.11,8.11,0,0,1,2.43-.34Zm-3.7,10.51a3.63,3.63,0,0,0,2.91-1,4,4,0,0,0,.79-2.61v-5.09h-3.53a3.87,3.87,0,0,0-2.83,1,5.07,5.07,0,0,0-1,3.64,4.2,4.2,0,0,0,.94,3.06A3.74,3.74,0,0,0,132.58,439.91Zm-2.78-14.48a.29.29,0,0,1-.33-.33v-2a.29.29,0,0,1,.33-.33h1.72a.29.29,0,0,1,.33.33v2a.29.29,0,0,1-.33.33Zm4.24,0a.29.29,0,0,1-.33-.33v-2a.29.29,0,0,1,.33-.33h1.72a.29.29,0,0,1,.33.33v2a.29.29,0,0,1-.33.33Z"/><path class="cls-3" d="M147.46,439a2.1,2.1,0,0,0,.88,1.87,4,4,0,0,0,2.33.61h.2a2.11,2.11,0,0,1,1,.19.73.73,0,0,1,.33.71.84.84,0,0,1-.3.74,1.75,1.75,0,0,1-1,.22,8,8,0,0,1-2.39-.32,2.32,2.32,0,0,1-1.45-1.44,3.43,3.43,0,0,1-1.06,1.28,3.24,3.24,0,0,1-1.92.48h-2.67a1.62,1.62,0,0,1-.91-.19.77.77,0,0,1-.28-.71.91.91,0,0,1,.26-.76,1.64,1.64,0,0,1,.93-.2h2.48a2.43,2.43,0,0,0,1-.16,1.05,1.05,0,0,0,.53-.51,2.58,2.58,0,0,0,.21-.88,11.13,11.13,0,0,0,0-1.22v-8.37A.29.29,0,0,1,146,430h1.16a.29.29,0,0,1,.33.33Zm-4.4,9.76a.29.29,0,0,1-.33-.33v-2a.29.29,0,0,1,.33-.33h1.72a.29.29,0,0,1,.33.33v2a.29.29,0,0,1-.33.33Zm4.24,0c-.23,0-.34-.11-.34-.33v-2c0-.22.11-.33.34-.33H149a.3.3,0,0,1,.34.33v2a.3.3,0,0,1-.34.33Z"/><path class="cls-3" d="M166.27,438.59a5.1,5.1,0,0,0,.17,1.42,2.27,2.27,0,0,0,.46.89,1.5,1.5,0,0,0,.73.45,3.62,3.62,0,0,0,1,.11h.69a2.05,2.05,0,0,1,1,.2.85.85,0,0,1,.33.76c0,.38-.11.62-.32.73a2.27,2.27,0,0,1-1,.17h-.56a6.34,6.34,0,0,1-2.13-.35,2.89,2.89,0,0,1-1.54-1.31,4.16,4.16,0,0,1-1.92,1.46,7.6,7.6,0,0,1-2.61.43,8,8,0,0,1-2.66-.43,4,4,0,0,1-1.94-1.42,2.59,2.59,0,0,1-1.38,1.35,5.34,5.34,0,0,1-1.72.27h-1.95a2.31,2.31,0,0,1-1-.17c-.22-.11-.33-.35-.33-.73s.11-.71.32-.81a2.48,2.48,0,0,1,1-.15h1.81a2,2,0,0,0,.73-.13,1.48,1.48,0,0,0,.66-.48,2.7,2.7,0,0,0,.5-.91,4.33,4.33,0,0,0,.2-1.42c0-.26,0-.54-.05-.84s0-.6,0-.91q0-7.38,5.82-7.37a5.42,5.42,0,0,1,4.37,1.75,8,8,0,0,1,1.48,5.29c0,.29,0,.65,0,1.11A6.14,6.14,0,0,1,166.27,438.59Zm-5.75-7.34a3.35,3.35,0,0,0-3,1.4,7,7,0,0,0-.92,3.89,6.57,6.57,0,0,0,.92,3.88,3.47,3.47,0,0,0,3,1.28,3.52,3.52,0,0,0,3-1.28,6.56,6.56,0,0,0,.94-3.88,7,7,0,0,0-.94-3.87A3.37,3.37,0,0,0,160.52,431.25Z"/><path class="cls-3" d="M175.33,439a2.13,2.13,0,0,0,.88,1.87,4,4,0,0,0,2.33.61h.2a2.11,2.11,0,0,1,1,.19.73.73,0,0,1,.33.71.84.84,0,0,1-.3.74,1.73,1.73,0,0,1-1,.22,7.88,7.88,0,0,1-2.38-.32,2.34,2.34,0,0,1-1.46-1.44,3.4,3.4,0,0,1-1.05,1.28,3.26,3.26,0,0,1-1.92.48h-2.68a1.64,1.64,0,0,1-.91-.19.77.77,0,0,1-.28-.71.94.94,0,0,1,.26-.76,1.64,1.64,0,0,1,.93-.2h2.48a2.43,2.43,0,0,0,1-.16,1.05,1.05,0,0,0,.53-.51,2.83,2.83,0,0,0,.22-.88c0-.35.05-.76.05-1.22v-8.37a.29.29,0,0,1,.33-.33H175a.29.29,0,0,1,.33.33Zm-4.39,9.76a.29.29,0,0,1-.33-.33v-2a.29.29,0,0,1,.33-.33h1.72a.29.29,0,0,1,.33.33v2a.29.29,0,0,1-.33.33Zm4.23,0a.29.29,0,0,1-.33-.33v-2a.29.29,0,0,1,.33-.33h1.72a.29.29,0,0,1,.33.33v2a.29.29,0,0,1-.33.33Z"/><path class="cls-3" d="M184.69,439a2.1,2.1,0,0,0,.88,1.87,4,4,0,0,0,2.33.61h.2a2.11,2.11,0,0,1,1,.19.73.73,0,0,1,.33.71.84.84,0,0,1-.3.74,1.75,1.75,0,0,1-1,.22,7.88,7.88,0,0,1-2.38-.32,2.34,2.34,0,0,1-1.46-1.44,3.43,3.43,0,0,1-1.06,1.28,3.23,3.23,0,0,1-1.91.48h-2.55a2.06,2.06,0,0,1-1-.19.72.72,0,0,1-.34-.71.83.83,0,0,1,.33-.76,2,2,0,0,1,1-.2h2.35a2.43,2.43,0,0,0,1-.16,1.05,1.05,0,0,0,.53-.51,2.58,2.58,0,0,0,.21-.88,11.13,11.13,0,0,0,.05-1.22V421.16a.29.29,0,0,1,.33-.33h1.16a.29.29,0,0,1,.33.33Z"/><path class="cls-3" d="M196.79,429.4c2.25,0,3.89.44,4.93,1.34a4.73,4.73,0,0,1,1.55,3.81,6.08,6.08,0,0,1-.38,2.14,8.73,8.73,0,0,1-1,1.93,10,10,0,0,1-1.32,1.6,8.28,8.28,0,0,1-1.43,1.15,1.68,1.68,0,0,0,.47.08h5.82a1.64,1.64,0,0,1,1.12.27.9.9,0,0,1,.27.66.77.77,0,0,1-.32.74,2.17,2.17,0,0,1-1.07.19h-4.37a12.49,12.49,0,0,1-2.25-.19,5.69,5.69,0,0,1-2-.77,5.6,5.6,0,0,1-2.32.81,18.89,18.89,0,0,1-2.21.15h-4.24a2.39,2.39,0,0,1-1-.17c-.21-.11-.31-.36-.31-.76a.9.9,0,0,1,.26-.73,2,2,0,0,1,1.09-.2h4.67a10,10,0,0,0,1.65-.11,7.29,7.29,0,0,0,1.42-.41,9.51,9.51,0,0,0-.81-2.53,9.86,9.86,0,0,0-1.24-2,9.21,9.21,0,0,0-1.47-1.46c-.52-.41-1-.77-1.47-1.07-.29-.18-.43-.32-.43-.43v-1.79q0-.3.48-.69a5.29,5.29,0,0,1,1.32-.76,10.43,10.43,0,0,1,2-.62A13.15,13.15,0,0,1,196.79,429.4Zm.73,10.94a8.68,8.68,0,0,0,1.34-1,8,8,0,0,0,1.22-1.36,6.76,6.76,0,0,0,.88-1.63,5.21,5.21,0,0,0,.33-1.84,2.9,2.9,0,0,0-.36-1.5,3.05,3.05,0,0,0-1-1,4.2,4.2,0,0,0-1.42-.58,8,8,0,0,0-1.74-.18,9,9,0,0,0-1.58.13,10.78,10.78,0,0,0-1.38.33,8.65,8.65,0,0,0-1.05.4,4.17,4.17,0,0,0-.65.33,14.44,14.44,0,0,1,3.47,3.27A10.72,10.72,0,0,1,197.52,440.34Z"/><path class="cls-3" d="M211.54,439a2.1,2.1,0,0,0,.88,1.87,4,4,0,0,0,2.33.61h.2a2.11,2.11,0,0,1,1,.19.73.73,0,0,1,.33.71.84.84,0,0,1-.3.74,1.75,1.75,0,0,1-1,.22,7.88,7.88,0,0,1-2.38-.32,2.32,2.32,0,0,1-1.46-1.44,3.43,3.43,0,0,1-1.06,1.28,3.24,3.24,0,0,1-1.92.48h-2.67a1.62,1.62,0,0,1-.91-.19.77.77,0,0,1-.28-.71.91.91,0,0,1,.26-.76,1.64,1.64,0,0,1,.93-.2h2.48a2.47,2.47,0,0,0,1-.16,1.05,1.05,0,0,0,.53-.51,2.58,2.58,0,0,0,.21-.88c0-.35.05-.76.05-1.22v-8.37a.29.29,0,0,1,.33-.33h1.16a.29.29,0,0,1,.33.33Zm-4-12.23a.29.29,0,0,1-.33-.33v-2a.29.29,0,0,1,.33-.33h1.72a.29.29,0,0,1,.33.33v2a.29.29,0,0,1-.33.33Zm4.23,0a.29.29,0,0,1-.33-.33v-2a.29.29,0,0,1,.33-.33h1.72a.29.29,0,0,1,.33.33v2a.29.29,0,0,1-.33.33Z"/><path class="cls-3" d="M214.94,443.32a2.29,2.29,0,0,1-1-.17c-.22-.11-.33-.35-.33-.73s.11-.68.32-.79a2.25,2.25,0,0,1,1-.17h2.42a1.87,1.87,0,0,0,1.27-.39,1.75,1.75,0,0,0,.45-1.36V421.16a.29.29,0,0,1,.33-.33h1.16a.29.29,0,0,1,.33.33v18a9.11,9.11,0,0,1-.17,1.85,3,3,0,0,1-.59,1.31,2.6,2.6,0,0,1-1.18.76,6.37,6.37,0,0,1-1.93.25Z"/><path class="cls-3" d="M227.67,443a.29.29,0,0,1-.33.33h-1.15a.29.29,0,0,1-.33-.33V421.16a.29.29,0,0,1,.33-.33h1.15a.29.29,0,0,1,.33.33Z"/><path class="cls-3" d="M252.94,433.23a.29.29,0,0,1,.33-.33h1.15c.23,0,.34.11.34.33V439a2.21,2.21,0,0,0,.77,1.87,3.42,3.42,0,0,0,2.17.61h.16a2.08,2.08,0,0,1,1.06.19.84.84,0,0,1,.27.74.77.77,0,0,1-.32.74,2,2,0,0,1-1,.19,6.38,6.38,0,0,1-1.77-.23,3,3,0,0,1-1.33-.83v.43a8.33,8.33,0,0,1-.45,2.79,5.87,5.87,0,0,1-1.36,2.2,6.27,6.27,0,0,1-2.33,1.46,10.61,10.61,0,0,1-6.53,0,6.33,6.33,0,0,1-2.35-1.41,6,6,0,0,1-1.43-2.2,7.8,7.8,0,0,1-.5-2.84,10.12,10.12,0,0,1,.68-3.8,13.35,13.35,0,0,1,1.47-2.84c.09-.14.24-.14.46,0l1,.66a.28.28,0,0,1,.1.43,16.07,16.07,0,0,0-1.26,2.43,7.34,7.34,0,0,0-.6,2.92,5.2,5.2,0,0,0,.57,2.57,4.45,4.45,0,0,0,1.42,1.58,5.29,5.29,0,0,0,1.87.81,8.54,8.54,0,0,0,4.06,0,4.51,4.51,0,0,0,1.74-.86,4.32,4.32,0,0,0,1.16-1.54,5.62,5.62,0,0,0,.43-2.3Zm-5-.33a.29.29,0,0,1-.33-.33v-2a.29.29,0,0,1,.33-.33h1.32a.29.29,0,0,1,.33.33v2a.29.29,0,0,1-.33.33Z"/><path class="cls-3" d="M261.4,418.42a.29.29,0,0,1-.33-.33v-.37a.29.29,0,0,1,.33-.33h8.4a.29.29,0,0,1,.33.33v.37a.29.29,0,0,1-.33.33Zm0-7.44a.29.29,0,0,1,.33-.33h.53a.29.29,0,0,1,.33.33v2.44a1.37,1.37,0,0,0,.33,1,1.15,1.15,0,0,0,.86.35,1.19,1.19,0,0,0,.86-.32,1.15,1.15,0,0,0,.33-.87V411a.29.29,0,0,1,.33-.33h.53a.29.29,0,0,1,.33.33v2.58a1.12,1.12,0,0,0,.34.87,1.19,1.19,0,0,0,.86.32,1.15,1.15,0,0,0,.84-.35,1.33,1.33,0,0,0,.34-1V411a.3.3,0,0,1,.34-.33h.53a.3.3,0,0,1,.33.33v2.35a2.56,2.56,0,0,1-.68,1.85,2.28,2.28,0,0,1-1.7.69,2.19,2.19,0,0,1-1.76-.73,2.25,2.25,0,0,1-1.82.73,2.28,2.28,0,0,1-1.7-.69,2.56,2.56,0,0,1-.68-1.85Z"/><path class="cls-3" d="M266,429.4a7.28,7.28,0,0,1,2.7.46,5.36,5.36,0,0,1,3.17,3.22,6.73,6.73,0,0,1,.42,2.4,6.32,6.32,0,0,1-.27,1.85,7.26,7.26,0,0,1-.73,1.69,6.62,6.62,0,0,1-1.09,1.42,6.16,6.16,0,0,1-1.32,1h5.69a2.5,2.5,0,0,1,1,.15q.33.15.33.81a.76.76,0,0,1-.31.7,2,2,0,0,1-1,.2h-4.27c-.79,0-1.54,0-2.25-.1a4.62,4.62,0,0,1-2-.7,5.83,5.83,0,0,1-2.33.7c-.83.06-1.56.1-2.2.1h-3.61q-1.32,0-1.32-1a.76.76,0,0,1,.31-.71,2.12,2.12,0,0,1,1-.19h5.19a9.19,9.19,0,0,1-2.39-2.51,6,6,0,0,1-1-3.37,6.66,6.66,0,0,1,.43-2.35,6.12,6.12,0,0,1,1.23-2,5.57,5.57,0,0,1,1.95-1.36A6.65,6.65,0,0,1,266,429.4Zm0,1.91a4.71,4.71,0,0,0-1.7.3,4,4,0,0,0-1.35.86,4,4,0,0,0-.91,1.36,4.59,4.59,0,0,0-.33,1.78,4.83,4.83,0,0,0,.34,1.82A5.69,5.69,0,0,0,263,439a6.38,6.38,0,0,0,1.38,1.21A9.36,9.36,0,0,0,266,441a9.1,9.1,0,0,0,1.64-.85A6.05,6.05,0,0,0,269,439a5.88,5.88,0,0,0,.92-1.55,4.83,4.83,0,0,0,.35-1.82,4.11,4.11,0,0,0-1.21-3.17A4.3,4.3,0,0,0,266,431.31Zm-3-4.56a.29.29,0,0,1-.33-.33v-2a.29.29,0,0,1,.33-.33h1.72a.3.3,0,0,1,.34.33v2a.3.3,0,0,1-.34.33Zm4.24,0a.29.29,0,0,1-.33-.33v-2a.29.29,0,0,1,.33-.33h1.72a.29.29,0,0,1,.33.33v2a.29.29,0,0,1-.33.33Z"/><path class="cls-3" d="M280.48,439a2.1,2.1,0,0,0,.88,1.87,4,4,0,0,0,2.33.61h.2a2.11,2.11,0,0,1,1,.19.73.73,0,0,1,.33.71.84.84,0,0,1-.3.74,1.75,1.75,0,0,1-1,.22,8,8,0,0,1-2.39-.32,2.32,2.32,0,0,1-1.45-1.44,3.43,3.43,0,0,1-1.06,1.28,3.24,3.24,0,0,1-1.92.48h-2.54a2,2,0,0,1-1-.19.72.72,0,0,1-.34-.71.83.83,0,0,1,.33-.76,2,2,0,0,1,1-.2h2.35a2.5,2.5,0,0,0,1-.16,1.05,1.05,0,0,0,.53-.51,2.58,2.58,0,0,0,.21-.88c0-.35.05-.76.05-1.22V421.16a.29.29,0,0,1,.33-.33h1.16a.29.29,0,0,1,.33.33Z"/><path class="cls-3" d="M287,417.69a4.4,4.4,0,0,0,1.25-.15,2.54,2.54,0,0,0,.81-.38,1.85,1.85,0,0,0,.48-.49,2,2,0,0,0,.23-.47h-1.15a2.49,2.49,0,0,1-1.76-.58,2.09,2.09,0,0,1-.62-1.6,2.42,2.42,0,0,1,.69-1.74,2.32,2.32,0,0,1,1.72-.71,2.35,2.35,0,0,1,1.73.7,3.06,3.06,0,0,1,.72,2.28,5.55,5.55,0,0,1-.32,2,3.33,3.33,0,0,1-.86,1.31,3,3,0,0,1-1.29.69,6.38,6.38,0,0,1-1.63.2h-.93a.29.29,0,0,1-.33-.33V418a.29.29,0,0,1,.33-.33Zm3-2.48a1.84,1.84,0,0,0,0-.33v-.33a2.25,2.25,0,0,0-.38-1.44,1.17,1.17,0,0,0-1-.48,1.21,1.21,0,0,0-1,.46,1.56,1.56,0,0,0-.35.93.94.94,0,0,0,.55.94,2.28,2.28,0,0,0,.94.25Z"/><path class="cls-3" d="M283.85,443.32a2.29,2.29,0,0,1-1-.17c-.22-.11-.33-.35-.33-.73s.1-.68.31-.79a2.3,2.3,0,0,1,1-.17h2.42a1.87,1.87,0,0,0,1.27-.39,1.75,1.75,0,0,0,.44-1.36v-9.39a.3.3,0,0,1,.34-.33h1.15a.29.29,0,0,1,.33.33v8.83a9.17,9.17,0,0,1-.16,1.85,2.89,2.89,0,0,1-.6,1.31,2.52,2.52,0,0,1-1.17.76,6.41,6.41,0,0,1-1.93.25Zm4.37-16.57a.29.29,0,0,1-.33-.33v-2a.29.29,0,0,1,.33-.33h1.32a.29.29,0,0,1,.33.33v2a.29.29,0,0,1-.33.33Z"/><path class="cls-3" d="M311,429.4V428a.29.29,0,0,1,.33-.33h1.15a.29.29,0,0,1,.33.33v11.74a2,2,0,0,0,.38,1.38,1.69,1.69,0,0,0,1.21.37h1.69a2,2,0,0,1,1,.2.83.83,0,0,1,.33.76c0,.45-.1.7-.31.78a3.09,3.09,0,0,1-1,.12h-1.79a6.08,6.08,0,0,1-1.19-.12,3.08,3.08,0,0,1-1.06-.41,2.29,2.29,0,0,1-.76-.86,3.24,3.24,0,0,1-.29-1.46,4.43,4.43,0,0,1-1.49.95,6.68,6.68,0,0,1-2.35.34,5.41,5.41,0,0,1-3.95-1.44,5.91,5.91,0,0,1-1.47-4.41,9.23,9.23,0,0,1,.44-3,5.23,5.23,0,0,1,1.26-2,4.77,4.77,0,0,1,1.92-1.13,8.16,8.16,0,0,1,2.43-.34Zm-3.71,10.51a3.63,3.63,0,0,0,2.91-1,4,4,0,0,0,.8-2.61v-5.09h-3.54a3.87,3.87,0,0,0-2.83,1,5.07,5.07,0,0,0-1,3.64,4.2,4.2,0,0,0,.94,3.06A3.74,3.74,0,0,0,307.26,439.91Zm-2.78-14.48a.29.29,0,0,1-.33-.33v-2a.29.29,0,0,1,.33-.33h1.72a.29.29,0,0,1,.33.33v2a.29.29,0,0,1-.33.33Zm4.24,0a.29.29,0,0,1-.33-.33v-2a.29.29,0,0,1,.33-.33h1.72a.29.29,0,0,1,.33.33v2a.29.29,0,0,1-.33.33Z"/><path class="cls-3" d="M337.78,437.17c0,.35,0,.68,0,1s0,.58,0,.82a2.12,2.12,0,0,0,.87,1.87,4,4,0,0,0,2.34.61h.16a2.5,2.5,0,0,1,1,.15q.33.15.33.75c0,.42-.1.68-.31.79a2.3,2.3,0,0,1-1,.17,7.59,7.59,0,0,1-2.53-.4,2.28,2.28,0,0,1-1.47-1.62,3.12,3.12,0,0,1-.86,1.11A3.57,3.57,0,0,1,335,443a9.09,9.09,0,0,1-1.72.25c-.65,0-1.37.05-2.17.05h-8.66a6.87,6.87,0,0,1-1.06-.1,2.44,2.44,0,0,1-.86-.3,2.68,2.68,0,0,1-1.11.33,11.2,11.2,0,0,1-1.3.07h-2.05a2,2,0,0,1-1-.2.76.76,0,0,1-.34-.7.84.84,0,0,1,.32-.76,2,2,0,0,1,1-.2h2.44c.8,0,1.28-.21,1.46-.66a6.19,6.19,0,0,0,.26-2.15v-8.2a.29.29,0,0,1,.33-.33h1.16a.29.29,0,0,1,.33.33v1.19a21.89,21.89,0,0,1,3.76-1.58,13.81,13.81,0,0,1,4.24-.66c2.61,0,4.54.66,5.82,2A8,8,0,0,1,337.78,437.17ZM332,441.46a11.41,11.41,0,0,0,1.79-.11,2.17,2.17,0,0,0,1.19-.56,2.58,2.58,0,0,0,.66-1.31,11,11,0,0,0,.2-2.35,10.12,10.12,0,0,0-.27-2.44,4.29,4.29,0,0,0-.91-1.85,4.2,4.2,0,0,0-1.73-1.18,7.85,7.85,0,0,0-2.71-.41,11.79,11.79,0,0,0-2.2.21,22.22,22.22,0,0,0-2.17.55,17.93,17.93,0,0,0-2,.76c-.64.29-1.22.56-1.75.82v6.12a6.34,6.34,0,0,1-.2,1.75Z"/><path class="cls-3" d="M347.07,439a2.1,2.1,0,0,0,.88,1.87,4,4,0,0,0,2.33.61h.2a2.11,2.11,0,0,1,1,.19.73.73,0,0,1,.33.71.84.84,0,0,1-.3.74,1.73,1.73,0,0,1-1,.22,7.88,7.88,0,0,1-2.38-.32,2.34,2.34,0,0,1-1.46-1.44,3.34,3.34,0,0,1-1.06,1.28,3.23,3.23,0,0,1-1.91.48h-2.55a2,2,0,0,1-1-.19.7.7,0,0,1-.35-.71.83.83,0,0,1,.33-.76,2,2,0,0,1,1-.2h2.35a2.43,2.43,0,0,0,1-.16,1.05,1.05,0,0,0,.53-.51,2.58,2.58,0,0,0,.21-.88,11.13,11.13,0,0,0,.05-1.22v-8.37a.29.29,0,0,1,.33-.33h1.16a.29.29,0,0,1,.33.33Zm-1.59-12.23a.29.29,0,0,1-.33-.33v-2a.29.29,0,0,1,.33-.33h1.33a.29.29,0,0,1,.33.33v2a.29.29,0,0,1-.33.33Z"/><path class="cls-3" d="M360.13,443.55a8.06,8.06,0,0,1-2.66-.43,4,4,0,0,1-1.93-1.42,2.64,2.64,0,0,1-1.39,1.35,5.3,5.3,0,0,1-1.72.27h-1.95a2.29,2.29,0,0,1-1-.17c-.22-.11-.33-.35-.33-.73s.1-.71.31-.81a2.51,2.51,0,0,1,1-.15h1.82a2,2,0,0,0,.72-.13,1.45,1.45,0,0,0,.67-.48,2.88,2.88,0,0,0,.49-.91,4.33,4.33,0,0,0,.2-1.42c0-.26,0-.54-.05-.84s0-.6,0-.91q0-7.38,5.82-7.37a5.35,5.35,0,0,1,4.35,1.75,8.08,8.08,0,0,1,1.47,5.29c0,2.45-.49,4.24-1.47,5.39A5.43,5.43,0,0,1,360.13,443.55Zm0-12.3a3.35,3.35,0,0,0-3,1.4,7.08,7.08,0,0,0-.92,3.89,6.65,6.65,0,0,0,.92,3.88,3.47,3.47,0,0,0,3,1.28,3.52,3.52,0,0,0,3-1.28,6.49,6.49,0,0,0,.94-3.88,6.93,6.93,0,0,0-.94-3.87A3.37,3.37,0,0,0,360.13,431.25Z"/></svg>