<svg id="Layer_1" data-name="Layer 1" xmlns="http://www.w3.org/2000/svg" viewBox="0 0 398.3 524.81"><defs><style>.cls-1{fill:#828282;}.cls-2,.cls-4{fill:#3f51b5;}.cls-2,.cls-3{fill-rule:evenodd;}.cls-3{fill:#ff5856;}</style></defs><title>نُلَقِّن</title><path class="cls-1" d="M109.38,399.55v-1.42a.29.29,0,0,1,.33-.33h1.16a.29.29,0,0,1,.33.33v11.74a1.93,1.93,0,0,0,.38,1.37,1.69,1.69,0,0,0,1.21.38h1.69a2,2,0,0,1,1,.2.82.82,0,0,1,.33.76c0,.44-.11.7-.32.78a3.39,3.39,0,0,1-1,.11h-1.79a6.84,6.84,0,0,1-1.19-.11,3,3,0,0,1-1.06-.42,2.14,2.14,0,0,1-.76-.86,3.06,3.06,0,0,1-.3-1.45,4.09,4.09,0,0,1-1.49.94,6.56,6.56,0,0,1-2.34.35,5.39,5.39,0,0,1-4-1.44,5.89,5.89,0,0,1-1.48-4.41,9,9,0,0,1,.45-3,5.2,5.2,0,0,1,1.26-2,4.87,4.87,0,0,1,1.92-1.12,8.06,8.06,0,0,1,2.43-.35Zm-3.7,10.52a3.63,3.63,0,0,0,2.91-1,4,4,0,0,0,.79-2.61v-5.1h-3.53a3.86,3.86,0,0,0-2.83,1c-.7.68-1,1.9-1,3.64a4.2,4.2,0,0,0,.94,3.06A3.78,3.78,0,0,0,105.68,410.07Zm-2.78-14.49a.29.29,0,0,1-.33-.33v-2a.29.29,0,0,1,.33-.33h1.72a.29.29,0,0,1,.33.33v2a.29.29,0,0,1-.33.33Zm4.23,0a.29.29,0,0,1-.33-.33v-2a.29.29,0,0,1,.33-.33h1.72a.29.29,0,0,1,.33.33v2a.29.29,0,0,1-.33.33Z"/><path class="cls-1" d="M120.56,409.14a2.13,2.13,0,0,0,.87,1.87,4,4,0,0,0,2.34.61H124a2.15,2.15,0,0,1,1,.18.74.74,0,0,1,.33.71.87.87,0,0,1-.3.75,1.86,1.86,0,0,1-1,.21,8,8,0,0,1-2.38-.31,2.32,2.32,0,0,1-1.45-1.44,3.49,3.49,0,0,1-1.06,1.27,3.24,3.24,0,0,1-1.92.48h-2.68a1.71,1.71,0,0,1-.9-.18.78.78,0,0,1-.29-.71.9.9,0,0,1,.27-.76,1.6,1.6,0,0,1,.92-.2H117a2.52,2.52,0,0,0,1-.16,1.11,1.11,0,0,0,.53-.52,2.52,2.52,0,0,0,.21-.87c0-.36,0-.76,0-1.23v-8.36a.29.29,0,0,1,.33-.33h1.16a.29.29,0,0,1,.33.33Zm-4.4,9.76c-.22,0-.33-.11-.33-.34v-2a.29.29,0,0,1,.33-.33h1.72a.29.29,0,0,1,.33.33v2c0,.23-.11.34-.33.34Zm4.23,0c-.22,0-.33-.11-.33-.34v-2a.29.29,0,0,1,.33-.33h1.72a.29.29,0,0,1,.33.33v2c0,.23-.11.34-.33.34Z"/><path class="cls-1" d="M139.37,408.74a5.18,5.18,0,0,0,.17,1.43,2.27,2.27,0,0,0,.46.89,1.42,1.42,0,0,0,.73.44,3.5,3.5,0,0,0,1,.12h.69a2,2,0,0,1,1,.2.82.82,0,0,1,.33.76c0,.38-.1.62-.31.73a2.32,2.32,0,0,1-1,.16h-.56a6.34,6.34,0,0,1-2.13-.34,2.89,2.89,0,0,1-1.54-1.31,4.14,4.14,0,0,1-1.92,1.45,7.37,7.37,0,0,1-2.61.43,7.77,7.77,0,0,1-2.66-.43,4,4,0,0,1-1.94-1.42,2.63,2.63,0,0,1-1.39,1.36,5.59,5.59,0,0,1-1.72.26h-2a2.31,2.31,0,0,1-1-.16c-.22-.11-.33-.35-.33-.73s.11-.71.32-.81a2.46,2.46,0,0,1,1-.15h1.82a2.08,2.08,0,0,0,.73-.13,1.65,1.65,0,0,0,.66-.48,3,3,0,0,0,.5-.91,4.37,4.37,0,0,0,.2-1.42c0-.27,0-.55-.05-.85s0-.6,0-.9q0-7.38,5.82-7.38A5.42,5.42,0,0,1,138,401.3a8,8,0,0,1,1.49,5.29c0,.29,0,.66,0,1.11A6.25,6.25,0,0,1,139.37,408.74Zm-5.75-7.34a3.34,3.34,0,0,0-3,1.41,7,7,0,0,0-.93,3.88,6.6,6.6,0,0,0,.93,3.89,4.21,4.21,0,0,0,6,0,6.52,6.52,0,0,0,1-3.89,6.87,6.87,0,0,0-1-3.86A3.34,3.34,0,0,0,133.62,401.4Z"/><path class="cls-1" d="M148.43,409.14a2.12,2.12,0,0,0,.88,1.87,4,4,0,0,0,2.33.61h.2a2.13,2.13,0,0,1,1,.18.74.74,0,0,1,.33.71.87.87,0,0,1-.3.75,1.85,1.85,0,0,1-1,.21,7.9,7.9,0,0,1-2.38-.31,2.34,2.34,0,0,1-1.46-1.44,3.39,3.39,0,0,1-1.06,1.27,3.23,3.23,0,0,1-1.91.48h-2.68a1.75,1.75,0,0,1-.91-.18.78.78,0,0,1-.28-.71.93.93,0,0,1,.26-.76,1.64,1.64,0,0,1,.93-.2h2.48a2.43,2.43,0,0,0,1-.16,1.07,1.07,0,0,0,.53-.52,2.52,2.52,0,0,0,.21-.87,11.33,11.33,0,0,0,.05-1.23v-8.36a.29.29,0,0,1,.33-.33h1.16a.29.29,0,0,1,.33.33ZM144,418.9c-.22,0-.33-.11-.33-.34v-2a.29.29,0,0,1,.33-.33h1.72a.29.29,0,0,1,.33.33v2c0,.23-.11.34-.33.34Zm4.24,0c-.22,0-.33-.11-.33-.34v-2a.29.29,0,0,1,.33-.33H150a.29.29,0,0,1,.33.33v2c0,.23-.11.34-.33.34Z"/><path class="cls-1" d="M157.79,409.14a2.12,2.12,0,0,0,.88,1.87,4,4,0,0,0,2.33.61h.19a2.15,2.15,0,0,1,1,.18.74.74,0,0,1,.33.71.87.87,0,0,1-.3.75,1.86,1.86,0,0,1-1,.21,8,8,0,0,1-2.38-.31,2.32,2.32,0,0,1-1.45-1.44A3.39,3.39,0,0,1,156.3,413a3.24,3.24,0,0,1-1.92.48h-2.54a2.17,2.17,0,0,1-1-.18.72.72,0,0,1-.34-.71.82.82,0,0,1,.33-.76,2,2,0,0,1,1-.2h2.34a2.52,2.52,0,0,0,1-.16,1.07,1.07,0,0,0,.53-.52,2.52,2.52,0,0,0,.21-.87c0-.36.05-.76.05-1.23V391.32a.29.29,0,0,1,.33-.33h1.16a.29.29,0,0,1,.33.33Z"/><path class="cls-1" d="M169.89,399.55q3.38,0,4.93,1.34a4.79,4.79,0,0,1,1.55,3.82,6,6,0,0,1-.38,2.13,9.26,9.26,0,0,1-1,1.94,9.91,9.91,0,0,1-1.33,1.6,7.71,7.71,0,0,1-1.42,1.14,1.36,1.36,0,0,0,.46.08,4.81,4.81,0,0,0,.5,0h5.32a1.65,1.65,0,0,1,1.13.27.9.9,0,0,1,.26.66.78.78,0,0,1-.31.74,2.33,2.33,0,0,1-1.08.18h-4.36a13.5,13.5,0,0,1-2.25-.18,5.58,5.58,0,0,1-2-.78,5.37,5.37,0,0,1-2.31.81,19,19,0,0,1-2.22.15h-4.23a2.42,2.42,0,0,1-1-.16c-.21-.11-.31-.37-.31-.76a.84.84,0,0,1,.26-.73,2,2,0,0,1,1.09-.2h4.66a9.91,9.91,0,0,0,1.66-.12,6.26,6.26,0,0,0,1.42-.41,10,10,0,0,0-.81-2.53,9.86,9.86,0,0,0-1.24-1.95,9.13,9.13,0,0,0-1.47-1.45q-.78-.62-1.47-1.08c-.29-.17-.43-.32-.43-.43v-1.78c0-.2.16-.43.48-.7a5.41,5.41,0,0,1,1.32-.76,11.21,11.21,0,0,1,2-.61A12.41,12.41,0,0,1,169.89,399.55Zm.73,10.95a9.49,9.49,0,0,0,1.34-1,7.52,7.52,0,0,0,1.22-1.35,7.19,7.19,0,0,0,.88-1.64,5.12,5.12,0,0,0,.33-1.83,2.84,2.84,0,0,0-.37-1.51,3,3,0,0,0-1-1,4.4,4.4,0,0,0-1.42-.57,7.42,7.42,0,0,0-1.74-.19,9.13,9.13,0,0,0-1.59.14,8.34,8.34,0,0,0-1.37.33,11.15,11.15,0,0,0-1.06.39c-.29.14-.51.25-.64.33a14.48,14.48,0,0,1,3.47,3.28A10.66,10.66,0,0,1,170.62,410.5Z"/><path class="cls-1" d="M184.64,409.14a2.12,2.12,0,0,0,.88,1.87,4,4,0,0,0,2.33.61H188a2.18,2.18,0,0,1,1,.18.74.74,0,0,1,.33.71.87.87,0,0,1-.3.75,1.86,1.86,0,0,1-1,.21,7.94,7.94,0,0,1-2.38-.31,2.32,2.32,0,0,1-1.45-1.44,3.49,3.49,0,0,1-1.06,1.27,3.24,3.24,0,0,1-1.92.48h-2.68a1.78,1.78,0,0,1-.91-.18.8.8,0,0,1-.28-.71.9.9,0,0,1,.27-.76,1.6,1.6,0,0,1,.92-.2H181a2.52,2.52,0,0,0,1-.16,1.11,1.11,0,0,0,.53-.52,2.52,2.52,0,0,0,.21-.87c0-.36,0-.76,0-1.23v-8.36a.29.29,0,0,1,.33-.33h1.16a.29.29,0,0,1,.33.33Zm-4-12.23a.29.29,0,0,1-.33-.33v-2a.29.29,0,0,1,.33-.33h1.72a.29.29,0,0,1,.33.33v2a.29.29,0,0,1-.33.33Zm4.23,0a.29.29,0,0,1-.33-.33v-2a.29.29,0,0,1,.33-.33h1.72a.29.29,0,0,1,.33.33v2a.29.29,0,0,1-.33.33Z"/><path class="cls-1" d="M188,413.47a2.31,2.31,0,0,1-1-.16c-.22-.11-.33-.35-.33-.73s.11-.68.31-.79a2.3,2.3,0,0,1,1-.17h2.42a1.83,1.83,0,0,0,1.27-.4,1.71,1.71,0,0,0,.45-1.35V391.32a.29.29,0,0,1,.33-.33h1.15a.3.3,0,0,1,.34.33v18a9.18,9.18,0,0,1-.17,1.85,2.85,2.85,0,0,1-.6,1.3,2.37,2.37,0,0,1-1.17.76,6.11,6.11,0,0,1-1.93.25Z"/><path class="cls-1" d="M200.77,413.14a.29.29,0,0,1-.33.33h-1.16a.29.29,0,0,1-.33-.33V391.32a.29.29,0,0,1,.33-.33h1.16a.29.29,0,0,1,.33.33Z"/><path class="cls-1" d="M226,403.39a.29.29,0,0,1,.33-.33h1.16a.29.29,0,0,1,.33.33v5.75a2.23,2.23,0,0,0,.78,1.87,3.42,3.42,0,0,0,2.17.61H231a2.1,2.1,0,0,1,1.06.18.88.88,0,0,1,.26.75.78.78,0,0,1-.31.74,2.11,2.11,0,0,1-1,.18,6,6,0,0,1-1.77-.23,3,3,0,0,1-1.34-.82v.42a8.61,8.61,0,0,1-.44,2.8,5.87,5.87,0,0,1-1.36,2.2,6.33,6.33,0,0,1-2.33,1.45,10.71,10.71,0,0,1-6.53,0,6.47,6.47,0,0,1-2.35-1.41,6,6,0,0,1-1.44-2.2,7.88,7.88,0,0,1-.49-2.84,10.08,10.08,0,0,1,.68-3.8,13.44,13.44,0,0,1,1.47-2.85c.08-.13.24-.13.46,0l1,.66a.27.27,0,0,1,.1.43,16.12,16.12,0,0,0-1.25,2.43,7.42,7.42,0,0,0-.6,2.93,5.27,5.27,0,0,0,.56,2.56,4.6,4.6,0,0,0,1.43,1.59,5.72,5.72,0,0,0,1.86.81,9,9,0,0,0,1.94.23,8.63,8.63,0,0,0,2.13-.26,4.73,4.73,0,0,0,1.74-.86,4.19,4.19,0,0,0,1.15-1.54,5.49,5.49,0,0,0,.43-2.3Zm-4.95-.33c-.23,0-.34-.11-.34-.33v-2c0-.22.11-.33.34-.33h1.32a.29.29,0,0,1,.33.33v2a.29.29,0,0,1-.33.33Z"/><path class="cls-1" d="M234.5,388.57a.29.29,0,0,1-.33-.33v-.36a.29.29,0,0,1,.33-.33h8.4a.29.29,0,0,1,.33.33v.36a.29.29,0,0,1-.33.33Zm0-7.44a.29.29,0,0,1,.33-.33h.53a.29.29,0,0,1,.33.33v2.45a1.37,1.37,0,0,0,.33,1,1.14,1.14,0,0,0,.86.34,1.18,1.18,0,0,0,.86-.31,1.15,1.15,0,0,0,.33-.88v-2.58a.29.29,0,0,1,.33-.33H239a.29.29,0,0,1,.33.33v2.58a1.15,1.15,0,0,0,.33.88,1.2,1.2,0,0,0,.86.31,1.16,1.16,0,0,0,.85-.34,1.33,1.33,0,0,0,.34-1v-2.45a.29.29,0,0,1,.33-.33h.53a.29.29,0,0,1,.33.33v2.35a2.5,2.5,0,0,1-.68,1.85,2.24,2.24,0,0,1-1.7.7,2.17,2.17,0,0,1-1.75-.73,2.52,2.52,0,0,1-3.52,0,2.54,2.54,0,0,1-.68-1.85Z"/><path class="cls-1" d="M239.06,399.55a7.52,7.52,0,0,1,2.7.46,5.49,5.49,0,0,1,2,1.29,5.58,5.58,0,0,1,1.21,1.94,6.73,6.73,0,0,1,.42,2.4,6.37,6.37,0,0,1-.27,1.85,7.63,7.63,0,0,1-.73,1.68,7,7,0,0,1-1.09,1.43,6.5,6.5,0,0,1-1.32,1h5.69a2.5,2.5,0,0,1,1,.15q.33.15.33.81a.75.75,0,0,1-.32.69,1.83,1.83,0,0,1-1,.2h-4.27c-.79,0-1.54,0-2.25-.1a4.44,4.44,0,0,1-2-.69,5.66,5.66,0,0,1-2.34.69c-.82.07-1.56.1-2.19.1H231q-1.32,0-1.32-1a.75.75,0,0,1,.31-.71,2.14,2.14,0,0,1,1-.18h5.19a9.19,9.19,0,0,1-2.39-2.51,6.07,6.07,0,0,1-.95-3.37,6.66,6.66,0,0,1,.43-2.35,6.27,6.27,0,0,1,1.23-2,5.58,5.58,0,0,1,1.95-1.35A6.65,6.65,0,0,1,239.06,399.55Zm0,1.92a4.67,4.67,0,0,0-1.7.3,3.94,3.94,0,0,0-1.36.86,4,4,0,0,0-.91,1.35,4.64,4.64,0,0,0-.33,1.79,4.87,4.87,0,0,0,.35,1.82,5.69,5.69,0,0,0,.94,1.55,6.66,6.66,0,0,0,1.38,1.21,8.38,8.38,0,0,0,1.63.84,8.76,8.76,0,0,0,1.64-.84,6,6,0,0,0,1.35-1.21,5.66,5.66,0,0,0,.93-1.55,4.87,4.87,0,0,0,.35-1.82,4.12,4.12,0,0,0-1.21-3.18A4.29,4.29,0,0,0,239.06,401.47Zm-3-4.56a.29.29,0,0,1-.33-.33v-2a.29.29,0,0,1,.33-.33h1.72a.29.29,0,0,1,.33.33v2a.29.29,0,0,1-.33.33Zm4.23,0a.29.29,0,0,1-.33-.33v-2a.29.29,0,0,1,.33-.33H242a.3.3,0,0,1,.33.33v2a.3.3,0,0,1-.33.33Z"/><path class="cls-1" d="M253.58,409.14a2.13,2.13,0,0,0,.87,1.87,4,4,0,0,0,2.33.61h.2a2.18,2.18,0,0,1,1,.18.76.76,0,0,1,.33.71.87.87,0,0,1-.3.75,1.86,1.86,0,0,1-1,.21,7.94,7.94,0,0,1-2.38-.31,2.32,2.32,0,0,1-1.45-1.44,3.49,3.49,0,0,1-1.06,1.27,3.24,3.24,0,0,1-1.92.48h-2.54a2.17,2.17,0,0,1-1-.18.73.73,0,0,1-.35-.71.82.82,0,0,1,.33-.76,2,2,0,0,1,1-.2H250a2.52,2.52,0,0,0,1-.16,1.11,1.11,0,0,0,.53-.52,2.77,2.77,0,0,0,.21-.87c0-.36,0-.76,0-1.23V391.32a.29.29,0,0,1,.33-.33h1.16a.29.29,0,0,1,.33.33Z"/><path class="cls-1" d="M260.12,387.85a4.43,4.43,0,0,0,1.26-.15,2.78,2.78,0,0,0,.81-.38,1.87,1.87,0,0,0,.48-.5,2,2,0,0,0,.23-.46h-1.16a2.48,2.48,0,0,1-1.75-.58,2.07,2.07,0,0,1-.63-1.6,2.42,2.42,0,0,1,.7-1.74,2.31,2.31,0,0,1,1.72-.71,2.38,2.38,0,0,1,1.73.69,3.1,3.1,0,0,1,.71,2.29,5.57,5.57,0,0,1-.31,2,3.4,3.4,0,0,1-.86,1.3,3.11,3.11,0,0,1-1.29.7,6.41,6.41,0,0,1-1.64.2h-.92a.3.3,0,0,1-.33-.34v-.39a.29.29,0,0,1,.33-.33Zm3-2.48a1.84,1.84,0,0,0,0-.33v-.33a2.25,2.25,0,0,0-.38-1.44,1.28,1.28,0,0,0-2,0,1.56,1.56,0,0,0-.35.93.93.93,0,0,0,.55.94,2.4,2.4,0,0,0,.94.25Z"/><path class="cls-1" d="M257,413.47a2.31,2.31,0,0,1-1-.16c-.22-.11-.33-.35-.33-.73s.1-.68.31-.79a2.3,2.3,0,0,1,1-.17h2.41a1.84,1.84,0,0,0,1.28-.4,1.75,1.75,0,0,0,.44-1.35v-9.39a.29.29,0,0,1,.33-.33h1.16a.29.29,0,0,1,.33.33v8.83a9.24,9.24,0,0,1-.16,1.85,2.85,2.85,0,0,1-.6,1.3,2.47,2.47,0,0,1-1.17.76,6.13,6.13,0,0,1-1.94.25Zm4.36-16.56a.29.29,0,0,1-.33-.33v-2a.29.29,0,0,1,.33-.33h1.33a.29.29,0,0,1,.33.33v2a.29.29,0,0,1-.33.33Z"/><path class="cls-1" d="M284.06,399.55v-1.42a.29.29,0,0,1,.33-.33h1.16a.29.29,0,0,1,.33.33v11.74a1.93,1.93,0,0,0,.38,1.37,1.69,1.69,0,0,0,1.21.38h1.69a2,2,0,0,1,1,.2.82.82,0,0,1,.33.76c0,.44-.11.7-.32.78a3.39,3.39,0,0,1-1,.11h-1.79a6.84,6.84,0,0,1-1.19-.11,3,3,0,0,1-1.06-.42,2.14,2.14,0,0,1-.76-.86,3.06,3.06,0,0,1-.3-1.45,4.13,4.13,0,0,1-1.48.94,6.65,6.65,0,0,1-2.35.35,5.39,5.39,0,0,1-4-1.44,5.93,5.93,0,0,1-1.47-4.41,9,9,0,0,1,.44-3,5.2,5.2,0,0,1,1.26-2,4.87,4.87,0,0,1,1.92-1.12,8.06,8.06,0,0,1,2.43-.35Zm-3.7,10.52a3.63,3.63,0,0,0,2.91-1,4,4,0,0,0,.79-2.61v-5.1h-3.54a3.86,3.86,0,0,0-2.82,1c-.7.68-1,1.9-1,3.64a4.2,4.2,0,0,0,.94,3.06A3.78,3.78,0,0,0,280.36,410.07Zm-2.78-14.49a.29.29,0,0,1-.33-.33v-2a.29.29,0,0,1,.33-.33h1.72a.29.29,0,0,1,.33.33v2a.29.29,0,0,1-.33.33Zm4.24,0a.3.3,0,0,1-.34-.33v-2a.3.3,0,0,1,.34-.33h1.71a.29.29,0,0,1,.33.33v2a.29.29,0,0,1-.33.33Z"/><path class="cls-1" d="M310.88,407.32c0,.36,0,.69,0,1s0,.59,0,.83a2.13,2.13,0,0,0,.87,1.87,4,4,0,0,0,2.33.61h.17a2.5,2.5,0,0,1,1,.15c.22.1.33.35.33.74s-.1.69-.31.8a2.32,2.32,0,0,1-1,.16,7.6,7.6,0,0,1-2.53-.39,2.31,2.31,0,0,1-1.47-1.62,3,3,0,0,1-.86,1.1,3.41,3.41,0,0,1-1.27.61,7.72,7.72,0,0,1-1.72.25c-.65,0-1.38.05-2.17.05h-8.66a5.74,5.74,0,0,1-1.06-.1,2.21,2.21,0,0,1-.86-.29,3,3,0,0,1-1.11.33c-.43,0-.86.06-1.31.06h-2a1.9,1.9,0,0,1-1-.2.73.73,0,0,1-.33-.69.83.83,0,0,1,.32-.76,2,2,0,0,1,1-.2h2.44c.8,0,1.28-.22,1.46-.66a6.48,6.48,0,0,0,.26-2.15v-8.2a.29.29,0,0,1,.33-.33h1.16a.29.29,0,0,1,.33.33v1.19a21.35,21.35,0,0,1,3.75-1.59,13.92,13.92,0,0,1,4.25-.66q3.9,0,5.82,2A8,8,0,0,1,310.88,407.32Zm-5.82,4.3a11.28,11.28,0,0,0,1.79-.12,2.11,2.11,0,0,0,1.19-.56,2.66,2.66,0,0,0,.66-1.3,11.14,11.14,0,0,0,.2-2.35,10.27,10.27,0,0,0-.27-2.45,4.53,4.53,0,0,0-.91-1.85,4.09,4.09,0,0,0-1.73-1.17,7.66,7.66,0,0,0-2.72-.42,11.7,11.7,0,0,0-2.19.22,19,19,0,0,0-4.19,1.3c-.64.29-1.22.57-1.75.83v6.12a6.8,6.8,0,0,1-.2,1.75Z"/><path class="cls-1" d="M320.17,409.14a2.12,2.12,0,0,0,.88,1.87,4,4,0,0,0,2.33.61h.2a2.13,2.13,0,0,1,1,.18.74.74,0,0,1,.33.71.87.87,0,0,1-.3.75,1.85,1.85,0,0,1-1,.21,8,8,0,0,1-2.39-.31,2.32,2.32,0,0,1-1.45-1.44,3.39,3.39,0,0,1-1.06,1.27,3.23,3.23,0,0,1-1.91.48h-2.55a2.17,2.17,0,0,1-1-.18.72.72,0,0,1-.34-.71.82.82,0,0,1,.33-.76,2,2,0,0,1,1-.2h2.35a2.43,2.43,0,0,0,1-.16,1.07,1.07,0,0,0,.53-.52,2.52,2.52,0,0,0,.21-.87,11.33,11.33,0,0,0,.05-1.23v-8.36a.29.29,0,0,1,.33-.33h1.16a.29.29,0,0,1,.33.33Zm-1.59-12.23a.29.29,0,0,1-.33-.33v-2a.29.29,0,0,1,.33-.33h1.33a.29.29,0,0,1,.33.33v2a.29.29,0,0,1-.33.33Z"/><path class="cls-1" d="M333.23,413.7a7.77,7.77,0,0,1-2.66-.43,4,4,0,0,1-1.94-1.42,2.65,2.65,0,0,1-1.38,1.36,5.63,5.63,0,0,1-1.72.26h-1.95a2.36,2.36,0,0,1-1-.16c-.22-.11-.33-.35-.33-.73s.11-.71.32-.81a2.48,2.48,0,0,1,1-.15h1.81a2,2,0,0,0,.73-.13,1.58,1.58,0,0,0,.66-.48,2.8,2.8,0,0,0,.5-.91,4.37,4.37,0,0,0,.2-1.42c0-.27,0-.55-.05-.85s0-.6,0-.9q0-7.38,5.82-7.38a5.38,5.38,0,0,1,4.35,1.75,8.1,8.1,0,0,1,1.47,5.29q0,3.68-1.47,5.39A5.4,5.4,0,0,1,333.23,413.7Zm0-12.3a3.34,3.34,0,0,0-3,1.41,7,7,0,0,0-.92,3.88,6.6,6.6,0,0,0,.92,3.89,3.47,3.47,0,0,0,3,1.27,3.52,3.52,0,0,0,3-1.27,6.59,6.59,0,0,0,.94-3.89,7,7,0,0,0-.94-3.86A3.37,3.37,0,0,0,333.23,401.4Z"/><path class="cls-2" d="M196.85,278.72l.18-.27c.13-.51.26-1,.38-1.52C197.23,277.53,197,278.13,196.85,278.72Z"/><path class="cls-3" d="M268,326.82a2.09,2.09,0,0,1-.34-.44c-.13-.47-.21-.94-.35-1.4-.29-1-.61-1.92-.93-2.87-.52-1.52-1.8-2.18-3.17-2.7-.36-.14-.73-.25-1.13-.38-.23-1.18.31-2.21.39-3.28a2.88,2.88,0,0,1,.76-1.49,2.73,2.73,0,0,1,1.71,1A13,13,0,0,1,268,320c.1.24.21.48.32.71,0,0,.07,0,.17.07a4.75,4.75,0,0,0,0-.51c-.07-1.05-.15-2.09-.22-3.14a14.18,14.18,0,0,1,.27-4.31c.1-.42.13-.86.21-1.29a6.91,6.91,0,0,1,2.05-3.88,1.23,1.23,0,0,1,1.2-.34,3.56,3.56,0,0,1,2.66,2.63.86.86,0,0,1,.05.39,6.09,6.09,0,0,1-1.31,2.87c-.3-.5-.51-.88-.75-1.24a2.85,2.85,0,0,0-1.38-1.16.92.92,0,0,0-1.17.29,3,3,0,0,0-.77,2.3c.06,1.13.19,2.27.22,3.4a26.8,26.8,0,0,1-.71,8.08c-.14.5-.34,1-.53,1.48C268.3,326.53,268.15,326.63,268,326.82Z"/><path class="cls-3" d="M152.33,297.3a6.06,6.06,0,0,0-3.64-3.14l-3.75-1.62c-.79-.34-1.58-.67-2.36-1-2.3-1.09-2.44-1.32-2.12-3.78a15.44,15.44,0,0,1,.52-2.52c.75-2.39,1.55-4.76,2.33-7.14q.13-.42.3-.81c.68-1.56,1.18-1.37,2.32-.86,2.22,1,4.47,1.94,6.68,2.95a14,14,0,0,1,2.61,1.48,3.23,3.23,0,0,1,1.36,3.77c-.15.48-.21,1-.33,1.46-.66,2.57-1.33,5.13-2,7.7-.22.83-.4,1.67-.66,2.48A1.32,1.32,0,0,1,152.33,297.3Z"/><path class="cls-3" d="M282.58,235.32c-.72-1.79-2.24-2.65-3.88-3.35l-4-1.73c-.85-.37-1.69-.72-2.52-1.11-2.45-1.17-2.61-1.41-2.27-4a16.48,16.48,0,0,1,.56-2.69c.8-2.55,1.65-5.09,2.49-7.63a6.86,6.86,0,0,1,.32-.86c.72-1.66,1.26-1.46,2.47-.91,2.37,1.07,4.77,2.07,7.14,3.15a14.66,14.66,0,0,1,2.78,1.58,3.43,3.43,0,0,1,1.45,4c-.16.51-.22,1-.36,1.56q-1,4.11-2.12,8.21c-.23.89-.43,1.79-.7,2.66A1.42,1.42,0,0,1,282.58,235.32Z"/><path class="cls-3" d="M170.92,212.27a5.4,5.4,0,0,0-2.78-3.25c-1-.64-2.06-1.28-3.08-1.93-.65-.4-1.3-.8-1.93-1.23-1.88-1.27-2-1.49-1.36-3.61a13.9,13.9,0,0,1,.8-2.15c1-2,2-4,3-6,.12-.22.24-.45.37-.66.81-1.28,1.22-1.05,2.16-.45,1.81,1.19,3.67,2.31,5.48,3.5a12.45,12.45,0,0,1,2.09,1.65,2.88,2.88,0,0,1,.69,3.5c-.2.4-.32.83-.49,1.24l-2.79,6.5c-.3.7-.58,1.41-.92,2.1A1.17,1.17,0,0,1,170.92,212.27Z"/><path class="cls-3" d="M166.24,194.58a5.37,5.37,0,0,0-2.78-3.25l-3.08-1.93c-.65-.41-1.3-.81-1.93-1.23-1.87-1.27-2-1.5-1.36-3.61a13.18,13.18,0,0,1,.8-2.15c1-2,2-4,3-6,.12-.23.24-.45.37-.67.81-1.27,1.23-1,2.16-.44,1.82,1.18,3.67,2.31,5.48,3.5a12,12,0,0,1,2.09,1.65,2.85,2.85,0,0,1,.69,3.49c-.2.4-.32.84-.49,1.25l-2.79,6.49c-.3.7-.57,1.42-.91,2.1A1.18,1.18,0,0,1,166.24,194.58Z"/><path class="cls-2" d="M191.39,270a28.13,28.13,0,0,1-2,4.93C190,273.63,190.72,271.83,191.39,270Z"/><path class="cls-4" d="M303.69,243.06a2.49,2.49,0,0,0-2.91-2.37,5.66,5.66,0,0,0-2.57.93,19.54,19.54,0,0,0-6.18,6.94c-1.3,2.66-2.47,5.39-3.71,8.09-1.63,3.55-3.19,7.13-4.95,10.61-1.49,2.95-4.44,6.58-7.75,10.14-10.09,10.87-26.63-6.87-30.38-11.78.26-2.24.48-4.49.69-6.74a168.91,168.91,0,0,0,.58-21.93c-.13-3.91-.38-7.83-.86-11.71a86.08,86.08,0,0,0-4.06-15.92c-2.07-6.38-4.9-12.46-7.36-18.69-.45-1.13-1-2.25-1.5-3.34a155.53,155.53,0,0,1-9-22.79c-.38-1.25-.68-2.52-1.11-3.75q-2.09-6.06-3.58-12.28a112.38,112.38,0,0,1-2.82-17.77c-.32-4.08-.4-8.17-.63-12.26a15,15,0,0,0-.48-2.81,1.05,1.05,0,0,0-.77-.55,1,1,0,0,0-.82.44,15.33,15.33,0,0,0-1,3c-.58,3.43-1.06,6.87-1.58,10.31a5.28,5.28,0,0,1-.68,2.74c-1.1-.91-2.1-1.74-3.11-2.54a9.12,9.12,0,0,0-5-2c-3-.25-5.61.41-7.32,4.2A39.3,39.3,0,0,0,192,142.3a13.42,13.42,0,0,0,.35,5.17,46.62,46.62,0,0,0,8.41,17.23c3.24,4.22,6.39,8.49,9.56,12.76.77,1,1.46,2.14,2.13,3.13a15.81,15.81,0,0,0-.64,2.41,60.48,60.48,0,0,1-1.57,7.66,74.58,74.58,0,0,0-2.21,12.59,36.12,36.12,0,0,0,.35,9.11,9.49,9.49,0,0,0,3.1,5.31c2.09,1.85,4.42,1.23,5.35-1.35.12-.32.24-.65.33-1a32.46,32.46,0,0,0,.53-10.12c0-.24-.38-.45-.61-.71a3.92,3.92,0,0,0-.39,2.68,7.18,7.18,0,0,1-1,3.48,1.82,1.82,0,0,1-2.66.81,6.49,6.49,0,0,1-1.89-1.73c-1.45-2-1.58-4.38-1.52-6.75.08-3.07,1-6,1.56-9,.67-3.41,1.73-6.74,2-10.23a5.8,5.8,0,0,1,.45-1.17c.43.63.73,1,1,1.45.57,1,1.1,2,1.68,2.95a148.76,148.76,0,0,1,10.07,19.47,64.25,64.25,0,0,1,4.8,33.48c-.53,5.36-1.33,10.71-2.05,16.05-.07.57,2.41-4.09,2.94-6.74,1-4.95,1.79-9.93,2.33-14.95.25-2.42.33-4.87.35-7.3s-.17-4.7-.25-7a8.51,8.51,0,0,1,.06-1c.75.25.82.8,1,1.25a82.2,82.2,0,0,1,6.11,23.13,34.91,34.91,0,0,1,0,6.78,86,86,0,0,1-1.81,10.54,37.66,37.66,0,0,1-5.26,12.43c-12.68,19.53-28.84-4.41-34.11-10.71.08-.75.14-1.5.18-2.26.32-6.06.61-12.14-.94-18.13-2.65-10.16-9.15-16.56-19.1-19.56a8.09,8.09,0,0,0-9.35,2.94,16.42,16.42,0,0,0-2.42,4.35c-1.25,3.41-2.44,6.88-3.35,10.39a37.93,37.93,0,0,0-1.17,11.3,11.29,11.29,0,0,0,6.19,9.93,22.25,22.25,0,0,0,6.93,2.15c5.22,1,9.21-.76,12.14-5.18.6-.92.84-2.21,2.07-2.72,1.73,3.45,2.52,5.72,1.92,7.85-.35,1.22-1.2,3.78-2.15,6.34l-.08.2a28.13,28.13,0,0,1-2,4.93c-6.42,12.2-20.41,16.75-26.21,9.39-5.36,31,8.24,19.43,20,48.69-11.12,46.87-63.89,9.56-55.68-26.78,5.58-28.18,23.08-51.8,29.65-78.66,2.19-15.82-12.94,25-15.78,29.11-18.28,32-33.34,72.12,3.84,109.88,6.82,5.82,13.38,10.51,22.71,9.5,26-3,21.3-50.41,14.55-70.65,8.3-5.38,12-17,14.57-27l-.18.27c.19-.59.38-1.19.56-1.79-.12.5-.25,1-.38,1.52,1.79-3,3.93,3.66,3.93,3.66s6.92,25.82,30.62,15.46c2-.88,4.79-3.94,6.39-6a33.14,33.14,0,0,0,3.19-6.79c7.48,10.44,24.78,28.7,42,4.83,1.91-2.65,4.48-8.23,5.76-11.24,1.47-3.45,2.67-7,4.35-10.37,1.78-3.55,4.34-6.44,8.89-7a13.89,13.89,0,0,0,.72-2.55c.38-4.21.69-8.42,1-12.63A14.57,14.57,0,0,0,303.69,243.06Zm-86.27-64.6a84.22,84.22,0,0,0-7.21-10.54c-1-1.24-1.86-2.52-2.8-3.77-1.15-1.53-2.3-3.06-3.49-4.55a55.08,55.08,0,0,1-6.09-9.39,36.68,36.68,0,0,1-3-9.15,10.1,10.1,0,0,1,.38-4.9,2.91,2.91,0,0,1,2.57-2.25,9,9,0,0,1,5.37.57,15,15,0,0,1,6.73,6,4.54,4.54,0,0,1,.44,3.76,7,7,0,0,1-3.09-1.46c-.86-.54-1.33-1.61-2.37-1.9-.18.16-.39.25-.43.39a18.55,18.55,0,0,0-.71,5.4,2.47,2.47,0,0,0,.85,1.82,11.39,11.39,0,0,0,6.67,3.35c1,4.63,1.84,9.23,3,13.76s2.5,8.82,3.81,13.37C217.77,178.73,217.52,178.63,217.42,178.46Z"/><path class="cls-4" d="M191.47,269.82l-.08.2a1.87,1.87,0,0,0,.07-.22Z"/><path class="cls-4" d="M197.41,276.93c-.12.5-.25,1-.38,1.52l-.18.27C197,278.13,197.23,277.53,197.41,276.93Z"/><path class="cls-3" d="M159.28,150.6a5.22,5.22,0,0,1,.13,2.91,14,14,0,0,0-.15,2.14,2.8,2.8,0,0,0,1.66,2.58,3.17,3.17,0,0,0,3.26-.46,5.47,5.47,0,0,0,2.25-4.22,3.43,3.43,0,0,1,.37-2.19c.22.17.52.29.58.48a12.42,12.42,0,0,1,.27,1.48,4.37,4.37,0,0,0,.17.62c.38,1.1,1.09,1.78,1.72,1.68a2.42,2.42,0,0,0,1.66-2.26c0-1.15-.13-2.29-.2-3.44a4.7,4.7,0,0,1,0-1.06c0-.16.27-.28.52-.51a5.29,5.29,0,0,1,.5,1,27.67,27.67,0,0,1,.67,7.91,6,6,0,0,1-1.49,3.51,2,2,0,0,1-2.7.28,16.57,16.57,0,0,1-1.4-1.52l-.61,1.34a7.62,7.62,0,0,1-2.14,2.65,3.89,3.89,0,0,1-6.29-2.43,17.22,17.22,0,0,1-.17-3.44c.09-1.71.3-3.43.49-5.14A2.27,2.27,0,0,1,159.28,150.6Z"/><path class="cls-3" d="M220,345.56c-.22-.65-.47-1-.43-1.32.34-3.26.69-6.53,1.13-9.78a11.16,11.16,0,0,1,2.59-5.79c1.47-1.75,3-3.47,4.55-5.14,3.09-3.28,6.23-6.51,9.35-9.77a14.64,14.64,0,0,0,3.28-5.19,8.36,8.36,0,0,1,.75-1.34c1.23.43,1.46.64,1.25,1.52-.4,1.71-.88,3.4-1.36,5.09-.23.8-.59,1.57-.78,2.39a22.11,22.11,0,0,1-4.26,8A70.58,70.58,0,0,1,230,331c-2,2-3.86,4.13-5.72,6.25a13.64,13.64,0,0,0-3.5,6.85A5.73,5.73,0,0,1,220,345.56Z"/><path class="cls-3" d="M268.06,198.12c-.27.26-.55.51-.8.78q-1.67,1.74-3.32,3.51t-3.49,3.73c-.39.41-.73.87-1.16,1.25a12.08,12.08,0,0,0-2.43,2.76c-.06.09-.2.13-.35.21a12.23,12.23,0,0,1,2.25-4.24,5,5,0,0,1,.38-.42,81,81,0,0,0,6.12-7.09c.3-.37.63-.71.94-1.06a63.53,63.53,0,0,0,6.54-8.93A11.88,11.88,0,0,0,274,185.3c-.38-.19-.7-.38-1-.53l-2.86-1.27a5.36,5.36,0,0,1-.62-.34,3.05,3.05,0,0,1-1.51-3.51,8.81,8.81,0,0,1,2.28-4.65,4.6,4.6,0,0,1,1.62-1.13,1.9,1.9,0,0,1,2,.32,3.45,3.45,0,0,1,1.11,1.62,12.27,12.27,0,0,1,.71,5.3c0,.24,0,.47-.06.8.29.25.61.52.91.81a15.25,15.25,0,0,1,1.22,1.19,1.91,1.91,0,0,1,.39,1.86c-.23.8-.4,1.61-.65,2.66a5.42,5.42,0,0,0-2.87-2.7c-.16.55-.33,1-.45,1.54a20.66,20.66,0,0,1-3.82,7.55c-.58.74-1.14,1.51-1.69,2.28a4.79,4.79,0,0,0-.38.75Zm6.16-16.72a6.75,6.75,0,0,0-.88-3.2,2.57,2.57,0,0,0-.47-.52,1.42,1.42,0,0,0-1-.4,1.78,1.78,0,0,0-1.18.4c-.42.35-1,.61-1,1.31A19.74,19.74,0,0,0,274.22,181.4Z"/><path class="cls-3" d="M242.28,136.79c.3,4.42-1.54,14.93-2.56,19.08-.67,2.68-.95,6.66.78,8.83a8.65,8.65,0,0,0,1.23,1.19c1.05.86,3.14-.19,4-1.23.9-.81,2.15-4,2.86-7.33.89,6.47,0,13.31-5,14.18-2.68,0-5.2-2.38-5.83-5.49a23,23,0,0,1,.5-10.24c.92-3.62,1.43-6.18,2.33-9.79C241.2,143.21,241.73,139.47,242.28,136.79Z"/><path class="cls-3" d="M217.09,204.51a4,4,0,0,0-.39,2.67,7.07,7.07,0,0,1-1,3.48,1.81,1.81,0,0,1-2.65.82,6.41,6.41,0,0,1-1.89-1.74c-1.46-2-1.59-4.37-1.53-6.74.09-3.07,1-6,1.56-9,.67-3.41,1.73-6.75,2-10.24a3.21,3.21,0,0,1,.33-.89,12.25,12.25,0,0,1-.95-2l-.18-.15a13.48,13.48,0,0,0-.6,2.27,60.66,60.66,0,0,1-1.58,7.67,73.46,73.46,0,0,0-2.2,12.58,35.19,35.19,0,0,0,.35,9.11,9.44,9.44,0,0,0,3.09,5.32c2.09,1.84,4.42,1.23,5.36-1.35.11-.33.24-.66.32-1a32.23,32.23,0,0,0,.54-10.13C217.69,205,217.33,204.76,217.09,204.51Z"/></svg>